<?xml version="1.0" standalone="no"?>
<!DOCTYPE svg PUBLIC "-//W3C//DTD SVG 1.1//EN" "http://www.w3.org/Graphics/SVG/1.1/DTD/svg11.dtd" >
<svg xmlns="http://www.w3.org/2000/svg" xmlns:xlink="http://www.w3.org/1999/xlink" version="1.1">
<metadata>
Created by FontForge 20190801 at Wed Nov 21 15:06:34 2018
 By Jimmy Wärting
Copyright 2018 IBM Corp. All rights reserved.
</metadata>
<defs>
<font id="IBMPlexSans-Italic" horiz-adv-x="0" >
  <font-face 
    font-family="IBM Plex Sans"
    font-weight="400"
    font-style="italic"
    font-stretch="normal"
    units-per-em="1000"
    panose-1="2 11 5 3 5 2 3 0 2 3"
    ascent="780"
    descent="-220"
    x-height="516"
    cap-height="698"
    bbox="-245 -245 1180 1120"
    underline-thickness="60"
    underline-position="-125"
    slope="-11"
    unicode-range="U+000D-FB02"
  />
<missing-glyph horiz-adv-x="472" 
d="M32 0v780h408v-780h-408zM92 60h288v660h-288v-660z" />
    <glyph glyph-name="fi" unicode="fi" horiz-adv-x="555" 
d="M77 516h85l22 110q11 53 38.5 83.5t87.5 30.5h79l-13 -68h-105l-32 -156h268l-89 -448h73l-13 -68h-67q-35 0 -52 17.5t-17 46.5q0 10 2 20l73 364h-191l-108 -534q-11 -53 -38.5 -83.5t-87.5 -30.5h-67l13 68h93l118 580h-85zM497 637q-23 0 -32.5 10.5t-9.5 24.5
q0 3 0.5 8.5t3.5 19.5q4 19 16.5 29.5t37.5 10.5q23 0 32.5 -10.5t9.5 -24.5q0 -3 -0.5 -8.5t-3.5 -19.5q-4 -19 -16.5 -29.5t-37.5 -10.5z" />
    <glyph glyph-name=".notdef" horiz-adv-x="472" 
d="M32 0v780h408v-780h-408zM92 60h288v660h-288v-660z" />
    <glyph glyph-name=".null" 
 />
    <glyph glyph-name=".null" 
 />
    <glyph glyph-name="uni000D" unicode="&#xd;" horiz-adv-x="231" 
 />
    <glyph glyph-name="space" unicode=" " horiz-adv-x="236" 
 />
    <glyph glyph-name="a" unicode="a" horiz-adv-x="583" 
d="M437 0q-34 0 -50.5 17t-16.5 45q0 12 3 27l5 23h-3q-32 -65 -71 -94.5t-96 -29.5q-71 0 -114 52.5t-43 144.5q0 57 15.5 117.5t46.5 111t78.5 82.5t111.5 32q23 0 45 -6t40 -18t31 -30t19 -42h4l17 84h77l-90 -448h73l-13 -68h-69zM228 58q34 0 60 13.5t49 37.5
q26 26 41.5 56t23.5 68l21 105q5 24 1 45.5t-18 38t-38 26.5t-58 10q-63 0 -104 -41t-56 -116l-15 -75q-5 -28 -5 -51q0 -53 25 -85t73 -32z" />
    <glyph glyph-name="a.alt01" horiz-adv-x="524" 
d="M162 -12q-66 0 -103 34.5t-37 90.5q0 85 57 133t177 48h106l10 51q3 15 3 28q0 42 -27 64.5t-76 22.5q-48 0 -79 -18.5t-59 -55.5l-47 45q27 42 77.5 69.5t118.5 27.5q43 0 75 -12t53 -32t31.5 -46t10.5 -55q0 -20 -4 -40l-55 -275h73l-13 -68h-63q-34 0 -50.5 17
t-16.5 45q0 14 2 22h-5q-53 -96 -159 -96zM182 55q28 0 54 7t46 20t33.5 30t17.5 38l17 87h-101q-66 0 -100.5 -20.5t-42.5 -58.5q-4 -19 -5 -26.5t-1 -12.5q0 -31 22 -47.5t60 -16.5z" />
    <glyph glyph-name="b" unicode="b" horiz-adv-x="572" 
d="M185 740h77l-68 -336h3q32 65 71 94.5t96 29.5q71 0 114 -52.5t43 -144.5q0 -57 -15.5 -117.5t-46.5 -111t-78.5 -82.5t-111.5 -32q-23 0 -45 6t-40 18t-31 30t-19 42h-4l-17 -84h-77zM262 58q63 0 104 41t56 116l15 75q5 28 5 51q0 51 -23.5 84t-75.5 33
q-34 0 -59.5 -14t-48.5 -37q-25 -25 -41 -55t-24 -69l-21 -105q-5 -24 -1 -46t18 -38.5t37.5 -26t58.5 -9.5z" />
    <glyph glyph-name="c" unicode="c" horiz-adv-x="488" 
d="M236 -12q-44 0 -78.5 15t-58.5 43t-37 66.5t-13 86.5q0 67 17.5 127t50.5 105t79.5 71t105.5 26q69 0 112.5 -34t58.5 -87l-64 -29q-26 81 -109 81q-62 0 -100.5 -39t-52.5 -108l-17 -84q-2 -11 -3 -23.5t-1 -21.5q0 -56 29 -91t89 -35q38 0 69.5 21.5t62.5 79.5l61 -30
q-32 -67 -83 -103.5t-118 -36.5z" />
    <glyph glyph-name="d" unicode="d" horiz-adv-x="583" 
d="M437 0q-34 0 -50.5 17t-16.5 45q0 12 3 27l5 23h-3q-32 -65 -71 -94.5t-96 -29.5q-71 0 -114 52.5t-43 144.5q0 57 15.5 117.5t46.5 111t78.5 82.5t111.5 32q23 0 45 -6t40 -18t31 -30t19 -42h4l62 308h77l-135 -672h73l-13 -68h-69zM229 58q34 0 59.5 14t48.5 37
q25 25 41 55t24 69l21 105q5 24 1 45.5t-18 38t-38 26.5t-58 10q-63 0 -104 -41t-56 -116l-15 -75q-5 -28 -5 -51q0 -51 23.5 -84t75.5 -33z" />
    <glyph glyph-name="e" unicode="e" horiz-adv-x="511" 
d="M244 -12q-93 0 -144 55t-51 161q0 64 19.5 122.5t55 103.5t85 71.5t110.5 26.5q33 0 63 -8.5t53 -25.5t36.5 -43t13.5 -61q0 -85 -87.5 -126t-268.5 -43q-2 -11 -2.5 -22.5t-0.5 -19.5q0 -55 31.5 -88.5t91.5 -33.5q49 0 88.5 22.5t69.5 59.5l50 -45
q-48 -59 -102.5 -82.5t-110.5 -23.5zM311 462q-30 0 -57.5 -11t-49 -30.5t-37 -48t-22.5 -62.5l-6 -29q83 3 135 10.5t81.5 21t40 32.5t10.5 46q0 21 -8 34.5t-21 21.5t-30.5 11.5t-35.5 3.5z" />
    <glyph glyph-name="f" unicode="f" horiz-adv-x="307" 
d="M118 -86q-11 -53 -38.5 -83.5t-87.5 -30.5h-67l13 68h93l118 580h-85l13 68h85l22 110q11 53 38.5 83.5t87.5 30.5h79l-13 -68h-105l-32 -156h101l-13 -68h-101z" />
    <glyph glyph-name="g" unicode="g" horiz-adv-x="508" 
d="M462 -37q0 -34 -13 -65.5t-44 -56t-82.5 -39t-129.5 -14.5q-208 0 -208 114q0 40 25.5 69.5t76.5 44.5l2 8q-42 19 -42 63q0 37 25.5 62t78.5 36l1 7q-70 37 -70 130q0 44 16 82t45 65.5t69 43t88 15.5q57 0 96 -22l2 12q5 31 22 49.5t49 18.5h73l-13 -69h-89l-8 -41
q32 -40 32 -99q0 -44 -16.5 -81t-46 -64.5t-70.5 -43t-90 -15.5q-11 0 -19.5 0.5t-19.5 2.5q-36 -7 -59 -20.5t-23 -39.5q0 -37 68 -37h115q86 0 122.5 -30t36.5 -86zM382 -53q0 27 -17.5 43t-65.5 16h-177q-60 -26 -60 -81q0 -16 5.5 -29.5t18 -23.5t33 -15.5t51.5 -5.5h47
q87 0 126 26.5t39 69.5zM253 234q55 0 84.5 26t38.5 71q5 27 7 37t2 19q0 36 -23 57.5t-71 21.5q-55 0 -84.5 -26.5t-38.5 -71.5q-5 -27 -7 -37t-2 -19q0 -36 23 -57t71 -21z" />
    <glyph glyph-name="g.alt01" horiz-adv-x="572" 
d="M208 -12q-71 0 -114 52.5t-43 144.5q0 57 15.5 117.5t46.5 111t78.5 82.5t111.5 32q23 0 45 -6t40 -18t31 -30t19 -42h4l17 84h77l-105 -524q-20 -98 -77.5 -151t-155.5 -53q-70 0 -116.5 25t-73.5 64l55 48q21 -33 54.5 -51t80.5 -18q63 0 103 35.5t55 110.5l22 110h-3
q-32 -65 -71 -94.5t-96 -29.5zM227 58q36 0 61.5 14t48.5 37q26 26 41.5 56t23.5 68l25 124q3 17 -3.5 35t-21.5 32.5t-37.5 24t-52.5 9.5q-66 0 -106.5 -41t-55.5 -116l-15 -75q-5 -28 -5 -51q0 -50 23.5 -83.5t73.5 -33.5z" />
    <glyph glyph-name="g.alt02" horiz-adv-x="510" 
d="M462 -36q0 -35 -13 -66.5t-44.5 -56t-84.5 -39t-134 -14.5q-95 0 -148 28.5t-53 85.5q0 40 25.5 69.5t76.5 44.5l2 8q-42 19 -42 63q0 37 25.5 62t78.5 36l1 7q-37 18 -53.5 51t-16.5 79q0 44 16 82t45 65.5t69 43t88 15.5q21 0 39.5 -3.5t34.5 -8.5h154l-11 -63h-72
q19 -35 19 -75q0 -44 -16.5 -81.5t-46 -65t-70.5 -43t-89 -15.5q-12 0 -20.5 0.5t-19.5 2.5q-33 -6 -57.5 -19.5t-24.5 -39.5q0 -21 16 -29.5t52 -8.5h115q86 0 122.5 -30t36.5 -85zM253 234q54 0 84 26t39 71q5 27 7 37t2 20q0 35 -23 56.5t-71 21.5q-54 0 -84 -26.5
t-39 -71.5q-5 -27 -7 -37t-2 -20q0 -35 23 -56t71 -21zM382 -54q0 29 -18 44.5t-66 15.5h-177q-59 -26 -59 -82q0 -15 5.5 -28.5t18 -23.5t33 -15.5t51.5 -5.5h48q85 0 124.5 26.5t39.5 68.5z" />
    <glyph glyph-name="h" unicode="h" horiz-adv-x="565" 
d="M185 740h77l-66 -326h5q27 58 64.5 86t93.5 28q67 0 100 -38t33 -105q0 -14 -1.5 -31t-5.5 -36l-50 -250h73l-13 -68h-73q-29 0 -46.5 14t-17.5 44v9t2 12l48 239q3 15 4 29.5t1 23.5q0 44 -18.5 65.5t-60.5 21.5q-54 0 -95 -41q-26 -26 -44 -62t-24 -67l-58 -288h-77z
" />
    <glyph glyph-name="i" unicode="i" horiz-adv-x="264" 
d="M206 637q-23 0 -32.5 10.5t-9.5 24.5q0 3 0.5 8.5t3.5 19.5q4 19 16.5 29.5t37.5 10.5q23 0 32.5 -10.5t9.5 -24.5q0 -3 -0.5 -8.5t-3.5 -19.5q-4 -19 -16.5 -29.5t-37.5 -10.5zM121 0q-35 0 -52.5 17.5t-17.5 45.5q0 9 3 24l86 429h77l-90 -448h73l-13 -68h-66z" />
    <glyph glyph-name="j" unicode="j" horiz-adv-x="253" 
d="M140 516h77l-123 -614q-11 -53 -36 -77.5t-78 -24.5h-67l14 68h83zM206 637q-23 0 -32.5 10.5t-9.5 24.5q0 3 0.5 8.5t3.5 19.5q4 19 16.5 29.5t37.5 10.5q23 0 32.5 -10.5t9.5 -24.5q0 -3 -0.5 -8.5t-3.5 -19.5q-4 -19 -16.5 -29.5t-37.5 -10.5z" />
    <glyph glyph-name="k" unicode="k" horiz-adv-x="519" 
d="M185 740h77l-94 -465h5l92 88l174 153h93l-230 -208l105 -240h66l-13 -68h-44q-35 0 -53.5 12.5t-31.5 41.5l-91 209l-91 -82l-36 -181h-77z" />
    <glyph glyph-name="l" unicode="l" horiz-adv-x="264" 
d="M121 0q-35 0 -52.5 17.5t-17.5 45.5q0 9 3 24l131 653h77l-135 -672h78l-13 -68h-71z" />
    <glyph glyph-name="m" unicode="m" horiz-adv-x="848" 
d="M36 0l104 516h77l-21 -102h5q27 58 63.5 86t93.5 28q54 0 84 -30t36 -84h6q26 58 65 86t96 28q65 0 97.5 -37t32.5 -105q0 -32 -7 -67l-50 -251h73l-13 -68h-72q-30 0 -48 14t-18 43q0 8 3 23l48 239q6 30 6 55q0 42 -18.5 63t-60.5 21q-47 0 -87 -41q-25 -25 -41.5 -61
t-22.5 -68l-58 -288h-77l64 318q6 30 6 58q0 82 -72 82q-26 0 -49 -11t-40 -29q-28 -28 -46 -64t-24 -66l-58 -288h-77z" />
    <glyph glyph-name="n" unicode="n" horiz-adv-x="565" 
d="M36 0l104 516h77l-21 -102h5q27 58 64.5 86t93.5 28q67 0 100 -38t33 -105q0 -14 -1.5 -31t-5.5 -36l-50 -250h73l-13 -68h-73q-29 0 -46.5 14t-17.5 44v9t2 12l48 239q3 15 4 29.5t1 23.5q0 44 -18.5 65.5t-60.5 21.5q-54 0 -95 -41q-26 -26 -44 -62t-24 -67l-58 -288
h-77z" />
    <glyph glyph-name="o" unicode="o" horiz-adv-x="550" 
d="M235 -12q-41 0 -75 13.5t-58.5 40t-38.5 66t-14 92.5q0 65 19.5 124.5t54.5 104.5t84 72t108 27q40 0 74.5 -13.5t59 -40t38.5 -66.5t14 -92q0 -65 -19.5 -124.5t-54.5 -104.5t-84 -72t-108 -27zM245 57q56 0 100 41t60 120l15 75q5 25 5 45q0 54 -30.5 87.5t-89.5 33.5
q-56 0 -100 -41t-60 -120l-15 -75q-5 -25 -5 -45q0 -54 30.5 -87.5t89.5 -33.5z" />
    <glyph glyph-name="p" unicode="p" horiz-adv-x="572" 
d="M140 516h77l-23 -112h3q32 65 71 94.5t96 29.5q71 0 114 -52.5t43 -144.5q0 -57 -15.5 -117.5t-46.5 -111t-78.5 -82.5t-111.5 -32q-23 0 -45 6t-40 18t-31 30t-19 42h-4l-57 -284h-77zM262 58q63 0 104 41t56 116l15 75q5 28 5 51q0 51 -23.5 84t-75.5 33
q-34 0 -59.5 -14t-48.5 -37q-25 -25 -41 -55t-24 -69l-21 -105q-5 -24 -1 -46t18 -38.5t37.5 -26t58.5 -9.5z" />
    <glyph glyph-name="q" unicode="q" horiz-adv-x="572" 
d="M378 112h-3q-32 -65 -71 -94.5t-96 -29.5q-71 0 -114 52.5t-43 144.5q0 57 15.5 117.5t46.5 111t78.5 82.5t111.5 32q23 0 45 -6t40 -18t31 -30t19 -42h4l17 84h77l-144 -716h-77zM229 58q34 0 59.5 14t48.5 37q25 25 41 55t24 69l21 105q5 24 1 45.5t-18 38t-38 26.5
t-58 10q-63 0 -104 -41t-56 -116l-15 -75q-5 -28 -5 -51q0 -51 23.5 -84t75.5 -33z" />
    <glyph glyph-name="r" unicode="r" horiz-adv-x="364" 
d="M36 0l104 516h77l-22 -103h5q10 19 24 37.5t32.5 33t42.5 23.5t56 9h32l-15 -79h-36q-36 0 -63.5 -10.5t-47.5 -28.5t-32.5 -41.5t-17.5 -49.5l-62 -307h-77z" />
    <glyph glyph-name="s" unicode="s" horiz-adv-x="471" 
d="M209 -12q-60 0 -112 24.5t-83 69.5l53 47q27 -36 62 -55t80 -19q51 0 84 24.5t33 72.5q0 26 -15.5 44.5t-60.5 27.5l-39 8q-29 6 -54.5 15.5t-44 25t-29 38t-10.5 54.5t11.5 61.5t35.5 52t60 36t84 13.5q57 0 98 -19.5t70 -56.5l-53 -47q-17 24 -46 40t-75 16
q-57 0 -83.5 -25t-26.5 -64q0 -27 15.5 -44.5t59.5 -26.5l39 -8q31 -6 56.5 -16t43.5 -26t28 -39t10 -55q0 -39 -14.5 -70.5t-40 -53t-60.5 -33.5t-76 -12z" />
    <glyph glyph-name="t" unicode="t" horiz-adv-x="320" 
d="M136 0q-35 0 -52.5 17.5t-17.5 45.5q0 9 3 24l73 361h-76l13 68h39q28 0 37.5 11t14.5 38l19 94h71l-28 -143h109l-13 -68h-109l-77 -380h101l-13 -68h-94z" />
    <glyph glyph-name="u" unicode="u" horiz-adv-x="562" 
d="M211 516l-64 -318q-3 -15 -4 -29.5t-1 -23.5q0 -43 17.5 -65t59.5 -22q53 0 93 41q28 29 45 64.5t23 64.5l58 288h77l-90 -448h73l-13 -68h-70q-33 0 -49.5 17.5t-16.5 45.5q0 10 4 29l2 10h-5q-27 -59 -64 -86.5t-91 -27.5q-66 0 -99 38t-33 105q0 14 1.5 31t5.5 36
l64 318h77z" />
    <glyph glyph-name="v" unicode="v" horiz-adv-x="484" 
d="M146 0l-79 516h75l38 -255l21 -188h5l93 188l138 255h82l-282 -516h-91z" />
    <glyph glyph-name="w" unicode="w" horiz-adv-x="740" 
d="M77 516h74l9 -251l6 -191h5l79 169l128 273h75l22 -260l12 -178h5l76 174l117 264h75l-235 -516h-93l-25 279l-7 132h-5l-59 -132l-133 -279h-98z" />
    <glyph glyph-name="x" unicode="x" horiz-adv-x="494" 
d="M-28 0l234 267l-126 249h84l93 -198h5l168 198h88l-224 -256l136 -260h-84l-103 210h-5l-178 -210h-88z" />
    <glyph glyph-name="y" unicode="y" horiz-adv-x="484" 
d="M438 516h82l-349 -633q-25 -45 -48.5 -64t-62.5 -19h-80l13 66h93l64 118l-82 532h75l38 -255l21 -188h5l93 188z" />
    <glyph glyph-name="z" unicode="z" horiz-adv-x="448" 
d="M-5 0l13 66l343 382h-266l13 68h359l-13 -66l-343 -382h280l-13 -68h-373z" />
    <glyph glyph-name="A" unicode="A" horiz-adv-x="623" 
d="M464 0l-26 206h-271l-108 -206h-86l373 698h107l94 -698h-83zM387 621h-5l-178 -343h226z" />
    <glyph glyph-name="B" unicode="B" horiz-adv-x="627" 
d="M179 698h257q81 0 124 -40t43 -109q0 -32 -9.5 -61.5t-27.5 -53.5t-44.5 -41.5t-60.5 -25.5l-1 -5q48 -11 74.5 -40.5t26.5 -83.5q0 -49 -17.5 -92t-48 -75.5t-72 -51.5t-90.5 -19h-294zM332 72q52 0 88 27.5t47 84.5q5 26 7 38.5t2 19.5q0 39 -26 60.5t-76 21.5h-190
l-50 -252h198zM367 394q56 0 92.5 23.5t47.5 76.5q5 23 6 35.5t1 19.5q0 36 -22 56.5t-67 20.5h-181l-46 -232h169z" />
    <glyph glyph-name="C" unicode="C" horiz-adv-x="602" 
d="M290 -12q-51 0 -94 18t-74.5 53.5t-49 87t-17.5 119.5q0 91 24 171.5t68 141t106 96t138 35.5q85 0 141.5 -39t82.5 -120l-73 -33q-19 59 -56 89t-103 30q-40 0 -75.5 -15t-64 -42.5t-49 -66t-29.5 -86.5l-23 -115q-4 -19 -5 -35t-1 -31q0 -41 11 -75t31 -58.5t49.5 -38
t67.5 -13.5q36 0 64.5 9t51 25.5t41 41t35.5 54.5l68 -34q-46 -87 -109 -128t-156 -41z" />
    <glyph glyph-name="D" unicode="D" horiz-adv-x="652" 
d="M179 698h205q112 0 175.5 -68t63.5 -203q0 -81 -23 -158t-67.5 -136.5t-109.5 -96t-148 -36.5h-236zM277 72q90 0 152 55.5t83 161.5l21 105q6 30 6 61q0 84 -43 127.5t-116 43.5h-135l-110 -554h142z" />
    <glyph glyph-name="E" unicode="E" horiz-adv-x="565" 
d="M39 0l140 698h411l-15 -72h-329l-47 -236h296l-14 -72h-297l-49 -246h346l-14 -72h-428z" />
    <glyph glyph-name="F" unicode="F" horiz-adv-x="542" 
d="M39 0l140 698h400l-15 -72h-318l-47 -236h292l-14 -72h-293l-64 -318h-81z" />
    <glyph glyph-name="G" unicode="G" horiz-adv-x="661" 
d="M483 102h-4q-11 -23 -29 -44t-43 -36.5t-57 -24.5t-70 -9q-50 0 -91 18t-71 53t-46.5 87t-16.5 120q0 88 23 168t67.5 141.5t109.5 98t149 36.5q91 0 152.5 -42.5t83.5 -116.5l-73 -33q-20 57 -61.5 88t-111.5 31q-89 0 -149.5 -58.5t-81.5 -161.5l-21 -104
q-6 -30 -6 -60q0 -91 43.5 -141.5t124.5 -50.5q36 0 68.5 11t59.5 32t46.5 53t27.5 74l11 55h-149l16 74h227l-72 -360h-77z" />
    <glyph glyph-name="H" unicode="H" horiz-adv-x="684" 
d="M523 318h-339l-64 -318h-81l140 698h81l-61 -308h339l62 308h81l-140 -698h-81z" />
    <glyph glyph-name="I" unicode="I" horiz-adv-x="387" 
d="M9 0l14 69h93l111 560h-93l14 69h267l-14 -69h-93l-111 -560h93l-14 -69h-267z" />
    <glyph glyph-name="J" unicode="J" horiz-adv-x="498" 
d="M495 698l-103 -512q-19 -94 -75.5 -146t-145.5 -52q-72 0 -119 42.5t-49 122.5l74 15q2 -46 26 -76.5t72 -30.5q58 0 91 34.5t47 102.5l86 428h-234l14 72h316z" />
    <glyph glyph-name="K" unicode="K" horiz-adv-x="615" 
d="M290 343l-125 -117l-45 -226h-81l140 698h81l-71 -356h5l119 115l249 241h103l-313 -303l197 -395h-88z" />
    <glyph glyph-name="L" unicode="L" horiz-adv-x="489" 
d="M39 0l140 698h81l-125 -626h287l-14 -72h-369z" />
    <glyph glyph-name="M" unicode="M" horiz-adv-x="784" 
d="M680 586h-5l-81 -117l-217 -303l-99 303l-37 116h-5l-117 -585h-80l140 698h105l118 -379h3l263 379h113l-140 -698h-80z" />
    <glyph glyph-name="N" unicode="N" horiz-adv-x="684" 
d="M295 420l-55 167h-5l-117 -587h-79l140 698h94l152 -420l55 -167h5l117 587h79l-140 -698h-94z" />
    <glyph glyph-name="O" unicode="O" horiz-adv-x="679" 
d="M298 -12q-52 0 -96.5 17.5t-77 52t-51 85.5t-18.5 117q0 87 24 168t70 143.5t111.5 100.5t148.5 38q52 0 96.5 -18t77 -52.5t51 -85t18.5 -116.5q0 -87 -24 -168t-70 -143.5t-111.5 -100.5t-148.5 -38zM306 61q93 0 155 61.5t84 170.5l20 100q4 19 5.5 36.5t1.5 32.5
q0 80 -45 127.5t-126 47.5q-93 0 -155 -61.5t-84 -170.5l-20 -100q-4 -19 -5.5 -36.5t-1.5 -32.5q0 -80 45 -127.5t126 -47.5z" />
    <glyph glyph-name="P" unicode="P" horiz-adv-x="588" 
d="M39 0l140 698h249q46 0 79 -12.5t54 -35t30.5 -53t9.5 -66.5q0 -49 -16.5 -91.5t-46.5 -74t-73.5 -49.5t-97.5 -18h-187l-60 -298h-81zM195 370h184q50 0 83 25.5t43 75.5q7 34 9.5 48t2.5 26q0 37 -21 59t-74 22h-177z" />
    <glyph glyph-name="Q" unicode="Q" horiz-adv-x="679" 
d="M397 -166h-88q-41 0 -58 17.5t-17 44.5q0 12 3 26l15 70q-44 7 -80 28t-62 54.5t-40.5 80t-14.5 105.5q0 87 24 168t70 143.5t111.5 100.5t148.5 38q52 0 96.5 -18t77 -52.5t51 -85t18.5 -116.5q0 -83 -22 -160.5t-63.5 -139t-101.5 -101.5t-136 -47l-18 -82h102zM306 61
q93 0 155 61.5t84 170.5l20 100q4 19 5.5 36.5t1.5 32.5q0 79 -45 127t-126 48q-93 0 -155 -61.5t-84 -170.5l-20 -100q-4 -19 -5.5 -36.5t-1.5 -32.5q0 -79 45 -127t126 -48z" />
    <glyph glyph-name="R" unicode="R" horiz-adv-x="625" 
d="M120 0h-81l140 698h249q46 0 79 -12.5t54 -35t30.5 -53t9.5 -66.5q0 -40 -13 -77t-36.5 -66.5t-57.5 -50.5t-76 -29l102 -308h-87l-95 300h-158zM379 371q50 0 83 25.5t43 74.5q7 34 9.5 48t2.5 26q0 36 -21 58.5t-74 22.5h-177l-50 -255h184z" />
    <glyph glyph-name="S" unicode="S" horiz-adv-x="577" 
d="M249 -12q-77 0 -141 30t-97 95l62 45q31 -53 76 -75t102 -22q44 0 78 11.5t56.5 32t34 47.5t11.5 58q0 45 -25 72t-81 38l-67 13q-74 14 -113.5 58.5t-39.5 112.5q0 42 16 79.5t46.5 65.5t75.5 44.5t103 16.5q81 0 135.5 -30t89.5 -78l-59 -49q-29 39 -70 61.5t-101 22.5
q-71 0 -113 -33t-42 -94q0 -88 106 -109l67 -13q74 -14 113.5 -58t39.5 -116q0 -47 -17.5 -88t-51 -72t-82.5 -48.5t-112 -17.5z" />
    <glyph glyph-name="T" unicode="T" horiz-adv-x="557" 
d="M392 626l-125 -626h-81l125 626h-213l14 72h507l-14 -72h-213z" />
    <glyph glyph-name="U" unicode="U" horiz-adv-x="656" 
d="M255 698l-86 -429q-5 -23 -6.5 -39t-1.5 -33q0 -64 34 -100t94 -36q42 0 74.5 12t57.5 38.5t42.5 69t29.5 103.5l83 414h81l-84 -420q-16 -80 -40.5 -135.5t-60 -90t-83 -49.5t-109.5 -15q-94 0 -146 52.5t-52 148.5q0 23 2.5 49t8.5 56l81 404h81z" />
    <glyph glyph-name="V" unicode="V" horiz-adv-x="593" 
d="M194 0l-83 698h81l38 -350l27 -264h3l133 264l182 350h86l-366 -698h-101z" />
    <glyph glyph-name="W" unicode="W" horiz-adv-x="862" 
d="M132 0l-29 698h81l9 -354l6 -243h4l137 315l126 282h96l15 -295l14 -301h4l106 247l150 349h84l-313 -698h-93l-18 367l-10 239h-5l-109 -244l-161 -362h-94z" />
    <glyph glyph-name="X" unicode="X" horiz-adv-x="596" 
d="M508 0h-85l-120 286h-4l-230 -286h-94l288 358l-143 340h85l119 -287h4l231 287h94l-293 -355z" />
    <glyph glyph-name="Y" unicode="Y" horiz-adv-x="577" 
d="M196 0l55 273l-146 425h82l116 -341h5l250 341h93l-319 -425l-55 -273h-81z" />
    <glyph glyph-name="Z" unicode="Z" horiz-adv-x="563" 
d="M472 0h-487l16 78l492 548h-374l15 72h469l-16 -78l-492 -548h392z" />
    <glyph glyph-name="zero" unicode="0" horiz-adv-x="600" 
d="M255 -12q-47 0 -82.5 17.5t-58.5 49t-34.5 75.5t-11.5 98q0 53 8 110t24.5 110.5t41.5 101t59 83t77 56.5t96 21q47 0 82 -17.5t58.5 -49t35 -75.5t11.5 -98q0 -53 -8 -110t-24.5 -110.5t-41.5 -101t-59 -83t-77.5 -56.5t-95.5 -21zM265 59q36 0 66 17t53 47t39.5 72.5
t26.5 93.5l21 105q5 23 7 46t2 44q0 72 -29 113.5t-87 41.5q-36 0 -66 -17t-53 -47t-39.5 -72.5t-26.5 -93.5l-21 -105q-5 -23 -7 -46t-2 -44q0 -72 29 -113.5t87 -41.5z" />
    <glyph glyph-name="zero.alt01" horiz-adv-x="600" 
d="M255 -12q-47 0 -82.5 17.5t-58.5 49t-34.5 75.5t-11.5 98q0 53 8 110t24.5 110.5t41.5 101t59 83t77 56.5t96 21q47 0 82 -17.5t58.5 -49t35 -75.5t11.5 -98q0 -53 -8 -110t-24.5 -110.5t-41.5 -101t-59 -83t-77.5 -56.5t-95.5 -21zM265 59q36 0 66 17t53 47t39.5 72.5
t26.5 93.5l21 105q5 23 7 46t2 44q0 72 -29 113.5t-87 41.5q-36 0 -66 -17t-53 -47t-39.5 -72.5t-26.5 -93.5l-21 -105q-5 -23 -7 -46t-2 -44q0 -72 29 -113.5t87 -41.5zM306 293q-46 0 -46 36q0 5 1 12.5t3 13.5q4 19 16 34.5t42 15.5q46 0 46 -36q0 -5 -1 -12.5t-3 -13.5
q-4 -19 -16 -34.5t-42 -15.5z" />
    <glyph glyph-name="zero.alt02" horiz-adv-x="600" 
d="M255 -12q-47 0 -82.5 17.5t-58.5 49t-34.5 75.5t-11.5 98q0 53 8 110t24.5 110.5t41.5 101t59 83t77 56.5t96 21q47 0 82 -17.5t58.5 -49t35 -75.5t11.5 -98q0 -53 -8 -110t-24.5 -110.5t-41.5 -101t-59 -83t-77.5 -56.5t-95.5 -21zM364 639q-37 0 -67 -17t-53 -47
t-40 -72.5t-27 -93.5l-20 -99q-4 -18 -6 -37t-3 -36l329 299q-9 48 -37.5 75.5t-75.5 27.5zM265 59q37 0 67 17t53 47t40 72.5t27 93.5l20 99q4 18 6 37t3 36l-329 -299q9 -48 37.5 -75.5t75.5 -27.5z" />
    <glyph glyph-name="one" unicode="1" horiz-adv-x="600" 
d="M42 0l14 72h200l113 564h-8l-207 -164l-41 53l217 173h132l-125 -626h186l-14 -72h-467z" />
    <glyph glyph-name="two" unicode="2" horiz-adv-x="600" 
d="M470 0h-436l18 90l258 208q65 52 99.5 101.5t42.5 87.5q2 8 4 22.5t2 25.5q0 15 -4.5 33t-16.5 33.5t-32 25.5t-50 10q-58 0 -94 -31.5t-61 -90.5l-72 31q35 75 90.5 119.5t144.5 44.5q43 0 77 -13.5t58 -37t37 -55.5t13 -68q0 -44 -14 -82.5t-39.5 -74t-62 -69.5
t-80.5 -69l-216 -169h349z" />
    <glyph glyph-name="three" unicode="3" horiz-adv-x="600" 
d="M302 401q58 0 94.5 27t49.5 93q3 15 3 26q0 45 -26.5 67.5t-75.5 22.5q-50 0 -86.5 -20t-65.5 -67l-56 49q34 48 86.5 79.5t131.5 31.5q40 0 73 -11.5t57 -32t37.5 -49.5t13.5 -63q0 -38 -12.5 -69t-34 -55t-50.5 -39.5t-61 -22.5l-1 -5q50 -8 83 -45.5t33 -98.5
q0 -50 -17 -92.5t-49.5 -73.5t-78.5 -48t-103 -17q-43 0 -77 10t-60.5 27.5t-44.5 39.5t-28 46l66 45q9 -21 21 -38.5t29.5 -30t42 -19.5t58.5 -7q71 0 105.5 33t47.5 97q2 8 3.5 18t1.5 19q0 45 -30.5 73.5t-91.5 28.5h-74l15 71h71z" />
    <glyph glyph-name="four" unicode="4" horiz-adv-x="600" 
d="M320 0l28 137h-316l15 79l375 482h117l-98 -493h95l-13 -68h-96l-28 -137h-79zM120 205h242l81 407h-4z" />
    <glyph glyph-name="five" unicode="5" horiz-adv-x="600" 
d="M557 626h-292l-68 -275h7q26 44 58 64.5t87 20.5q37 0 68.5 -12.5t55 -35.5t36.5 -56t13 -75q0 -57 -18 -106t-51.5 -85t-81.5 -57t-108 -21q-43 0 -77 10t-59.5 27.5t-43 39.5t-27.5 46l66 45q9 -21 21 -38.5t29.5 -30t42 -19.5t58.5 -7q129 0 159 147q2 11 4 22.5
t2 25.5q0 50 -27.5 79.5t-88.5 29.5q-43 0 -76 -19.5t-61 -49.5l-68 11l96 391h359z" />
    <glyph glyph-name="six" unicode="6" horiz-adv-x="600" 
d="M268 -12q-96 0 -147 55.5t-51 158.5q0 74 27.5 147.5t73 139.5t104.5 120t123 89h114q-63 -39 -118 -81.5t-99 -88t-75 -93.5t-46 -98l4 -2q32 54 70.5 76.5t86.5 22.5q41 0 74.5 -13t57.5 -37.5t37.5 -59.5t13.5 -79q0 -56 -18.5 -103t-52 -81t-79.5 -53.5t-100 -19.5z
M271 60q66 0 106.5 39t53.5 103q2 8 3 17.5t1 18.5q0 60 -32 92.5t-91 32.5q-66 0 -106.5 -39t-53.5 -103q-2 -8 -3 -17.5t-1 -18.5q0 -60 32 -92.5t91 -32.5z" />
    <glyph glyph-name="seven" unicode="7" horiz-adv-x="600" 
d="M128 0l379 627h-281l-27 -134h-74l41 205h437l-16 -79l-373 -619h-86z" />
    <glyph glyph-name="eight" unicode="8" horiz-adv-x="600" 
d="M264 -12q-50 0 -89 13.5t-66 37.5t-41 57.5t-14 73.5q0 34 11.5 67t33.5 60t54.5 45.5t75.5 23.5l2 8q-47 17 -69 50.5t-22 80.5q0 44 17 81.5t47.5 65t73.5 43t94 15.5q88 0 137.5 -43.5t49.5 -115.5q0 -29 -9.5 -58t-28.5 -54t-46.5 -43.5t-63.5 -27.5l-2 -8
q51 -11 79.5 -49.5t28.5 -88.5q0 -53 -17 -96t-49.5 -73.5t-79.5 -47.5t-107 -17zM269 59q65 0 107 32.5t54 92.5q2 11 3.5 20.5t1.5 21.5q0 48 -34 77t-98 29q-65 0 -107 -33t-54 -93q-2 -11 -3.5 -20.5t-1.5 -21.5q0 -48 34 -76.5t98 -28.5zM332 400q57 0 93.5 29.5
t47.5 82.5q3 15 3 30q0 45 -30 71t-84 26q-57 0 -93.5 -29.5t-47.5 -82.5q-3 -15 -3 -30q0 -45 30 -71t84 -26z" />
    <glyph glyph-name="nine" unicode="9" horiz-adv-x="600" 
d="M565 496q0 -74 -27.5 -147.5t-73 -139.5t-104.5 -120t-123 -89h-114q63 39 118 81.5t99 88t75 93.5t46 98l-4 2q-32 -54 -70.5 -76.5t-86.5 -22.5q-41 0 -74.5 13t-57.5 37.5t-37.5 59.5t-13.5 79q0 55 18.5 102.5t52 81.5t79.5 53.5t100 19.5q96 0 147 -55.5t51 -158.5z
M323 335q66 0 106.5 39.5t53.5 102.5q2 8 3 17.5t1 18.5q0 59 -32 92t-91 33q-66 0 -106.5 -39.5t-53.5 -102.5q-2 -8 -3 -17.5t-1 -18.5q0 -59 32 -92t91 -33z" />
    <glyph glyph-name="ampersand" unicode="&#x26;" horiz-adv-x="670" 
d="M433 85q-45 -47 -100.5 -72t-118.5 -25q-88 0 -132.5 45.5t-44.5 117.5q0 45 16 80t42 62t59 48t67 38q-19 26 -33.5 59t-14.5 74q0 37 13.5 73t38.5 63.5t61 44.5t81 17q28 0 54.5 -8t47 -24t33 -41t12.5 -58q0 -41 -17 -74t-44.5 -59t-62 -47t-68.5 -38l114 -160
q22 38 37 80.5t26 86.5h133l-14 -68h-69q-14 -43 -32 -82.5t-40 -73.5l103 -144h-86zM360 645q-43 0 -72.5 -28.5t-37.5 -70.5q-3 -15 -3 -29q0 -25 8.5 -50t31.5 -57q29 14 56.5 29.5t48.5 34t33.5 41.5t12.5 51q0 38 -22 58.5t-56 20.5zM229 56q51 0 92 22.5t73 60.5
l-138 191q-26 -13 -49.5 -26.5t-41.5 -29.5t-30.5 -35.5t-17.5 -44.5q-3 -15 -3 -31q0 -51 29.5 -79t85.5 -28z" />
    <glyph glyph-name="at" unicode="@" horiz-adv-x="863" 
d="M360 -121q-143 0 -219 83t-76 232q0 20 2 48.5t9 62.5q17 87 56 161t96 127.5t129.5 84t157.5 30.5q70 0 126 -21t95.5 -60t60.5 -94.5t21 -124.5q0 -13 -1.5 -35.5t-7.5 -52.5q-10 -51 -26.5 -96.5t-41.5 -80t-59 -54.5t-79 -20q-89 0 -89 90v12h-4q-17 -43 -53 -72.5
t-84 -29.5q-26 0 -49.5 10t-41.5 29.5t-28.5 49.5t-10.5 69q0 14 2 32.5t7 43.5q20 97 69 151.5t123 54.5q89 0 110 -89h4l16 79h69l-60 -300q-2 -8 -4 -18t-2 -20q0 -15 8 -24t28 -9q47 0 79.5 49.5t48.5 127.5l10 50q3 15 3.5 30t0.5 29q0 52 -16 95.5t-47.5 74.5t-77 48
t-103.5 17q-68 0 -128 -23.5t-107.5 -66t-80.5 -103t-48 -134.5l-12 -59q-4 -19 -5 -37t-1 -31q0 -120 58.5 -188t175.5 -68h230l-12 -60h-221zM398 133q24 0 45 9t37.5 25t27 36t15.5 43l23 114q3 15 -2 30t-17 27.5t-30 20t-41 7.5q-48 0 -79.5 -29.5t-40.5 -75.5l-19 -95
q-3 -15 -3 -28q0 -39 22.5 -61.5t61.5 -22.5z" />
    <glyph glyph-name="hyphen" unicode="-" horiz-adv-x="387" 
d="M69 263l16 82h251l-16 -82h-251z" />
    <glyph glyph-name="uni00AD" unicode="&#xad;" horiz-adv-x="387" 
d="M69 263l16 82h251l-16 -82h-251z" />
    <glyph glyph-name="endash" unicode="&#x2013;" horiz-adv-x="565" 
d="M37 268l14 72h495l-14 -72h-495z" />
    <glyph glyph-name="emdash" unicode="&#x2014;" horiz-adv-x="749" 
d="M37 268l14 72h679l-14 -72h-679z" />
    <glyph glyph-name="underscore" unicode="_" horiz-adv-x="548" 
d="M-53 -163l14 66h486l-14 -66h-486z" />
    <glyph glyph-name="period" unicode="." horiz-adv-x="273" 
d="M86 -12q-24 0 -37.5 10t-13.5 30q0 7 1 16.5t3 17.5q4 20 17.5 37.5t47.5 17.5q24 0 37.5 -10t13.5 -30q0 -7 -1 -16.5t-3 -17.5q-2 -10 -6 -20t-11.5 -17.5t-19 -12.5t-28.5 -5z" />
    <glyph glyph-name="ellipsis" unicode="&#x2026;" horiz-adv-x="795" 
d="M86 -12q-24 0 -37.5 10t-13.5 30q0 7 1 16.5t3 17.5q4 20 17.5 37.5t47.5 17.5q24 0 37.5 -10t13.5 -30q0 -7 -1 -16.5t-3 -17.5q-2 -10 -6 -20t-11.5 -17.5t-19 -12.5t-28.5 -5zM347 -12q-24 0 -37.5 10t-13.5 30q0 7 1 16.5t3 17.5q4 20 17.5 37.5t47.5 17.5
q24 0 37.5 -10t13.5 -30q0 -7 -1 -16.5t-3 -17.5q-2 -10 -6 -20t-11.5 -17.5t-19 -12.5t-28.5 -5zM608 -12q-24 0 -37.5 10t-13.5 30q0 7 1 16.5t3 17.5q4 20 17.5 37.5t47.5 17.5q24 0 37.5 -10t13.5 -30q0 -7 -1 -16.5t-3 -17.5q-2 -10 -6 -20t-11.5 -17.5t-19 -12.5
t-28.5 -5z" />
    <glyph glyph-name="colon" unicode=":" horiz-adv-x="293" 
d="M96 -12q-24 0 -37.5 10t-13.5 30q0 7 1 16.5t3 17.5q4 20 17.5 37.5t47.5 17.5q24 0 37.5 -10t13.5 -30q0 -7 -1 -16.5t-3 -17.5q-2 -10 -6 -20t-11.5 -17.5t-19 -12.5t-28.5 -5zM179 399q-24 0 -37.5 10t-13.5 30q0 7 1 16.5t3 17.5q4 20 17.5 37.5t47.5 17.5
q24 0 37.5 -10t13.5 -30q0 -7 -1 -16.5t-3 -17.5q-2 -10 -6 -20t-11.5 -17.5t-19 -12.5t-28.5 -5z" />
    <glyph glyph-name="comma" unicode="," horiz-adv-x="273" 
d="M102 117q24 0 37.5 -10t13.5 -30q0 -7 -1 -15t-3 -16q-4 -19 -13 -42.5t-23.5 -47.5t-34.5 -47.5t-45 -41.5h-65q37 32 59.5 62.5t38.5 64.5q-33 8 -33 37q0 7 1 15t3 16q4 20 17.5 37.5t47.5 17.5z" />
    <glyph glyph-name="semicolon" unicode=";" horiz-adv-x="293" 
d="M112 117q24 0 37.5 -10t13.5 -30q0 -7 -1 -15t-3 -16q-4 -19 -13 -42.5t-23.5 -47.5t-34.5 -47.5t-45 -41.5h-65q37 32 59.5 62.5t38.5 64.5q-33 8 -33 37q0 7 1 15t3 16q4 20 17.5 37.5t47.5 17.5zM179 399q-24 0 -37.5 10t-13.5 30q0 7 1 16.5t3 17.5q4 20 17.5 37.5
t47.5 17.5q24 0 37.5 -10t13.5 -30q0 -7 -1 -16.5t-3 -17.5q-2 -10 -6 -20t-11.5 -17.5t-19 -12.5t-28.5 -5z" />
    <glyph glyph-name="uni037E" unicode="&#x37e;" horiz-adv-x="292" 
d="M112 117q24 0 37.5 -10t13.5 -30q0 -7 -1 -15t-3 -16q-4 -19 -13 -42.5t-23.5 -47.5t-34.5 -47.5t-45 -41.5h-65q37 32 59.5 62.5t38.5 64.5q-33 8 -33 37q0 7 1 15t3 16q4 20 17.5 37.5t47.5 17.5zM178 394q-24 0 -37.5 10t-13.5 30q0 7 1 16.5t3 17.5q4 20 17.5 37.5
t47.5 17.5q24 0 37.5 -10t13.5 -30q0 -7 -1 -16.5t-3 -17.5q-2 -10 -6 -20t-11.5 -17.5t-19 -12.5t-28.5 -5z" />
    <glyph glyph-name="quotesingle" unicode="'" horiz-adv-x="233" 
d="M121 460l56 280h71l-56 -280h-71z" />
    <glyph glyph-name="quotedbl" unicode="&#x22;" horiz-adv-x="409" 
d="M121 460l56 280h71l-56 -280h-71zM297 460l56 280h71l-56 -280h-71z" />
    <glyph glyph-name="uni2032" unicode="&#x2032;" horiz-adv-x="233" 
d="M75 378l121 320h75l-121 -320h-75z" />
    <glyph glyph-name="uni2033" unicode="&#x2033;" horiz-adv-x="409" 
d="M75 378l121 320h75l-121 -320h-75zM251 378l121 320h75l-121 -320h-75z" />
    <glyph glyph-name="quoteleft" unicode="&#x2018;" horiz-adv-x="273" 
d="M185 490q-24 0 -37.5 10t-13.5 30q0 7 1 15t3 16q4 19 13 42.5t23.5 47.5t34 47.5t45.5 41.5h65q-37 -32 -59.5 -62.5t-38.5 -64.5q33 -8 33 -37q0 -7 -1 -15t-3 -16q-2 -10 -6 -20t-11.5 -17.5t-19 -12.5t-28.5 -5z" />
    <glyph glyph-name="quoteright" unicode="&#x2019;" horiz-adv-x="273" 
d="M234 750q24 0 37.5 -10t13.5 -30q0 -7 -1 -15t-3 -16q-4 -19 -13 -42.5t-23.5 -47.5t-34.5 -47.5t-45 -41.5h-65q37 32 59.5 62.5t38.5 64.5q-33 8 -33 37q0 7 1 15t3 16q4 20 17.5 37.5t47.5 17.5z" />
    <glyph glyph-name="quotedblleft" unicode="&#x201c;" horiz-adv-x="470" 
d="M185 490q-24 0 -37.5 10t-13.5 30q0 7 1 15t3 16q4 19 13 42.5t23.5 47.5t34 47.5t45.5 41.5h65q-37 -32 -59.5 -62.5t-38.5 -64.5q33 -8 33 -37q0 -7 -1 -15t-3 -16q-2 -10 -6 -20t-11.5 -17.5t-19 -12.5t-28.5 -5zM382 490q-24 0 -37.5 10t-13.5 30q0 7 1 15t3 16
q4 19 13 42.5t23.5 47.5t34 47.5t45.5 41.5h65q-37 -32 -59.5 -62.5t-38.5 -64.5q33 -8 33 -37q0 -7 -1 -15t-3 -16q-2 -10 -6 -20t-11.5 -17.5t-19 -12.5t-28.5 -5z" />
    <glyph glyph-name="quotedblright" unicode="&#x201d;" horiz-adv-x="470" 
d="M234 750q24 0 37.5 -10t13.5 -30q0 -7 -1 -15t-3 -16q-4 -19 -13 -42.5t-23.5 -47.5t-34.5 -47.5t-45 -41.5h-65q37 32 59.5 62.5t38.5 64.5q-33 8 -33 37q0 7 1 15t3 16q4 20 17.5 37.5t47.5 17.5zM431 750q24 0 37.5 -10t13.5 -30q0 -7 -1 -15t-3 -16q-4 -19 -13 -42.5
t-23.5 -47.5t-34.5 -47.5t-45 -41.5h-65q37 32 59.5 62.5t38.5 64.5q-33 8 -33 37q0 7 1 15t3 16q4 20 17.5 37.5t47.5 17.5z" />
    <glyph glyph-name="quotesinglbase" unicode="&#x201a;" horiz-adv-x="273" 
d="M102 134q24 0 37.5 -10t13.5 -30q0 -7 -1 -15t-3 -16q-4 -19 -13 -42.5t-23.5 -47.5t-34.5 -47.5t-45 -41.5h-65q37 32 59.5 62.5t38.5 64.5q-33 8 -33 37q0 7 1 15t3 16q4 20 17.5 37.5t47.5 17.5z" />
    <glyph glyph-name="quotedblbase" unicode="&#x201e;" horiz-adv-x="470" 
d="M102 134q24 0 37.5 -10t13.5 -30q0 -7 -1 -15t-3 -16q-4 -19 -13 -42.5t-23.5 -47.5t-34.5 -47.5t-45 -41.5h-65q37 32 59.5 62.5t38.5 64.5q-33 8 -33 37q0 7 1 15t3 16q4 20 17.5 37.5t47.5 17.5zM299 134q24 0 37.5 -10t13.5 -30q0 -7 -1 -15t-3 -16q-4 -19 -13 -42.5
t-23.5 -47.5t-34.5 -47.5t-45 -41.5h-65q37 32 59.5 62.5t38.5 64.5q-33 8 -33 37q0 7 1 15t3 16q4 20 17.5 37.5t47.5 17.5z" />
    <glyph glyph-name="guilsinglleft" unicode="&#x2039;" horiz-adv-x="298" 
d="M186 78l-154 172l15 73l217 165l14 -59l-164 -149l104 -150z" />
    <glyph glyph-name="guilsinglright" unicode="&#x203a;" horiz-adv-x="298" 
d="M25 137l164 149l-104 150l32 52l154 -172l-15 -73l-217 -165z" />
    <glyph glyph-name="guillemotleft" unicode="&#xab;" horiz-adv-x="499" 
d="M186 78l-154 172l15 73l217 165l14 -59l-164 -149l104 -150zM387 78l-154 172l15 73l217 165l14 -59l-164 -149l104 -150z" />
    <glyph glyph-name="guillemotright" unicode="&#xbb;" horiz-adv-x="499" 
d="M226 137l164 149l-104 150l32 52l154 -172l-15 -73l-217 -165zM25 137l164 149l-104 150l32 52l154 -172l-15 -73l-217 -165z" />
    <glyph glyph-name="exclamdown" unicode="&#xa1;" horiz-adv-x="271" 
d="M6 -181l41 203l84 309h38l-39 -309l-41 -203h-83zM165 399q-24 0 -37.5 10t-13.5 30q0 7 1 16.5t3 17.5q4 20 17.5 37.5t47.5 17.5q24 0 37.5 -10t13.5 -30q0 -7 -1 -16.5t-3 -17.5q-2 -10 -6 -20t-11.5 -17.5t-19 -12.5t-28.5 -5z" />
    <glyph glyph-name="exclam" unicode="!" horiz-adv-x="271" 
d="M102 185l39 309l41 204h83l-41 -204l-84 -309h-38zM88 -12q-24 0 -37.5 10t-13.5 30q0 7 1 16.5t3 17.5q4 20 17.5 37.5t47.5 17.5q24 0 37.5 -10t13.5 -30q0 -7 -1 -16.5t-3 -17.5q-2 -10 -6 -20t-11.5 -17.5t-19 -12.5t-28.5 -5z" />
    <glyph glyph-name="questiondown" unicode="&#xbf;" horiz-adv-x="470" 
d="M163 -194q-82 0 -131 42.5t-49 118.5q0 41 15.5 79t44 69.5t69.5 53.5t92 31l22 108h75l-33 -165q-40 -2 -74 -12.5t-60 -28t-42.5 -41.5t-21.5 -51q-2 -7 -2.5 -18.5t-0.5 -19.5q0 -43 26 -68.5t77 -25.5q58 0 92.5 32.5t55.5 86.5l67 -27q-15 -37 -36 -67.5t-48 -52
t-61 -33t-77 -11.5zM282 399q-24 0 -37.5 10t-13.5 30q0 7 1 16.5t3 17.5q4 20 17.5 37.5t47.5 17.5q24 0 37.5 -10t13.5 -30q0 -7 -1 -16.5t-3 -17.5q-2 -10 -6 -20t-11.5 -17.5t-19 -12.5t-28.5 -5z" />
    <glyph glyph-name="question" unicode="?" horiz-adv-x="470" 
d="M169 208l33 165q40 1 74 12t60 28.5t42.5 41.5t21.5 51q2 7 2.5 18.5t0.5 19.5q0 43 -26 68.5t-77 25.5q-58 0 -92.5 -32.5t-55.5 -86.5l-67 27q31 74 83.5 119t138.5 45q82 0 131 -42.5t49 -118.5q0 -41 -15.5 -79t-44 -69.5t-69.5 -53.5t-92 -31l-22 -108h-75zM170 -12
q-24 0 -37.5 10t-13.5 30q0 7 1 16.5t3 17.5q4 20 17.5 37.5t47.5 17.5q24 0 37.5 -10t13.5 -30q0 -7 -1 -16.5t-3 -17.5q-2 -10 -6 -20t-11.5 -17.5t-19 -12.5t-28.5 -5z" />
    <glyph glyph-name="parenleft" unicode="(" horiz-adv-x="328" 
d="M76 198q0 93 23 177t61 155.5t87.5 129.5t102.5 100h76q-48 -39 -90 -86t-75.5 -98t-57 -103.5t-33.5 -103.5l-17 -85q-9 -45 -9 -94q0 -92 26 -177t75 -150h-67q-43 56 -72.5 141t-29.5 194z" />
    <glyph glyph-name="parenright" unicode=")" horiz-adv-x="328" 
d="M274 425q0 -93 -23 -177t-61 -155.5t-87.5 -129.5t-102.5 -100h-76q48 39 90 86t75.5 98t57 103.5t33.5 103.5l17 85q9 45 9 94q0 92 -26 177t-75 150h67q43 -56 72.5 -141t29.5 -194z" />
    <glyph glyph-name="bracketleft" unicode="[" horiz-adv-x="317" 
d="M12 -138l180 898h159l-13 -61h-89l-156 -776h89l-12 -61h-158z" />
    <glyph glyph-name="bracketright" unicode="]" horiz-adv-x="316" 
d="M327 760l-180 -898h-159l13 61h89l156 776h-89l12 61h158z" />
    <glyph glyph-name="braceleft" unicode="{" horiz-adv-x="329" 
d="M115 -138q-33 0 -49.5 17.5t-16.5 44.5q0 5 0.5 11.5t2.5 17.5l46 228q3 15 3 26q0 33 -20 49t-54 16l16 78q50 0 74.5 25t32.5 66l47 235q17 84 86 84h88l-11 -63h-90l-50 -251q-5 -23 -12.5 -45t-21 -40t-34 -30t-50.5 -15l-3 -16q35 -7 53.5 -30t18.5 -59
q0 -8 -1.5 -17t-3.5 -17l-50 -252h91l-14 -63h-78z" />
    <glyph glyph-name="braceright" unicode="}" horiz-adv-x="329" 
d="M-10 -75h90l50 251q4 22 12 44t21.5 39.5t34 29.5t50.5 15l3 16q-35 7 -53.5 31t-18.5 60q0 8 1.5 17t3.5 17l50 252h-91l14 63h78q33 0 49.5 -17.5t16.5 -44.5q0 -5 -0.5 -11.5t-2.5 -17.5l-46 -228q-3 -15 -3 -26q0 -33 20 -49t54 -16l-16 -78q-50 0 -74.5 -25
t-32.5 -66l-47 -235q-17 -84 -86 -84h-88z" />
    <glyph glyph-name="slash" unicode="/" horiz-adv-x="378" 
d="M-68 -151l429 891h71l-429 -891h-71z" />
    <glyph glyph-name="backslash" unicode="\" horiz-adv-x="378" 
d="M213 -151l-71 891h67l71 -891h-67z" />
    <glyph glyph-name="fraction" unicode="&#x2044;" horiz-adv-x="148" 
d="M-245 0l609 698h73l-609 -698h-73z" />
    <glyph glyph-name="percent" unicode="%" horiz-adv-x="900" 
d="M118 0l604 698h80l-604 -698h-80zM227 314q-60 0 -92.5 37.5t-32.5 105.5q0 49 12.5 95t36.5 81t59 56t80 21q59 0 92 -37.5t33 -105.5q0 -50 -12.5 -95.5t-36.5 -80.5t-59 -56t-80 -21zM233 364q38 0 62.5 31t35.5 85l14 68q2 8 3 18.5t1 18.5q0 36 -16.5 55.5
t-48.5 19.5q-38 0 -62.5 -31t-35.5 -85l-14 -68q-2 -8 -3 -18.5t-1 -18.5q0 -36 16.5 -55.5t48.5 -19.5zM630 -12q-60 0 -92.5 37.5t-32.5 105.5q0 49 12.5 95t36.5 81t59 56t80 21q59 0 92 -37.5t33 -105.5q0 -50 -12.5 -95.5t-36.5 -80.5t-59 -56t-80 -21zM636 38
q38 0 62.5 31t35.5 85l14 68q2 8 3 18.5t1 18.5q0 36 -16.5 55.5t-48.5 19.5q-38 0 -62.5 -31t-35.5 -85l-14 -68q-2 -8 -3 -18.5t-1 -18.5q0 -36 16.5 -55.5t48.5 -19.5z" />
    <glyph glyph-name="perthousand" unicode="&#x2030;" horiz-adv-x="1262" 
d="M118 0l604 698h80l-604 -698h-80zM227 314q-60 0 -92.5 37.5t-32.5 105.5q0 49 12.5 95t36.5 81t59 56t80 21q59 0 92 -37.5t33 -105.5q0 -50 -12.5 -95.5t-36.5 -80.5t-59 -56t-80 -21zM233 364q38 0 62.5 31t35.5 85l14 68q2 8 3 18.5t1 18.5q0 36 -16.5 55.5
t-48.5 19.5q-38 0 -62.5 -31t-35.5 -85l-14 -68q-2 -8 -3 -18.5t-1 -18.5q0 -36 16.5 -55.5t48.5 -19.5zM630 -12q-60 0 -92.5 37.5t-32.5 105.5q0 49 12.5 95t36.5 81t59 56t80 21q59 0 92 -37.5t33 -105.5q0 -50 -12.5 -95.5t-36.5 -80.5t-59 -56t-80 -21zM636 38
q38 0 62.5 31t35.5 85l14 68q2 8 3 18.5t1 18.5q0 36 -16.5 55.5t-48.5 19.5q-38 0 -62.5 -31t-35.5 -85l-14 -68q-2 -8 -3 -18.5t-1 -18.5q0 -36 16.5 -55.5t48.5 -19.5zM992 -12q-60 0 -92.5 37.5t-32.5 105.5q0 49 12.5 95t36.5 81t59 56t80 21q59 0 92 -37.5t33 -105.5
q0 -50 -12.5 -95.5t-36.5 -80.5t-59 -56t-80 -21zM998 38q38 0 62.5 31t35.5 85l14 68q2 8 3 18.5t1 18.5q0 36 -16.5 55.5t-48.5 19.5q-38 0 -62.5 -31t-35.5 -85l-14 -68q-2 -8 -3 -18.5t-1 -18.5q0 -36 16.5 -55.5t48.5 -19.5z" />
    <glyph glyph-name="bar" unicode="|" horiz-adv-x="306" 
d="M41 -138l181 898h66l-181 -898h-66z" />
    <glyph glyph-name="brokenbar" unicode="&#xa6;" horiz-adv-x="306" 
d="M150 406l72 354h66l-72 -354h-66zM41 -138l72 354h66l-72 -354h-66z" />
    <glyph glyph-name="section" unicode="&#xa7;" horiz-adv-x="557" 
d="M404 24q0 -41 -16.5 -74.5t-44.5 -56.5t-66 -35.5t-80 -12.5q-53 0 -97 14.5t-74 44.5l54 54q21 -21 53.5 -33t70.5 -12q24 0 45.5 7t38.5 20.5t27 32t10 42.5q0 30 -17 52.5t-60 36.5l-59 20q-66 23 -94 54t-28 76q0 63 38.5 104.5t98.5 52.5l1 9q-28 22 -40 50.5
t-12 60.5q0 41 16.5 74t45 56.5t66 36t79.5 12.5q53 0 97 -14.5t74 -44.5l-54 -54q-21 21 -53.5 33t-70.5 12q-24 0 -45.5 -7t-38.5 -20.5t-27 -32t-10 -42.5q0 -30 17 -52.5t60 -36.5l59 -20q66 -23 94 -54t28 -76q0 -63 -38.5 -104.5t-98.5 -52.5l-1 -9q28 -22 40 -50.5
t12 -60.5zM410 273q0 42 -22 63.5t-71 37.5l-59 19q-9 3 -20 8q-44 -17 -67.5 -50.5t-23.5 -68.5q0 -42 22 -63.5t71 -37.5l59 -19q9 -3 20 -8q44 17 67.5 50.5t23.5 68.5z" />
    <glyph glyph-name="paragraph" unicode="&#xb6;" horiz-adv-x="629" 
d="M247 301q-30 0 -57.5 14t-48.5 38t-33 55.5t-12 66.5q0 49 18.5 90.5t50 70.5t73 45.5t88.5 16.5h311l-12 -66h-64l-157 -781h-71l157 781h-106l-157 -781h-71z" />
    <glyph glyph-name="copyright" unicode="&#xa9;" horiz-adv-x="784" 
d="M358 -12q-66 0 -119.5 22t-91.5 62.5t-59 96t-21 123.5q0 90 30 166t82.5 131.5t125 87t156.5 31.5q66 0 119.5 -22t91.5 -62.5t59 -96.5t21 -123q0 -90 -30 -166t-82.5 -131.5t-125 -87t-156.5 -31.5zM362 46q58 0 110 19.5t93 53.5t69.5 79.5t38.5 97.5q6 32 10.5 60.5
t4.5 47.5q0 56 -17 101.5t-48 77.5t-73 49.5t-93 17.5q-58 0 -110 -19.5t-93 -53.5t-69.5 -79.5t-38.5 -97.5q-6 -32 -10.5 -60.5t-4.5 -47.5q0 -56 17 -101.5t48 -77.5t73 -49.5t93 -17.5zM380 155q-61 0 -95.5 38.5t-34.5 107.5q0 50 14 94t38.5 77t59.5 52t77 19
q27 0 48.5 -8t37.5 -21.5t27 -30.5t16 -36l-58 -24q-7 29 -26 44.5t-48 15.5q-42 0 -66.5 -29.5t-33.5 -74.5l-12 -59q-3 -15 -3 -28q0 -34 17.5 -55t49.5 -21q52 0 99 66l48 -38q-26 -38 -65 -63.5t-90 -25.5z" />
    <glyph glyph-name="registered" unicode="&#xae;" horiz-adv-x="469" 
d="M263 298q-36 0 -68 13.5t-55 37t-36.5 55.5t-13.5 69q0 51 16 94.5t44.5 75t68.5 49.5t87 18q36 0 68 -13.5t55 -37t36.5 -55.5t13.5 -69q0 -51 -16 -94.5t-44.5 -75t-68.5 -49.5t-87 -18zM267 337q65 0 108.5 40.5t56.5 103.5q2 11 3.5 28.5t1.5 22.5q0 62 -38 100.5
t-97 38.5q-65 0 -108.5 -40.5t-56.5 -103.5q-2 -11 -3.5 -28.5t-1.5 -22.5q0 -62 38 -100.5t97 -38.5zM232 400h-39l42 209h82q28 0 41.5 -16t13.5 -37q0 -26 -14 -46t-38 -25l30 -85h-41l-26 81h-35zM298 511q11 0 18.5 5t9.5 16q3 15 4 20.5t1 7.5q0 16 -19 16h-45
l-13 -65h44z" />
    <glyph glyph-name="trademark" unicode="&#x2122;" horiz-adv-x="587" 
d="M133 419l47 235h-80l9 44h210l-9 -44h-80l-47 -235h-50zM313 419l56 279h57l34 -133h3l88 133h64l-56 -279h-46l25 126l18 83h-4l-105 -155l-43 155h-4l-16 -86l-25 -123h-46z" />
    <glyph glyph-name="ordfeminine" unicode="&#xaa;" horiz-adv-x="390" 
d="M369 350h-33q-27 0 -38.5 10.5t-11.5 29.5v5.5t1 8.5h-4q-15 -23 -44.5 -41.5t-71.5 -18.5t-66 22t-24 57q0 61 42.5 92t121.5 31h70l5 24q2 8 2 14.5v13.5q0 55 -62 55q-31 0 -56.5 -14.5t-41.5 -37.5l-36 34q21 27 57.5 48t84.5 21q53 0 84 -26t31 -79q0 -19 -4 -39
l-31 -155h36zM231 502q-39 0 -61.5 -12.5t-27.5 -35.5q-4 -20 -4 -24q0 -36 50 -36q19 0 36.5 5t32 14t24.5 21t13 27l8 41h-71z" />
    <glyph glyph-name="ordmasculine" unicode="&#xba;" horiz-adv-x="389" 
d="M220 344q-58 0 -92.5 37.5t-34.5 94.5q0 37 7 68q7 33 21.5 62t36 51t51 34.5t66.5 12.5q58 0 92.5 -37.5t34.5 -94.5q0 -37 -7 -68q-7 -33 -21.5 -62t-36 -51t-51 -34.5t-66.5 -12.5zM228 395q39 0 63.5 28t33.5 70l12 58q2 8 3 15t1 14q0 33 -19 53t-55 20
q-39 0 -63.5 -28t-33.5 -70l-12 -58q-2 -8 -3 -15t-1 -14q0 -33 19 -53t55 -20z" />
    <glyph glyph-name="degree" unicode="&#xb0;" horiz-adv-x="454" 
d="M263 366q-30 0 -56.5 11t-46 31t-30.5 47.5t-11 61.5q0 41 13.5 76.5t38 61.5t58 40.5t74.5 14.5q30 0 56 -11t45.5 -30.5t31 -47.5t11.5 -61q0 -42 -13.5 -77.5t-38 -61.5t-58.5 -40.5t-74 -14.5zM272 430q25 0 44.5 10t33.5 27t21.5 40.5t7.5 49.5q0 37 -23 63t-62 26
q-25 0 -44.5 -10t-33.5 -27.5t-21.5 -40.5t-7.5 -49q0 -37 23 -63t62 -26z" />
    <glyph glyph-name="asterisk" unicode="*" horiz-adv-x="452" 
d="M172 380l-52 45l117 120l-134 38l31 65l127 -53l25 152h68l-35 -152l143 52l12 -64l-148 -41l68 -118l-58 -39l-59 127z" />
    <glyph glyph-name="dagger" unicode="&#x2020;" horiz-adv-x="534" 
d="M142 -200l130 653h-182l12 63h183l45 224h66l-45 -224h184l-12 -63h-185l-130 -653h-66z" />
    <glyph glyph-name="daggerdbl" unicode="&#x2021;" horiz-adv-x="534" 
d="M142 -200l45 224h-184l12 63h184l73 366h-182l12 63h183l45 224h66l-45 -224h184l-12 -63h-185l-73 -366h183l-12 -63h-183l-45 -224h-66z" />
    <glyph glyph-name="numbersign" unicode="#" horiz-adv-x="681" 
d="M374 205h-133l-76 -205h-67l76 205h-127l11 58h137l62 172h-126l11 58h137l75 205h67l-75 -205h133l75 205h67l-75 -205h126l-11 -58h-137l-62 -172h126l-11 -58h-136l-76 -205h-67zM395 263l62 172h-133l-62 -172h133z" />
    <glyph glyph-name="asciicircum" unicode="^" horiz-adv-x="600" 
d="M493 296l-115 325h-4l-244 -325l-56 35l270 367h85l126 -373z" />
    <glyph glyph-name="asciitilde" unicode="~" horiz-adv-x="600" 
d="M410 236q-34 0 -59.5 10.5t-55.5 27.5q-24 14 -47.5 24t-53.5 10q-23 0 -43 -8.5t-45 -25.5l-24 46q24 24 53 39t74 15q34 0 59.5 -10.5t55.5 -27.5q24 -14 47.5 -24t53.5 -10q23 0 43 8.5t45 25.5l24 -46q-24 -24 -53 -39t-74 -15z" />
    <glyph glyph-name="plus" unicode="+" horiz-adv-x="600" 
d="M225 62l42 210h-189l13 66h190l42 210h73l-42 -210h187l-13 -66h-188l-42 -210h-73z" />
    <glyph glyph-name="minus" unicode="&#x2212;" horiz-adv-x="600" 
d="M78 272l13 66h450l-13 -66h-450z" />
    <glyph glyph-name="plusminus" unicode="&#xb1;" horiz-adv-x="600" 
d="M244 153l40 200h-190l13 66h190l40 200h73l-40 -200h187l-13 -66h-187l-40 -200h-73zM24 0l13 66h450l-13 -66h-450z" />
    <glyph glyph-name="multiply" unicode="&#xd7;" horiz-adv-x="600" 
d="M302 255l-185 -163l-41 54l186 163l-121 162l54 47l121 -162l185 162l41 -54l-186 -162l120 -162l-54 -47z" />
    <glyph glyph-name="divide" unicode="&#xf7;" horiz-adv-x="600" 
d="M77 273l14 66h450l-14 -66h-450zM263 54q-27 0 -38.5 10t-11.5 28q0 6 1 13t3 15q5 26 20.5 39t44.5 13q27 0 38.5 -10t11.5 -28q0 -6 -1 -13t-3 -15q-5 -26 -20.5 -39t-44.5 -13zM338 440q-27 0 -38.5 10t-11.5 28q0 6 1 13t3 15q5 26 20.5 39t44.5 13q27 0 38.5 -10
t11.5 -28q0 -6 -1 -13t-3 -15q-5 -26 -20.5 -39t-44.5 -13z" />
    <glyph glyph-name="equal" unicode="=" horiz-adv-x="600" 
d="M98 374l13 66h450l-13 -66h-450zM58 172l13 66h450l-13 -66h-450z" />
    <glyph glyph-name="approxequal" unicode="&#x2248;" horiz-adv-x="600" 
d="M430 337q-34 0 -59.5 10.5t-55.5 27.5q-24 14 -47.5 24t-53.5 10q-23 0 -43 -8.5t-45 -25.5l-24 46q24 24 53 39t74 15q34 0 59.5 -10.5t55.5 -27.5q24 -14 47.5 -24t53.5 -10q23 0 43 8.5t45 25.5l24 -46q-24 -24 -53 -39t-74 -15zM391 137q-34 0 -59.5 10.5t-55.5 27.5
q-24 14 -47.5 24t-53.5 10q-23 0 -43 -8.5t-45 -25.5l-24 46q24 24 53 39t74 15q34 0 59.5 -10.5t55.5 -27.5q24 -14 47.5 -24t53.5 -10q23 0 43 8.5t45 25.5l24 -46q-24 -24 -53 -39t-74 -15z" />
    <glyph glyph-name="notequal" unicode="&#x2260;" horiz-adv-x="600" 
d="M107 72l71 100h-120l13 66h154l97 136h-224l13 66h258l71 100h73l-71 -100h119l-13 -66h-153l-97 -136h223l-13 -66h-257l-71 -100h-73z" />
    <glyph glyph-name="less" unicode="&#x3c;" horiz-adv-x="600" 
d="M94 242l15 76l456 249l-17 -87l-373 -199l-2 -8l293 -205l-16 -80z" />
    <glyph glyph-name="greater" unicode="&#x3e;" horiz-adv-x="600" 
d="M62 75l373 204l2 8l-293 199l16 80l356 -248l-15 -76l-456 -254z" />
    <glyph glyph-name="lessequal" unicode="&#x2264;" horiz-adv-x="600" 
d="M45 0l14 66h406l-14 -66h-406zM553 507l-363 -150l-1 -7l303 -151l-16 -77l-368 192l18 87l444 191z" />
    <glyph glyph-name="greaterequal" unicode="&#x2265;" horiz-adv-x="600" 
d="M87 207l363 151l1 7l-303 150l16 77l368 -191l-18 -87l-444 -192zM59 66h406l-14 -66h-406z" />
    <glyph glyph-name="periodcentered" unicode="&#xb7;" horiz-adv-x="316" 
d="M149 240q-24 0 -37.5 10t-13.5 30q0 7 1 16.5t3 17.5q4 20 17.5 37.5t47.5 17.5q24 0 37.5 -10t13.5 -30q0 -7 -1 -16.5t-3 -17.5q-2 -10 -6 -20t-11.5 -17.5t-19 -12.5t-28.5 -5z" />
    <glyph glyph-name="anoteleia" unicode="&#x387;" horiz-adv-x="292" 
d="M178 394q-24 0 -37.5 10t-13.5 30q0 7 1 16.5t3 17.5q4 20 17.5 37.5t47.5 17.5q24 0 37.5 -10t13.5 -30q0 -7 -1 -16.5t-3 -17.5q-2 -10 -6 -20t-11.5 -17.5t-19 -12.5t-28.5 -5z" />
    <glyph glyph-name="bullet" unicode="&#x2022;" horiz-adv-x="386" 
d="M181 186q-51 0 -75.5 21.5t-24.5 56.5q0 5 1.5 20t6.5 37q9 45 39.5 73t92.5 28q51 0 75.5 -21.5t24.5 -56.5q0 -5 -1.5 -20t-6.5 -37q-9 -45 -39.5 -73t-92.5 -28z" />
    <glyph glyph-name="lozenge" unicode="&#x25ca;" horiz-adv-x="600" 
d="M213 0l-137 351l272 347h77l137 -351l-272 -347h-77zM266 77l217 276l-104 268h-7l-217 -276l104 -268h7z" />
    <glyph glyph-name="logicalnot" unicode="&#xac;" horiz-adv-x="600" 
d="M423 77l39 195h-394l14 66h460l-52 -261h-67z" />
    <glyph glyph-name="radical" unicode="&#x221a;" horiz-adv-x="582" 
d="M193 0l-29 454h-95l13 62h150l10 -166l16 -284h5l130 284l164 348h79l-333 -698h-110z" />
    <glyph glyph-name="integral" unicode="&#x222b;" horiz-adv-x="420" 
d="M-21 -132h115l151 753q11 53 39 86t88 33h89l-14 -68h-115l-152 -755q-11 -53 -39 -85t-87 -32h-89z" />
    <glyph glyph-name="infinity" unicode="&#x221e;" horiz-adv-x="730" 
d="M166 115q-73 0 -111.5 34.5t-38.5 106.5q0 49 14.5 92.5t42.5 76t68.5 51.5t92.5 19q26 0 51.5 -6t47 -21.5t37 -42t21.5 -67.5h4q31 75 78 106t105 31q73 0 111.5 -35t38.5 -107q0 -49 -14.5 -92.5t-42.5 -75.5t-68.5 -51t-92.5 -19q-26 0 -51.5 6t-47 21t-37 41.5
t-21.5 67.5h-4q-30 -74 -77.5 -105t-105.5 -31zM178 181q51 0 89 28.5t71 95.5q-5 60 -27.5 92t-73.5 32q-49 0 -84 -25.5t-49 -79.5q-8 -29 -10 -42t-2 -25q0 -38 22.5 -57t63.5 -19zM507 181q49 0 84 25t49 79q8 29 10 42t2 25q0 39 -22.5 58t-63.5 19q-51 0 -89 -28.5
t-71 -96.5q5 -59 27.5 -91t73.5 -32z" />
    <glyph glyph-name="uni212E" unicode="&#x212e;" horiz-adv-x="726" 
d="M180 109q32 -30 77.5 -50t105.5 -20q90 0 149 41t95 108l46 -25q-20 -38 -48 -70t-64 -55.5t-80.5 -36.5t-97.5 -13q-71 0 -130.5 25.5t-103.5 72.5t-68.5 113.5t-24.5 149.5q0 82 24.5 149t68.5 114t103.5 72.5t130.5 25.5q70 0 130 -25.5t104 -72.5t68.5 -114
t24.5 -149h-510v-240zM546 397v195q-32 30 -77.5 50t-105.5 20t-105.5 -20t-77.5 -50v-195h366z" />
    <glyph glyph-name="uni2113" unicode="&#x2113;" horiz-adv-x="488" 
d="M272 -12q-74 0 -112 47.5t-38 123.5v12q-14 -11 -27.5 -20t-27.5 -18l-33 52q21 14 43.5 28.5t42.5 30.5v317q0 54 10.5 90.5t29 59t44.5 32t56 9.5q69 0 104.5 -43t35.5 -125q0 -98 -52.5 -184t-150.5 -176v-46q0 -66 21.5 -94t60.5 -28q46 0 75 30t50 76l55 -34
q-13 -29 -30.5 -54.5t-40.5 -44.5t-52 -30t-64 -11zM263 687q-14 0 -26 -5.5t-21 -19t-14 -36.5t-5 -58v-260q63 66 96 132.5t33 133.5v17q0 52 -17 74t-46 22z" />
    <glyph glyph-name="uni2116" unicode="&#x2116;" horiz-adv-x="992" 
d="M820 364q-28 0 -51.5 10t-41 27.5t-27.5 41.5t-10 53q0 40 11.5 78.5t34.5 68.5t58.5 48.5t82.5 18.5q28 0 51.5 -10t41 -27.5t27.5 -42t10 -53.5q0 -40 -11.5 -78.5t-35 -68.5t-58.5 -48t-82 -18zM39 0l140 698h88l141 -419l50 -165h4l116 584h75l-140 -698h-88
l-140 412l-51 172h-4l-116 -584h-75zM830 415q38 0 63.5 27t36.5 80l7 34q2 8 2.5 12.5t0.5 11.5q0 36 -18.5 57.5t-54.5 21.5q-38 0 -63.5 -27.5t-36.5 -80.5l-7 -34q-2 -8 -2.5 -12.5t-0.5 -11.5q0 -36 18.5 -57t54.5 -21zM657 244l13 64h264l-13 -64h-264z" />
    <glyph glyph-name="partialdiff" unicode="&#x2202;" horiz-adv-x="563" 
d="M236 -12q-44 0 -78.5 15.5t-58.5 43t-37 66t-13 85.5q0 61 18.5 116.5t51 97.5t77 67t97.5 25q54 0 88.5 -24t48.5 -67l5 2q-4 41 -22 81.5t-46 77.5t-64 68.5t-75 55.5h109q28 -21 58.5 -53t56 -74.5t42.5 -96.5t17 -118q0 -83 -20 -151t-56 -116t-86.5 -74.5
t-112.5 -26.5zM249 56q29 0 55 11.5t46.5 31.5t35 48.5t21.5 62.5l11 55q4 20 5.5 31.5t1.5 22.5q0 56 -33 87t-91 31q-29 0 -55 -11.5t-46.5 -31.5t-35 -48.5t-21.5 -62.5l-11 -55q-4 -20 -5.5 -31.5t-1.5 -22.5q0 -56 33 -87t91 -31z" />
    <glyph glyph-name="currency" unicode="&#xa4;" horiz-adv-x="612" 
d="M282 119q-42 0 -73.5 11.5t-54.5 33.5l-116 -95l-43 52l122 100q-12 31 -12 72q0 29 6 61q8 39 22.5 73.5t34.5 59.5l-85 106l54 44l82 -101q61 43 144 43q42 0 72.5 -11.5t53.5 -33.5l116 95l43 -52l-122 -100q12 -32 12 -72q0 -30 -6 -61q-8 -39 -22.5 -73.5
t-34.5 -59.5l85 -106l-54 -44l-82 101q-61 -43 -142 -43zM289 186q58 0 99.5 32.5t55.5 98.5l13 64q2 10 3 20t1 18q0 48 -29 70.5t-78 22.5q-58 0 -99.5 -32.5t-55.5 -98.5l-13 -64q-2 -10 -3 -20t-1 -18q0 -48 29 -70.5t78 -22.5z" />
    <glyph glyph-name="cent" unicode="&#xa2;" horiz-adv-x="505" 
d="M178 -4q-61 17 -95 70t-34 134q0 63 16 120.5t46.5 101.5t74 72t98.5 32l21 104h68l-22 -108q48 -11 78.5 -40.5t45.5 -73.5l-67 -31q-10 32 -27 51t-46 27l-79 -400q36 4 63.5 27t55.5 76l61 -30q-32 -66 -79 -101t-114 -39l-20 -102h-68zM125 181q0 -42 16.5 -73
t50.5 -45l79 393q-51 -10 -82 -47t-43 -97l-17 -83q-2 -11 -3 -24t-1 -24z" />
    <glyph glyph-name="Euro" unicode="&#x20ac;" horiz-adv-x="601" 
d="M283 -12q-48 0 -89.5 18t-72.5 53.5t-48.5 87t-17.5 119.5q0 91 24 172t68 141.5t106 95.5t137 35q85 0 141.5 -38.5t81.5 -113.5l-71 -41q-19 60 -56.5 90t-101.5 30q-73 0 -128.5 -47t-81.5 -127h253l-13 -66h-255q-3 -14 -6 -29.5t-5.5 -27t-4 -19.5t-3.5 -20h255
l-13 -66h-246q3 -79 44 -126.5t113 -47.5q37 0 65.5 8.5t51 25.5t41 41t36.5 56l58 -46q-24 -40 -49 -70t-56 -49.5t-69 -29t-88 -9.5z" />
    <glyph glyph-name="florin" unicode="&#x192;" horiz-adv-x="482" 
d="M-60 -66h146l99 370h-126l14 68h132l59 216q14 53 47 81.5t90 28.5h120l-14 -68h-151l-70 -258h167l-14 -68h-173l-89 -328q-16 -58 -47.5 -84t-89.5 -26h-113z" />
    <glyph glyph-name="sterling" unicode="&#xa3;" horiz-adv-x="577" 
d="M26 0l21 102q34 14 54 37.5t30.5 49.5t13.5 52.5t3 46.5h-87l14 68h69q-3 23 -5 46.5t-2 46.5q0 57 18.5 104.5t52 82.5t80.5 54.5t105 19.5q75 0 122 -31.5t74 -84.5l-68 -45q-20 41 -51.5 65t-82.5 24q-77 0 -122 -49.5t-45 -147.5q0 -21 1.5 -43t3.5 -42h209l-14 -68
h-192q-1 -37 -11 -70t-26 -60.5t-35.5 -48t-38.5 -32.5l-2 -5h352l-15 -72h-426z" />
    <glyph glyph-name="dollar" unicode="$" horiz-adv-x="579" 
d="M198 0q-63 8 -111 38t-76 82l59 49q47 -85 144 -99l52 262q-163 30 -163 167q0 40 15 75.5t44.5 62.5t74 44t103.5 19l16 80h60l-17 -85q57 -8 99 -35.5t65 -72.5l-63 -48q-15 30 -44.5 53.5t-72.5 32.5l-47 -237q91 -17 132.5 -58.5t41.5 -110.5q0 -45 -16.5 -84
t-48.5 -68t-79 -47t-108 -21l-16 -81h-60zM429 211q0 42 -25 70t-82 39l-50 -251q39 3 68.5 15t49 31.5t29.5 44t10 51.5zM184 506q0 -41 23 -67t73 -37l45 227q-65 -4 -103 -36t-38 -87z" />
    <glyph glyph-name="yen" unicode="&#xa5;" horiz-adv-x="594" 
d="M315 145l-30 -145h-80l30 145h-168l13 66h167l20 97h-167l12 66h130l-115 324h85l104 -312h4l231 312h94l-249 -324h134l-12 -66h-171l-20 -97h171l-13 -66h-170z" />
    <glyph glyph-name="uni0E3F" unicode="&#xe3f;" horiz-adv-x="614" 
d="M267 -82h-60l21 102h-185l132 657h184l21 103h60l-21 -103q88 0 131.5 -37.5t43.5 -103.5q0 -63 -35.5 -106.5t-95.5 -60.5l-1 -4q42 -13 67.5 -44.5t25.5 -86.5q0 -37 -15 -75t-43.5 -69t-70.5 -50.5t-96 -19.5h-42zM303 393l42 212h-105l-42 -212h105zM362 393h5
q52 1 87 21t44 65q3 15 6 29t3 26q0 37 -24.5 54t-68.5 17h-10zM242 92l47 232h-105l-46 -232h104zM301 92h29q53 0 87 23.5t45 75.5q4 19 6.5 33t2.5 28q0 38 -26.5 55t-76.5 17h-20z" />
    <glyph glyph-name="uni20A1" unicode="&#x20a1;" horiz-adv-x="591" 
d="M94 -82l39 132q-39 35 -63.5 87t-24.5 130q0 82 19.5 154.5t55.5 129.5t88 94.5t117 49.5l25 85h68l-23 -80q14 -1 26.5 -2.5t24.5 -4.5l26 87h68l-32 -111q64 -37 93 -119l-71 -41q-17 53 -47 80l-154 -514q53 9 87 40.5t63 85.5l59 -46q-43 -74 -95 -112t-134 -43
l-25 -82h-68l25 83q-14 2 -26.5 5t-23.5 8l-29 -96h-68zM212 89q24 -12 52 -15l162 545q-24 7 -54 7zM125 247q0 -35 9.5 -61.5t25.5 -49.5l143 479q-58 -22 -96.5 -71t-52.5 -122l-23 -114q-6 -30 -6 -61z" />
    <glyph glyph-name="uni20A4" unicode="&#x20a4;" horiz-adv-x="577" 
d="M452 0h-426l21 102q25 10 42 25t28 33t17.5 37.5t9.5 38.5h-93l13 66h84q-1 25 -3.5 48.5t-4.5 47.5h-57l13 66h41q2 53 21 98t53 78t80.5 51.5t104.5 18.5q76 0 120.5 -31.5t72.5 -84.5l-68 -45q-20 40 -50.5 64.5t-83.5 24.5q-74 0 -117.5 -44.5t-48.5 -129.5h234
l-13 -66h-220q2 -25 3.5 -49t2.5 -47h195l-13 -66h-188q-12 -56 -43 -97.5t-64 -61.5l-1 -5h353z" />
    <glyph glyph-name="uni20A6" unicode="&#x20a6;" horiz-adv-x="691" 
d="M360 238h-194l-48 -238h-72l47 234h-65l13 66h65l20 98h-65l13 66h65l47 234h93l82 -238h200l48 238h72l-47 -234h61l-13 -66h-61l-20 -98h61l-13 -66h-61l-47 -234h-96zM340 296l-42 118l-59 177h-3l-59 -295h163zM419 293l66 -197h3l62 306h-169z" />
    <glyph glyph-name="uni20A8" unicode="&#x20a8;" horiz-adv-x="720" 
d="M179 698h171q65 0 104 -35.5t39 -104.5q0 -35 -9.5 -70t-28 -65t-47 -53t-66.5 -35l64 -184q18 -51 42 -74t62 -23q29 0 47.5 18t18.5 49q0 40 -35 80l-24 27q-22 25 -35 52.5t-13 59.5q0 28 11.5 53t31.5 44t47 30t59 11q24 0 51.5 -8t45.5 -25l-39 -51
q-9 10 -27.5 15.5t-35.5 5.5q-29 0 -49.5 -18.5t-20.5 -47.5q0 -17 7 -34.5t27 -40.5l24 -25q48 -51 48 -114q0 -33 -10.5 -60t-29.5 -46.5t-45.5 -30t-58.5 -10.5q-64 0 -105 32.5t-67 106.5l-69 197h-83l-64 -324h-78zM281 392q47 0 79 24t41 69l8 39q4 20 4 36
q0 31 -21 49.5t-59 18.5h-91l-47 -236h86z" />
    <glyph glyph-name="uni20A9" unicode="&#x20a9;" horiz-adv-x="872" 
d="M523 233h-188l-104 -233h-89l-9 233h-110l13 66h94l-5 100h-84l13 66h69l-10 233h78l6 -235h171l105 235h92l12 -235h176l101 235h81l-104 -233h65l-13 -66h-82l-45 -100h93l-13 -66h-110l-104 -233h-88zM210 101l131 301h-142l7 -301h4zM598 102l129 300h-147l14 -300h4
zM519 299l-13 307h-5l-137 -307h155z" />
    <glyph glyph-name="uni20AA" unicode="&#x20aa;" horiz-adv-x="745" 
d="M309 540h78l-94 -472h138q21 0 41 5t37.5 17.5t30.5 34.5t20 56l104 517h78l-100 -498q-20 -102 -77 -151t-142 -49h-222zM39 0l140 698h223q65 0 104.5 -36.5t39.5 -106.5q0 -13 -1 -26.5t-4 -28.5l-68 -342h-78l71 356q2 11 3 22t1 19q0 43 -23.5 59t-58.5 16h-145
l-126 -630h-78z" />
    <glyph glyph-name="uni20AB" unicode="&#x20ab;" horiz-adv-x="566" 
d="M377 233h-5q-26 -48 -63.5 -75t-82.5 -27q-68 0 -105 40.5t-37 112.5q0 61 15.5 112t44 87.5t68.5 56.5t89 20q47 0 77 -20t44 -58h5l28 138h-144l11 60h145l12 60h73l-12 -60h64l-11 -60h-65l-97 -480h-73zM255 193q28 0 51.5 11t41.5 28.5t29.5 39t15.5 41.5l18 89
q4 22 -2.5 40t-21.5 30.5t-35.5 19t-44.5 6.5q-56 0 -88.5 -32t-43.5 -89q-6 -29 -11 -55.5t-5 -40.5q0 -42 25.5 -65t70.5 -23zM21 0l13 66h411l-13 -66h-411z" />
    <glyph glyph-name="uni20AD" unicode="&#x20ad;" horiz-adv-x="595" 
d="M125 0h-80l66 328h-77l14 68h76l61 302h80l-61 -302h72l275 302h95l-281 -302h205l-14 -68h-200l167 -328h-93l-159 328h-80z" />
    <glyph glyph-name="uni20AE" unicode="&#x20ae;" horiz-adv-x="625" 
d="M344 214l-43 -214h-81l35 174l-142 -65l15 72l141 64l18 90l-141 -64l14 71l142 65l44 219h-213l15 72h507l-15 -72h-213l-36 -178l142 65l-14 -72l-143 -65l-18 -90l143 65l-15 -72z" />
    <glyph glyph-name="uni20B1" unicode="&#x20b1;" horiz-adv-x="612" 
d="M116 332h-77l13 66h77l19 96h-77l13 66h77l28 138h200q83 0 122 -38t43 -100h88l-13 -66h-76q-2 -26 -6 -49.5t-10 -46.5h72l-13 -66h-83q-29 -62 -79 -100t-124 -38h-142l-39 -194h-80zM241 557h241q-4 32 -25.5 51t-60.5 19h-141zM208 395h247l21 102h-247zM321 265
q42 0 71.5 17t46.5 53h-243l-14 -70h139z" />
    <glyph glyph-name="uni20B2" unicode="&#x20b2;" horiz-adv-x="643" 
d="M186 20q-61 30 -96 91t-35 158q0 93 24.5 171.5t69 136.5t106 90.5t135.5 32.5q22 0 44 -3l31 83h65l-38 -100q47 -22 74 -57.5t40 -77.5l-72 -39q-7 30 -23 56.5t-46 44.5l-90 -248h218l-23 -113q-16 -77 -47.5 -125.5t-71.5 -75.5t-84 -37t-84 -10q-10 0 -20 0.5
t-19 1.5l-31 -82h-65zM133 248q0 -57 20.5 -95.5t59.5 -61.5l195 535q-11 2 -16.5 2h-13.5q-84 0 -140.5 -54t-76.5 -152l-22 -110q-3 -15 -4.5 -32t-1.5 -32zM269 71q6 -1 11.5 -1h10.5q73 0 126.5 38.5t69.5 116.5l12 60h-152z" />
    <glyph glyph-name="uni20B4" unicode="&#x20b4;" horiz-adv-x="609" 
d="M268 -12q-84 0 -133 47t-49 124q0 26 7.5 48.5t18.5 41.5h-67l13 66h117l182 97h-279l13 66h362q9 14 14.5 30.5t5.5 36.5q0 42 -28 68t-76 26q-38 0 -73.5 -15t-71.5 -50l-44 53q49 46 99.5 64.5t98.5 18.5q39 0 71.5 -11t56 -31.5t36.5 -49.5t13 -65q0 -21 -5.5 -40
t-13.5 -35h70l-13 -66h-116l-181 -97h277l-13 -66h-361q-32 -38 -32 -83q0 -50 30.5 -78.5t79.5 -28.5q40 0 79 17.5t86 60.5l43 -55q-47 -48 -103 -71t-114 -23z" />
    <glyph glyph-name="uni20B5" unicode="&#x20b5;" horiz-adv-x="599" 
d="M185 22q-59 29 -94.5 88.5t-35.5 156.5q0 90 23.5 169t67 137.5t105 92.5t137.5 34q21 0 44 -3l31 83h65l-37 -98q85 -36 120 -133l-71 -41q-11 36 -28.5 61.5t-46.5 41.5l-197 -540q10 -1 15.5 -1h11.5q37 0 65 8.5t50.5 25t41 41t36.5 56.5l59 -46q-24 -40 -49 -69.5
t-56 -49t-69.5 -29t-87.5 -9.5q-11 0 -20 1t-23 3l-31 -84h-65zM135 247q0 -56 20 -93.5t57 -60.5l195 534q-9 1 -14 1h-11q-42 0 -78 -15t-64.5 -42.5t-48 -66t-28.5 -85.5l-22 -109q-3 -15 -4.5 -32t-1.5 -31z" />
    <glyph glyph-name="uni20B8" unicode="&#x20b8;" horiz-adv-x="588" 
d="M114 630l14 68h505l-14 -68h-505zM377 470l-94 -470h-82l94 470h-213l14 68h505l-14 -68h-210z" />
    <glyph glyph-name="uni20B9" unicode="&#x20b9;" horiz-adv-x="588" 
d="M335 0l-154 298h-121l14 69h206q64 0 98.5 28.5t46.5 69.5h-330l14 69h327q2 44 -20 69.5t-73 25.5h-214l14 69h515l-14 -69h-185l-1 -4q53 -20 54 -91h113l-14 -69h-107q-9 -36 -27.5 -66.5t-48 -53t-69.5 -35t-91 -12.5l158 -298h-91z" />
    <glyph glyph-name="uni20BA" unicode="&#x20ba;" horiz-adv-x="635" 
d="M150 244l-102 -47l14 72l102 46l18 90l-102 -46l15 72l102 46l44 221h81l-36 -180l228 104l-14 -71l-229 -105l-18 -91l228 105l-14 -71l-228 -105l-42 -213h99q42 0 77.5 16.5t63.5 47t48.5 74t31.5 96.5h79q-13 -64 -38 -119.5t-62.5 -97t-87.5 -65t-112 -23.5h-195z
" />
    <glyph glyph-name="uni20BD" unicode="&#x20bd;" horiz-adv-x="604" 
d="M157 136l-27 -136h-81l27 136h-76l14 66h75l20 96h-76l14 70h76l66 330h249q46 0 78.5 -12.5t53 -35t30 -53t9.5 -66.5q0 -47 -16 -89t-46 -74t-73 -51t-97 -19h-187l-20 -96h264l-14 -66h-263zM204 368h184q50 0 83.5 27t43.5 76q7 34 9.5 48t2.5 26q0 36 -21.5 59.5
t-74.5 23.5h-175z" />
    <glyph glyph-name="uni20BF" unicode="&#x20bf;" horiz-adv-x="620" 
d="M275 20h-58l-21 -102h-68l21 102h-106l132 657h105l21 103h68l-21 -103h58l21 103h68l-22 -107q59 -10 90 -46t31 -91q0 -63 -35.5 -106.5t-95.5 -60.5l-1 -4q42 -13 67.5 -44.5t25.5 -86.5q0 -36 -14 -73t-41 -67.5t-66.5 -50.5t-90.5 -23l-21 -102h-68zM198 394h163
q55 0 91.5 20t45.5 65q3 15 6 29t3 26q0 37 -24.5 54t-68.5 17h-174zM138 92h192q53 0 87 23.5t45 75.5q4 19 6.5 33t2.5 28q0 38 -26.5 55t-76.5 17h-184z" />
    <glyph glyph-name="fl" unicode="&#xfb02;" horiz-adv-x="571" 
d="M118 -86q-11 -53 -38.5 -83.5t-87.5 -30.5h-67l13 68h93l118 580h-85l13 68h85l22 110q11 53 38.5 83.5t87.5 30.5h79l-13 -68h-105l-32 -156h101l-13 -68h-101zM428 0q-35 0 -52.5 17.5t-17.5 45.5q0 9 3 24l131 653h77l-135 -672h78l-13 -68h-71z" />
    <glyph glyph-name="aacute" unicode="&#xe1;" horiz-adv-x="583" 
d="M437 0q-34 0 -50.5 17t-16.5 45q0 12 3 27l5 23h-3q-32 -65 -71 -94.5t-96 -29.5q-71 0 -114 52.5t-43 144.5q0 57 15.5 117.5t46.5 111t78.5 82.5t111.5 32q23 0 45 -6t40 -18t31 -30t19 -42h4l17 84h77l-90 -448h73l-13 -68h-69zM228 58q34 0 60 13.5t49 37.5
q26 26 41.5 56t23.5 68l21 105q5 24 1 45.5t-18 38t-38 26.5t-58 10q-63 0 -104 -41t-56 -116l-15 -75q-5 -28 -5 -51q0 -53 25 -85t73 -32zM358 585l-48 25l104 170l68 -36z" />
    <glyph glyph-name="abreve" unicode="&#x103;" horiz-adv-x="583" 
d="M437 0q-34 0 -50.5 17t-16.5 45q0 12 3 27l5 23h-3q-32 -65 -71 -94.5t-96 -29.5q-71 0 -114 52.5t-43 144.5q0 57 15.5 117.5t46.5 111t78.5 82.5t111.5 32q23 0 45 -6t40 -18t31 -30t19 -42h4l17 84h77l-90 -448h73l-13 -68h-69zM228 58q34 0 60 13.5t49 37.5
q26 26 41.5 56t23.5 68l21 105q5 24 1 45.5t-18 38t-38 26.5t-58 10q-63 0 -104 -41t-56 -116l-15 -75q-5 -28 -5 -51q0 -53 25 -85t73 -32zM347 596q-37 0 -61 13.5t-38.5 33.5t-21.5 43.5t-10 43.5l46 20l10 -22q16 -35 32 -53t45 -18q27 0 49 16.5t51 54.5l17 22l48 -20
q-10 -21 -23.5 -44.5t-33.5 -43.5t-47 -33t-63 -13z" />
    <glyph glyph-name="acircumflex" unicode="&#xe2;" horiz-adv-x="583" 
d="M437 0q-34 0 -50.5 17t-16.5 45q0 12 3 27l5 23h-3q-32 -65 -71 -94.5t-96 -29.5q-71 0 -114 52.5t-43 144.5q0 57 15.5 117.5t46.5 111t78.5 82.5t111.5 32q23 0 45 -6t40 -18t31 -30t19 -42h4l17 84h77l-90 -448h73l-13 -68h-69zM228 58q34 0 60 13.5t49 37.5
q26 26 41.5 56t23.5 68l21 105q5 24 1 45.5t-18 38t-38 26.5t-58 10q-63 0 -104 -41t-56 -116l-15 -75q-5 -28 -5 -51q0 -53 25 -85t73 -32zM419 765l82 -143l-43 -31l-93 115l-139 -116l-39 32l138 143h94z" />
    <glyph glyph-name="adieresis" unicode="&#xe4;" horiz-adv-x="583" 
d="M437 0q-34 0 -50.5 17t-16.5 45q0 12 3 27l5 23h-3q-32 -65 -71 -94.5t-96 -29.5q-71 0 -114 52.5t-43 144.5q0 57 15.5 117.5t46.5 111t78.5 82.5t111.5 32q23 0 45 -6t40 -18t31 -30t19 -42h4l17 84h77l-90 -448h73l-13 -68h-69zM228 58q34 0 60 13.5t49 37.5
q26 26 41.5 56t23.5 68l21 105q5 24 1 45.5t-18 38t-38 26.5t-58 10q-63 0 -104 -41t-56 -116l-15 -75q-5 -28 -5 -51q0 -53 25 -85t73 -32zM258 618q-20 0 -31 9t-11 26q0 4 0.5 8.5t2.5 12.5q9 47 56 47q20 0 31 -9t11 -26q0 -5 -3 -21q-9 -47 -56 -47zM440 618
q-20 0 -31 9t-11 26q0 4 0.5 8.5t2.5 12.5q9 47 56 47q20 0 31 -9t11 -26q0 -5 -3 -21q-9 -47 -56 -47z" />
    <glyph glyph-name="uni1EA1" unicode="&#x1ea1;" horiz-adv-x="583" 
d="M437 0q-34 0 -50.5 17t-16.5 45q0 12 3 27l5 23h-3q-32 -65 -71 -94.5t-96 -29.5q-71 0 -114 52.5t-43 144.5q0 57 15.5 117.5t46.5 111t78.5 82.5t111.5 32q23 0 45 -6t40 -18t31 -30t19 -42h4l17 84h77l-90 -448h73l-13 -68h-69zM228 58q34 0 60 13.5t49 37.5
q26 26 41.5 56t23.5 68l21 105q5 24 1 45.5t-18 38t-38 26.5t-58 10q-63 0 -104 -41t-56 -116l-15 -75q-5 -28 -5 -51q0 -53 25 -85t73 -32zM229 -169q-20 0 -31 9t-11 26q0 4 0.5 8.5t2.5 12.5q9 47 56 47q20 0 31 -9t11 -26q0 -5 -3 -21q-9 -47 -56 -47z" />
    <glyph glyph-name="agrave" unicode="&#xe0;" horiz-adv-x="583" 
d="M437 0q-34 0 -50.5 17t-16.5 45q0 12 3 27l5 23h-3q-32 -65 -71 -94.5t-96 -29.5q-71 0 -114 52.5t-43 144.5q0 57 15.5 117.5t46.5 111t78.5 82.5t111.5 32q23 0 45 -6t40 -18t31 -30t19 -42h4l17 84h77l-90 -448h73l-13 -68h-69zM228 58q34 0 60 13.5t49 37.5
q26 26 41.5 56t23.5 68l21 105q5 24 1 45.5t-18 38t-38 26.5t-58 10q-63 0 -104 -41t-56 -116l-15 -75q-5 -28 -5 -51q0 -53 25 -85t73 -32zM246 744l68 32l61 -170l-45 -21z" />
    <glyph glyph-name="uni1EA3" unicode="&#x1ea3;" horiz-adv-x="583" 
d="M437 0q-34 0 -50.5 17t-16.5 45q0 12 3 27l5 23h-3q-32 -65 -71 -94.5t-96 -29.5q-71 0 -114 52.5t-43 144.5q0 57 15.5 117.5t46.5 111t78.5 82.5t111.5 32q23 0 45 -6t40 -18t31 -30t19 -42h4l17 84h77l-90 -448h73l-13 -68h-69zM228 58q34 0 60 13.5t49 37.5
q26 26 41.5 56t23.5 68l21 105q5 24 1 45.5t-18 38t-38 26.5t-58 10q-63 0 -104 -41t-56 -116l-15 -75q-5 -28 -5 -51q0 -53 25 -85t73 -32zM282 765h107q37 0 49.5 -16t12.5 -33q0 -25 -17.5 -51t-43.5 -56l-28 -32l-41 23l69 106h-116z" />
    <glyph glyph-name="amacron" unicode="&#x101;" horiz-adv-x="583" 
d="M437 0q-34 0 -50.5 17t-16.5 45q0 12 3 27l5 23h-3q-32 -65 -71 -94.5t-96 -29.5q-71 0 -114 52.5t-43 144.5q0 57 15.5 117.5t46.5 111t78.5 82.5t111.5 32q23 0 45 -6t40 -18t31 -30t19 -42h4l17 84h77l-90 -448h73l-13 -68h-69zM228 58q34 0 60 13.5t49 37.5
q26 26 41.5 56t23.5 68l21 105q5 24 1 45.5t-18 38t-38 26.5t-58 10q-63 0 -104 -41t-56 -116l-15 -75q-5 -28 -5 -51q0 -53 25 -85t73 -32zM229 705h272l-14 -66h-272z" />
    <glyph glyph-name="aogonek" unicode="&#x105;" horiz-adv-x="583" 
d="M506 0q-39 -26 -62.5 -45.5t-36 -34t-16 -24.5t-3.5 -18q0 -16 9.5 -23.5t23.5 -7.5q12 0 26 6.5t28 20.5l37 -44q-13 -14 -37 -25.5t-59 -11.5q-19 0 -36 4t-30.5 13t-21.5 23.5t-8 34.5q0 42 34 71.5t91 55.5l-1 5h-7q-34 0 -50.5 17t-16.5 45q0 12 3 27l5 23h-3
q-32 -65 -71 -94.5t-96 -29.5q-71 0 -114 52.5t-43 144.5q0 57 15.5 117.5t46.5 111t78.5 82.5t111.5 32q23 0 45 -6t40 -18t31 -30t19 -42h4l17 84h77l-90 -448h73zM227 58q36 0 61.5 14t48.5 37q26 26 41.5 56t23.5 68l25 124q3 17 -3.5 35t-21.5 32.5t-37.5 24t-52.5 9.5
q-66 0 -106.5 -41t-55.5 -116l-15 -75q-5 -28 -5 -51q0 -50 23.5 -83.5t73.5 -33.5z" />
    <glyph glyph-name="aring" unicode="&#xe5;" horiz-adv-x="583" 
d="M437 0q-34 0 -50.5 17t-16.5 45q0 12 3 27l5 23h-3q-32 -65 -71 -94.5t-96 -29.5q-71 0 -114 52.5t-43 144.5q0 57 15.5 117.5t46.5 111t78.5 82.5t111.5 32q23 0 45 -6t40 -18t31 -30t19 -42h4l17 84h77l-90 -448h73l-13 -68h-69zM228 58q34 0 60 13.5t49 37.5
q26 26 41.5 56t23.5 68l21 105q5 24 1 45.5t-18 38t-38 26.5t-58 10q-63 0 -104 -41t-56 -116l-15 -75q-5 -28 -5 -51q0 -53 25 -85t73 -32zM347 576q-45 0 -72.5 28.5t-27.5 71.5q0 60 35 95t94 35q45 0 72.5 -28.5t27.5 -71.5q0 -60 -35 -95t-94 -35zM353 624q52 0 63 56
q4 19 4 31q0 47 -50 47q-52 0 -63 -56q-4 -19 -4 -31q0 -47 50 -47z" />
    <glyph glyph-name="aringacute" unicode="&#x1fb;" horiz-adv-x="583" 
d="M437 0q-34 0 -50.5 17t-16.5 45q0 12 3 27l5 23h-3q-32 -65 -71 -94.5t-96 -29.5q-71 0 -114 52.5t-43 144.5q0 57 15.5 117.5t46.5 111t78.5 82.5t111.5 32q23 0 45 -6t40 -18t31 -30t19 -42h4l17 84h77l-90 -448h73l-13 -68h-69zM228 58q34 0 60 13.5t49 37.5
q26 26 41.5 56t23.5 68l21 105q5 24 1 45.5t-18 38t-38 26.5t-58 10q-63 0 -104 -41t-56 -116l-15 -75q-5 -28 -5 -51q0 -53 25 -85t73 -32zM385 814l-37 27l89 116l54 -38zM344 566q-45 0 -72.5 28.5t-27.5 71.5q0 60 35 95t94 35q45 0 72.5 -28.5t27.5 -70.5
q0 -60 -35 -95.5t-94 -35.5zM350 614q52 0 63 56q4 20 4 32q0 46 -50 46q-52 0 -63 -55q-4 -20 -4 -32q0 -47 50 -47z" />
    <glyph glyph-name="atilde" unicode="&#xe3;" horiz-adv-x="583" 
d="M437 0q-34 0 -50.5 17t-16.5 45q0 12 3 27l5 23h-3q-32 -65 -71 -94.5t-96 -29.5q-71 0 -114 52.5t-43 144.5q0 57 15.5 117.5t46.5 111t78.5 82.5t111.5 32q23 0 45 -6t40 -18t31 -30t19 -42h4l17 84h77l-90 -448h73l-13 -68h-69zM228 58q34 0 60 13.5t49 37.5
q26 26 41.5 56t23.5 68l21 105q5 24 1 45.5t-18 38t-38 26.5t-58 10q-63 0 -104 -41t-56 -116l-15 -75q-5 -28 -5 -51q0 -53 25 -85t73 -32zM421 612q-26 0 -43 8t-31 17q-22 14 -37 19t-28 5q-17 0 -30 -7t-30 -20l-28 39q17 20 41 36.5t58 16.5q26 0 43 -8t31 -17
q22 -14 37 -19t28 -5q17 0 30 7t30 20l28 -39q-17 -20 -41 -36.5t-58 -16.5z" />
    <glyph glyph-name="uni1EAF" unicode="&#x1eaf;" horiz-adv-x="583" 
d="M437 0q-34 0 -50.5 17t-16.5 45q0 12 3 27l5 23h-3q-32 -65 -71 -94.5t-96 -29.5q-71 0 -114 52.5t-43 144.5q0 57 15.5 117.5t46.5 111t78.5 82.5t111.5 32q23 0 45 -6t40 -18t31 -30t19 -42h4l17 84h77l-90 -448h73l-13 -68h-69zM228 58q34 0 60 13.5t49 37.5
q26 26 41.5 56t23.5 68l21 105q5 24 1 45.5t-18 38t-38 26.5t-58 10q-63 0 -104 -41t-56 -116l-15 -75q-5 -28 -5 -51q0 -53 25 -85t73 -32zM344 585q-37 0 -61 13.5t-38.5 33.5t-21.5 43.5t-10 43.5l46 20l8 -22q14 -38 31.5 -56t47.5 -18q27 0 51.5 14.5t50.5 56.5l15 25
l48 -20q-10 -21 -23.5 -44.5t-33.5 -43.5t-47 -33t-63 -13zM366 697l-48 25l104 170l67 -35z" />
    <glyph glyph-name="uni1EB7" unicode="&#x1eb7;" horiz-adv-x="583" 
d="M437 0q-34 0 -50.5 17t-16.5 45q0 12 3 27l5 23h-3q-32 -65 -71 -94.5t-96 -29.5q-71 0 -114 52.5t-43 144.5q0 57 15.5 117.5t46.5 111t78.5 82.5t111.5 32q23 0 45 -6t40 -18t31 -30t19 -42h4l17 84h77l-90 -448h73l-13 -68h-69zM228 58q34 0 60 13.5t49 37.5
q26 26 41.5 56t23.5 68l21 105q5 24 1 45.5t-18 38t-38 26.5t-58 10q-63 0 -104 -41t-56 -116l-15 -75q-5 -28 -5 -51q0 -53 25 -85t73 -32zM347 596q-37 0 -61 13.5t-38.5 33.5t-21.5 43.5t-10 43.5l46 20l10 -22q16 -35 32 -53t45 -18q27 0 49 16.5t51 54.5l17 22l48 -20
q-10 -21 -23.5 -44.5t-33.5 -43.5t-47 -33t-63 -13zM229 -169q-20 0 -31 9t-11 26q0 4 0.5 8.5t2.5 12.5q9 47 56 47q20 0 31 -9t11 -26q0 -5 -3 -21q-9 -47 -56 -47z" />
    <glyph glyph-name="uni1EB1" unicode="&#x1eb1;" horiz-adv-x="583" 
d="M437 0q-34 0 -50.5 17t-16.5 45q0 12 3 27l5 23h-3q-32 -65 -71 -94.5t-96 -29.5q-71 0 -114 52.5t-43 144.5q0 57 15.5 117.5t46.5 111t78.5 82.5t111.5 32q23 0 45 -6t40 -18t31 -30t19 -42h4l17 84h77l-90 -448h73l-13 -68h-69zM228 58q34 0 60 13.5t49 37.5
q26 26 41.5 56t23.5 68l21 105q5 24 1 45.5t-18 38t-38 26.5t-58 10q-63 0 -104 -41t-56 -116l-15 -75q-5 -28 -5 -51q0 -53 25 -85t73 -32zM344 585q-37 0 -61 13.5t-38.5 33.5t-21.5 43.5t-10 43.5l46 20l8 -22q14 -38 31.5 -56t47.5 -18q27 0 51.5 14.5t50.5 56.5l15 25
l48 -20q-10 -21 -23.5 -44.5t-33.5 -43.5t-47 -33t-63 -13zM258 860l69 31l61 -170l-46 -21z" />
    <glyph glyph-name="uni1EB3" unicode="&#x1eb3;" horiz-adv-x="583" 
d="M437 0q-34 0 -50.5 17t-16.5 45q0 12 3 27l5 23h-3q-32 -65 -71 -94.5t-96 -29.5q-71 0 -114 52.5t-43 144.5q0 57 15.5 117.5t46.5 111t78.5 82.5t111.5 32q23 0 45 -6t40 -18t31 -30t19 -42h4l17 84h77l-90 -448h73l-13 -68h-69zM228 58q34 0 60 13.5t49 37.5
q26 26 41.5 56t23.5 68l21 105q5 24 1 45.5t-18 38t-38 26.5t-58 10q-63 0 -104 -41t-56 -116l-15 -75q-5 -28 -5 -51q0 -53 25 -85t73 -32zM344 585q-37 0 -61 13.5t-38.5 33.5t-21.5 43.5t-10 43.5l46 20l8 -22q14 -38 31.5 -56t47.5 -18q27 0 51.5 14.5t50.5 56.5l15 25
l48 -20q-10 -21 -23.5 -44.5t-33.5 -43.5t-47 -33t-63 -13zM289 880h107q37 0 49.5 -16t12.5 -33q0 -25 -17.5 -51t-43.5 -56l-28 -32l-41 23l69 108h-116z" />
    <glyph glyph-name="uni1EB5" unicode="&#x1eb5;" horiz-adv-x="583" 
d="M437 0q-34 0 -50.5 17t-16.5 45q0 12 3 27l5 23h-3q-32 -65 -71 -94.5t-96 -29.5q-71 0 -114 52.5t-43 144.5q0 57 15.5 117.5t46.5 111t78.5 82.5t111.5 32q23 0 45 -6t40 -18t31 -30t19 -42h4l17 84h77l-90 -448h73l-13 -68h-69zM228 58q34 0 60 13.5t49 37.5
q26 26 41.5 56t23.5 68l21 105q5 24 1 45.5t-18 38t-38 26.5t-58 10q-63 0 -104 -41t-56 -116l-15 -75q-5 -28 -5 -51q0 -53 25 -85t73 -32zM344 585q-37 0 -61 13.5t-38.5 33.5t-21.5 43.5t-10 43.5l46 20l8 -22q14 -38 31.5 -56t47.5 -18q27 0 51.5 14.5t50.5 56.5l15 25
l48 -20q-10 -21 -23.5 -44.5t-33.5 -43.5t-47 -33t-63 -13zM440 772q-26 0 -43.5 9t-31.5 17q-22 14 -37 19t-28 5q-16 0 -29.5 -6.5t-30.5 -19.5l-27 37q14 20 39 35.5t59 15.5q26 0 43.5 -9t31.5 -17q22 -14 37 -19t28 -5q16 0 30 7t31 20l26 -34q-15 -21 -39.5 -38
t-58.5 -17z" />
    <glyph glyph-name="uni1EA5" unicode="&#x1ea5;" horiz-adv-x="583" 
d="M437 0q-34 0 -50.5 17t-16.5 45q0 12 3 27l5 23h-3q-32 -65 -71 -94.5t-96 -29.5q-71 0 -114 52.5t-43 144.5q0 57 15.5 117.5t46.5 111t78.5 82.5t111.5 32q23 0 45 -6t40 -18t31 -30t19 -42h4l17 84h77l-90 -448h73l-13 -68h-69zM228 58q34 0 60 13.5t49 37.5
q26 26 41.5 56t23.5 68l21 105q5 24 1 45.5t-18 38t-38 26.5t-58 10q-63 0 -104 -41t-56 -116l-15 -75q-5 -28 -5 -51q0 -53 25 -85t73 -32zM507 706l-48 25l103 170l68 -35zM417 745l84 -132l-41 -32l-95 112l-130 -112l-41 32l129 132h94z" />
    <glyph glyph-name="uni1EAD" unicode="&#x1ead;" horiz-adv-x="583" 
d="M437 0q-34 0 -50.5 17t-16.5 45q0 12 3 27l5 23h-3q-32 -65 -71 -94.5t-96 -29.5q-71 0 -114 52.5t-43 144.5q0 57 15.5 117.5t46.5 111t78.5 82.5t111.5 32q23 0 45 -6t40 -18t31 -30t19 -42h4l17 84h77l-90 -448h73l-13 -68h-69zM228 58q34 0 60 13.5t49 37.5
q26 26 41.5 56t23.5 68l21 105q5 24 1 45.5t-18 38t-38 26.5t-58 10q-63 0 -104 -41t-56 -116l-15 -75q-5 -28 -5 -51q0 -53 25 -85t73 -32zM419 765l82 -143l-43 -31l-93 115l-139 -116l-39 32l138 143h94zM229 -169q-20 0 -31 9t-11 26q0 4 0.5 8.5t2.5 12.5q9 47 56 47
q20 0 31 -9t11 -26q0 -5 -3 -21q-9 -47 -56 -47z" />
    <glyph glyph-name="uni1EA7" unicode="&#x1ea7;" horiz-adv-x="583" 
d="M437 0q-34 0 -50.5 17t-16.5 45q0 12 3 27l5 23h-3q-32 -65 -71 -94.5t-96 -29.5q-71 0 -114 52.5t-43 144.5q0 57 15.5 117.5t46.5 111t78.5 82.5t111.5 32q23 0 45 -6t40 -18t31 -30t19 -42h4l17 84h77l-90 -448h73l-13 -68h-69zM228 58q34 0 60 13.5t49 37.5
q26 26 41.5 56t23.5 68l21 105q5 24 1 45.5t-18 38t-38 26.5t-58 10q-63 0 -104 -41t-56 -116l-15 -75q-5 -28 -5 -51q0 -53 25 -85t73 -32zM137 860l68 31l61 -170l-44 -21zM416 745l84 -132l-41 -32l-95 112l-130 -112l-41 32l129 132h94z" />
    <glyph glyph-name="uni1EA9" unicode="&#x1ea9;" horiz-adv-x="583" 
d="M437 0q-34 0 -50.5 17t-16.5 45q0 12 3 27l5 23h-3q-32 -65 -71 -94.5t-96 -29.5q-71 0 -114 52.5t-43 144.5q0 57 15.5 117.5t46.5 111t78.5 82.5t111.5 32q23 0 45 -6t40 -18t31 -30t19 -42h4l17 84h77l-90 -448h73l-13 -68h-69zM228 58q34 0 60 13.5t49 37.5
q26 26 41.5 56t23.5 68l21 105q5 24 1 45.5t-18 38t-38 26.5t-58 10q-63 0 -104 -41t-56 -116l-15 -75q-5 -28 -5 -51q0 -53 25 -85t73 -32zM423 880h107q36 0 48 -15.5t12 -33.5q0 -26 -18 -51.5t-43 -56.5l-25 -31l-40 23l70 109h-120zM416 745l84 -132l-41 -32l-95 112
l-130 -112l-41 32l129 132h94z" />
    <glyph glyph-name="uni1EAB" unicode="&#x1eab;" horiz-adv-x="583" 
d="M437 0q-34 0 -50.5 17t-16.5 45q0 12 3 27l5 23h-3q-32 -65 -71 -94.5t-96 -29.5q-71 0 -114 52.5t-43 144.5q0 57 15.5 117.5t46.5 111t78.5 82.5t111.5 32q23 0 45 -6t40 -18t31 -30t19 -42h4l17 84h77l-90 -448h73l-13 -68h-69zM228 58q34 0 60 13.5t49 37.5
q26 26 41.5 56t23.5 68l21 105q5 24 1 45.5t-18 38t-38 26.5t-58 10q-63 0 -104 -41t-56 -116l-15 -75q-5 -28 -5 -51q0 -53 25 -85t73 -32zM315 884q25 0 42 -9t31 -17q22 -14 37 -19t28 -5q16 0 30 7t31 20l27 -36q-17 -20 -41.5 -36.5t-58.5 -16.5q-25 0 -42 9t-31 17
q-22 14 -37 19t-28 5q-16 0 -30 -7t-31 -20l-27 38q17 20 41.5 35.5t58.5 15.5zM416 745l84 -132l-41 -32l-95 112l-130 -112l-41 32l129 132h94z" />
    <glyph glyph-name="aacute.alt01" horiz-adv-x="524" 
d="M162 -12q-66 0 -103 34.5t-37 90.5q0 85 57 133t177 48h106l10 51q3 15 3 28q0 42 -27 64.5t-76 22.5q-48 0 -79 -18.5t-59 -55.5l-47 45q27 42 77.5 69.5t118.5 27.5q43 0 75 -12t53 -32t31.5 -46t10.5 -55q0 -20 -4 -40l-55 -275h73l-13 -68h-63q-34 0 -50.5 17
t-16.5 45q0 14 2 22h-5q-53 -96 -159 -96zM182 55q28 0 54 7t46 20t33.5 30t17.5 38l17 87h-101q-66 0 -100.5 -20.5t-42.5 -58.5q-4 -19 -5 -26.5t-1 -12.5q0 -31 22 -47.5t60 -16.5zM310 585l-48 25l104 170l68 -36z" />
    <glyph glyph-name="abreve.alt01" horiz-adv-x="524" 
d="M162 -12q-66 0 -103 34.5t-37 90.5q0 85 57 133t177 48h106l10 51q3 15 3 28q0 42 -27 64.5t-76 22.5q-48 0 -79 -18.5t-59 -55.5l-47 45q27 42 77.5 69.5t118.5 27.5q43 0 75 -12t53 -32t31.5 -46t10.5 -55q0 -20 -4 -40l-55 -275h73l-13 -68h-63q-34 0 -50.5 17
t-16.5 45q0 14 2 22h-5q-53 -96 -159 -96zM182 55q28 0 54 7t46 20t33.5 30t17.5 38l17 87h-101q-66 0 -100.5 -20.5t-42.5 -58.5q-4 -19 -5 -26.5t-1 -12.5q0 -31 22 -47.5t60 -16.5zM299 596q-37 0 -61 13.5t-38.5 33.5t-21.5 43.5t-10 43.5l46 20l10 -22q16 -35 32 -53
t45 -18q27 0 49 16.5t51 54.5l17 22l48 -20q-10 -21 -23.5 -44.5t-33.5 -43.5t-47 -33t-63 -13z" />
    <glyph glyph-name="acircumflex.alt01" horiz-adv-x="524" 
d="M162 -12q-66 0 -103 34.5t-37 90.5q0 85 57 133t177 48h106l10 51q3 15 3 28q0 42 -27 64.5t-76 22.5q-48 0 -79 -18.5t-59 -55.5l-47 45q27 42 77.5 69.5t118.5 27.5q43 0 75 -12t53 -32t31.5 -46t10.5 -55q0 -20 -4 -40l-55 -275h73l-13 -68h-63q-34 0 -50.5 17
t-16.5 45q0 14 2 22h-5q-53 -96 -159 -96zM182 55q28 0 54 7t46 20t33.5 30t17.5 38l17 87h-101q-66 0 -100.5 -20.5t-42.5 -58.5q-4 -19 -5 -26.5t-1 -12.5q0 -31 22 -47.5t60 -16.5zM371 765l82 -143l-43 -31l-93 115l-139 -116l-39 32l138 143h94z" />
    <glyph glyph-name="adieresis.alt01" horiz-adv-x="524" 
d="M162 -12q-66 0 -103 34.5t-37 90.5q0 85 57 133t177 48h106l10 51q3 15 3 28q0 42 -27 64.5t-76 22.5q-48 0 -79 -18.5t-59 -55.5l-47 45q27 42 77.5 69.5t118.5 27.5q43 0 75 -12t53 -32t31.5 -46t10.5 -55q0 -20 -4 -40l-55 -275h73l-13 -68h-63q-34 0 -50.5 17
t-16.5 45q0 14 2 22h-5q-53 -96 -159 -96zM182 55q28 0 54 7t46 20t33.5 30t17.5 38l17 87h-101q-66 0 -100.5 -20.5t-42.5 -58.5q-4 -19 -5 -26.5t-1 -12.5q0 -31 22 -47.5t60 -16.5zM210 618q-20 0 -31 9t-11 26q0 4 0.5 8.5t2.5 12.5q9 47 56 47q20 0 31 -9t11 -26
q0 -5 -3 -21q-9 -47 -56 -47zM392 618q-20 0 -31 9t-11 26q0 4 0.5 8.5t2.5 12.5q9 47 56 47q20 0 31 -9t11 -26q0 -5 -3 -21q-9 -47 -56 -47z" />
    <glyph glyph-name="uni1EA1.alt01" horiz-adv-x="524" 
d="M162 -12q-66 0 -103 34.5t-37 90.5q0 85 57 133t177 48h106l10 51q3 15 3 28q0 42 -27 64.5t-76 22.5q-48 0 -79 -18.5t-59 -55.5l-47 45q27 42 77.5 69.5t118.5 27.5q43 0 75 -12t53 -32t31.5 -46t10.5 -55q0 -20 -4 -40l-55 -275h73l-13 -68h-63q-34 0 -50.5 17
t-16.5 45q0 14 2 22h-5q-53 -96 -159 -96zM182 55q28 0 54 7t46 20t33.5 30t17.5 38l17 87h-101q-66 0 -100.5 -20.5t-42.5 -58.5q-4 -19 -5 -26.5t-1 -12.5q0 -31 22 -47.5t60 -16.5zM211 -169q-20 0 -31 9t-11 26q0 4 0.5 8.5t2.5 12.5q9 47 56 47q20 0 31 -9t11 -26
q0 -5 -3 -21q-9 -47 -56 -47z" />
    <glyph glyph-name="agrave.alt01" horiz-adv-x="524" 
d="M162 -12q-66 0 -103 34.5t-37 90.5q0 85 57 133t177 48h106l10 51q3 15 3 28q0 42 -27 64.5t-76 22.5q-48 0 -79 -18.5t-59 -55.5l-47 45q27 42 77.5 69.5t118.5 27.5q43 0 75 -12t53 -32t31.5 -46t10.5 -55q0 -20 -4 -40l-55 -275h73l-13 -68h-63q-34 0 -50.5 17
t-16.5 45q0 14 2 22h-5q-53 -96 -159 -96zM182 55q28 0 54 7t46 20t33.5 30t17.5 38l17 87h-101q-66 0 -100.5 -20.5t-42.5 -58.5q-4 -19 -5 -26.5t-1 -12.5q0 -31 22 -47.5t60 -16.5zM198 744l68 32l61 -170l-45 -21z" />
    <glyph glyph-name="uni1EA3.alt01" horiz-adv-x="524" 
d="M162 -12q-66 0 -103 34.5t-37 90.5q0 85 57 133t177 48h106l10 51q3 15 3 28q0 42 -27 64.5t-76 22.5q-48 0 -79 -18.5t-59 -55.5l-47 45q27 42 77.5 69.5t118.5 27.5q43 0 75 -12t53 -32t31.5 -46t10.5 -55q0 -20 -4 -40l-55 -275h73l-13 -68h-63q-34 0 -50.5 17
t-16.5 45q0 14 2 22h-5q-53 -96 -159 -96zM182 55q28 0 54 7t46 20t33.5 30t17.5 38l17 87h-101q-66 0 -100.5 -20.5t-42.5 -58.5q-4 -19 -5 -26.5t-1 -12.5q0 -31 22 -47.5t60 -16.5zM233 765h107q37 0 49.5 -16t12.5 -33q0 -25 -17.5 -51t-43.5 -56l-28 -32l-41 23l69 106
h-116z" />
    <glyph glyph-name="amacron.alt01" horiz-adv-x="524" 
d="M162 -12q-66 0 -103 34.5t-37 90.5q0 85 57 133t177 48h106l10 51q3 15 3 28q0 42 -27 64.5t-76 22.5q-48 0 -79 -18.5t-59 -55.5l-47 45q27 42 77.5 69.5t118.5 27.5q43 0 75 -12t53 -32t31.5 -46t10.5 -55q0 -20 -4 -40l-55 -275h73l-13 -68h-63q-34 0 -50.5 17
t-16.5 45q0 14 2 22h-5q-53 -96 -159 -96zM182 55q28 0 54 7t46 20t33.5 30t17.5 38l17 87h-101q-66 0 -100.5 -20.5t-42.5 -58.5q-4 -19 -5 -26.5t-1 -12.5q0 -31 22 -47.5t60 -16.5zM181 705h272l-14 -66h-272z" />
    <glyph glyph-name="aogonek.alt01" horiz-adv-x="524" 
d="M162 -12q-66 0 -103 34.5t-37 90.5q0 85 57 133t177 48h106l10 51q3 15 3 28q0 42 -27 64.5t-76 22.5q-48 0 -79 -18.5t-59 -55.5l-47 45q27 42 77.5 69.5t118.5 27.5q43 0 75 -12t53 -32t31.5 -46t10.5 -55q0 -20 -4 -40l-55 -275h73l-13 -68q-39 -26 -62.5 -45.5
t-36 -34t-16 -24.5t-3.5 -18q0 -16 9.5 -23.5t23.5 -7.5q12 0 26 6.5t28 20.5l37 -44q-13 -14 -37 -25.5t-59 -11.5q-19 0 -36 4t-30.5 13t-21.5 23.5t-8 34.5q0 42 34 71.5t91 55.5l-1 5q-35 0 -51.5 17t-16.5 45q0 14 2 22h-5q-53 -96 -159 -96zM182 55q28 0 54 7t46 20
t33.5 30t17.5 38l17 87h-101q-66 0 -100.5 -20.5t-42.5 -58.5q-4 -19 -5 -26.5t-1 -12.5q0 -31 22 -47.5t60 -16.5z" />
    <glyph glyph-name="aring.alt01" horiz-adv-x="524" 
d="M162 -12q-66 0 -103 34.5t-37 90.5q0 85 57 133t177 48h106l10 51q3 15 3 28q0 42 -27 64.5t-76 22.5q-48 0 -79 -18.5t-59 -55.5l-47 45q27 42 77.5 69.5t118.5 27.5q43 0 75 -12t53 -32t31.5 -46t10.5 -55q0 -20 -4 -40l-55 -275h73l-13 -68h-63q-34 0 -50.5 17
t-16.5 45q0 14 2 22h-5q-53 -96 -159 -96zM182 55q28 0 54 7t46 20t33.5 30t17.5 38l17 87h-101q-66 0 -100.5 -20.5t-42.5 -58.5q-4 -19 -5 -26.5t-1 -12.5q0 -31 22 -47.5t60 -16.5zM299 576q-45 0 -72.5 28.5t-27.5 71.5q0 60 35 95t94 35q45 0 72.5 -28.5t27.5 -71.5
q0 -60 -35 -95t-94 -35zM305 624q52 0 63 56q4 19 4 31q0 47 -50 47q-52 0 -63 -56q-4 -19 -4 -31q0 -47 50 -47z" />
    <glyph glyph-name="aringacute.alt01" horiz-adv-x="524" 
d="M162 -12q-66 0 -103 34.5t-37 90.5q0 85 57 133t177 48h106l10 51q3 15 3 28q0 42 -27 64.5t-76 22.5q-48 0 -79 -18.5t-59 -55.5l-47 45q27 42 77.5 69.5t118.5 27.5q43 0 75 -12t53 -32t31.5 -46t10.5 -55q0 -20 -4 -40l-55 -275h73l-13 -68h-63q-34 0 -50.5 17
t-16.5 45q0 14 2 22h-5q-53 -96 -159 -96zM182 55q28 0 54 7t46 20t33.5 30t17.5 38l17 87h-101q-66 0 -100.5 -20.5t-42.5 -58.5q-4 -19 -5 -26.5t-1 -12.5q0 -31 22 -47.5t60 -16.5zM337 814l-37 27l89 116l54 -38zM296 566q-45 0 -72.5 28.5t-27.5 71.5q0 60 35 95t94 35
q45 0 72.5 -28.5t27.5 -70.5q0 -60 -35 -95.5t-94 -35.5zM302 614q52 0 63 56q4 20 4 32q0 46 -50 46q-52 0 -63 -55q-4 -20 -4 -32q0 -47 50 -47z" />
    <glyph glyph-name="atilde.alt01" horiz-adv-x="524" 
d="M162 -12q-66 0 -103 34.5t-37 90.5q0 85 57 133t177 48h106l10 51q3 15 3 28q0 42 -27 64.5t-76 22.5q-48 0 -79 -18.5t-59 -55.5l-47 45q27 42 77.5 69.5t118.5 27.5q43 0 75 -12t53 -32t31.5 -46t10.5 -55q0 -20 -4 -40l-55 -275h73l-13 -68h-63q-34 0 -50.5 17
t-16.5 45q0 14 2 22h-5q-53 -96 -159 -96zM182 55q28 0 54 7t46 20t33.5 30t17.5 38l17 87h-101q-66 0 -100.5 -20.5t-42.5 -58.5q-4 -19 -5 -26.5t-1 -12.5q0 -31 22 -47.5t60 -16.5zM373 612q-26 0 -43 8t-31 17q-22 14 -37 19t-28 5q-17 0 -30 -7t-30 -20l-28 39
q17 20 41 36.5t58 16.5q26 0 43 -8t31 -17q22 -14 37 -19t28 -5q17 0 30 7t30 20l28 -39q-17 -20 -41 -36.5t-58 -16.5z" />
    <glyph glyph-name="uni1EAF.alt01" horiz-adv-x="524" 
d="M162 -12q-66 0 -103 34.5t-37 90.5q0 85 57 133t177 48h106l10 51q3 15 3 28q0 42 -27 64.5t-76 22.5q-48 0 -79 -18.5t-59 -55.5l-47 45q27 42 77.5 69.5t118.5 27.5q43 0 75 -12t53 -32t31.5 -46t10.5 -55q0 -20 -4 -40l-55 -275h73l-13 -68h-63q-34 0 -50.5 17
t-16.5 45q0 14 2 22h-5q-53 -96 -159 -96zM182 55q28 0 54 7t46 20t33.5 30t17.5 38l17 87h-101q-66 0 -100.5 -20.5t-42.5 -58.5q-4 -19 -5 -26.5t-1 -12.5q0 -31 22 -47.5t60 -16.5zM295 585q-37 0 -61 13.5t-38.5 33.5t-21.5 43.5t-10 43.5l46 20l8 -22q14 -38 31.5 -56
t47.5 -18q27 0 51.5 14.5t50.5 56.5l15 25l48 -20q-10 -21 -23.5 -44.5t-33.5 -43.5t-47 -33t-63 -13zM317 697l-48 25l104 170l67 -35z" />
    <glyph glyph-name="uni1EB7.alt01" horiz-adv-x="524" 
d="M162 -12q-66 0 -103 34.5t-37 90.5q0 85 57 133t177 48h106l10 51q3 15 3 28q0 42 -27 64.5t-76 22.5q-48 0 -79 -18.5t-59 -55.5l-47 45q27 42 77.5 69.5t118.5 27.5q43 0 75 -12t53 -32t31.5 -46t10.5 -55q0 -20 -4 -40l-55 -275h73l-13 -68h-63q-34 0 -50.5 17
t-16.5 45q0 14 2 22h-5q-53 -96 -159 -96zM182 55q28 0 54 7t46 20t33.5 30t17.5 38l17 87h-101q-66 0 -100.5 -20.5t-42.5 -58.5q-4 -19 -5 -26.5t-1 -12.5q0 -31 22 -47.5t60 -16.5zM299 596q-37 0 -61 13.5t-38.5 33.5t-21.5 43.5t-10 43.5l46 20l10 -22q16 -35 32 -53
t45 -18q27 0 49 16.5t51 54.5l17 22l48 -20q-10 -21 -23.5 -44.5t-33.5 -43.5t-47 -33t-63 -13zM211 -169q-20 0 -31 9t-11 26q0 4 0.5 8.5t2.5 12.5q9 47 56 47q20 0 31 -9t11 -26q0 -5 -3 -21q-9 -47 -56 -47z" />
    <glyph glyph-name="uni1EB1.alt01" horiz-adv-x="524" 
d="M162 -12q-66 0 -103 34.5t-37 90.5q0 85 57 133t177 48h106l10 51q3 15 3 28q0 42 -27 64.5t-76 22.5q-48 0 -79 -18.5t-59 -55.5l-47 45q27 42 77.5 69.5t118.5 27.5q43 0 75 -12t53 -32t31.5 -46t10.5 -55q0 -20 -4 -40l-55 -275h73l-13 -68h-63q-34 0 -50.5 17
t-16.5 45q0 14 2 22h-5q-53 -96 -159 -96zM182 55q28 0 54 7t46 20t33.5 30t17.5 38l17 87h-101q-66 0 -100.5 -20.5t-42.5 -58.5q-4 -19 -5 -26.5t-1 -12.5q0 -31 22 -47.5t60 -16.5zM295 585q-37 0 -61 13.5t-38.5 33.5t-21.5 43.5t-10 43.5l46 20l8 -22q14 -38 31.5 -56
t47.5 -18q27 0 51.5 14.5t50.5 56.5l15 25l48 -20q-10 -21 -23.5 -44.5t-33.5 -43.5t-47 -33t-63 -13zM209 860l69 31l61 -170l-46 -21z" />
    <glyph glyph-name="uni1EB3.alt01" horiz-adv-x="524" 
d="M162 -12q-66 0 -103 34.5t-37 90.5q0 85 57 133t177 48h106l10 51q3 15 3 28q0 42 -27 64.5t-76 22.5q-48 0 -79 -18.5t-59 -55.5l-47 45q27 42 77.5 69.5t118.5 27.5q43 0 75 -12t53 -32t31.5 -46t10.5 -55q0 -20 -4 -40l-55 -275h73l-13 -68h-63q-34 0 -50.5 17
t-16.5 45q0 14 2 22h-5q-53 -96 -159 -96zM182 55q28 0 54 7t46 20t33.5 30t17.5 38l17 87h-101q-66 0 -100.5 -20.5t-42.5 -58.5q-4 -19 -5 -26.5t-1 -12.5q0 -31 22 -47.5t60 -16.5zM295 585q-37 0 -61 13.5t-38.5 33.5t-21.5 43.5t-10 43.5l46 20l8 -22q14 -38 31.5 -56
t47.5 -18q27 0 51.5 14.5t50.5 56.5l15 25l48 -20q-10 -21 -23.5 -44.5t-33.5 -43.5t-47 -33t-63 -13zM240 880h107q37 0 49.5 -16t12.5 -33q0 -25 -17.5 -51t-43.5 -56l-28 -32l-41 23l69 108h-116z" />
    <glyph glyph-name="uni1EB5.alt01" horiz-adv-x="524" 
d="M162 -12q-66 0 -103 34.5t-37 90.5q0 85 57 133t177 48h106l10 51q3 15 3 28q0 42 -27 64.5t-76 22.5q-48 0 -79 -18.5t-59 -55.5l-47 45q27 42 77.5 69.5t118.5 27.5q43 0 75 -12t53 -32t31.5 -46t10.5 -55q0 -20 -4 -40l-55 -275h73l-13 -68h-63q-34 0 -50.5 17
t-16.5 45q0 14 2 22h-5q-53 -96 -159 -96zM182 55q28 0 54 7t46 20t33.5 30t17.5 38l17 87h-101q-66 0 -100.5 -20.5t-42.5 -58.5q-4 -19 -5 -26.5t-1 -12.5q0 -31 22 -47.5t60 -16.5zM295 585q-37 0 -61 13.5t-38.5 33.5t-21.5 43.5t-10 43.5l46 20l8 -22q14 -38 31.5 -56
t47.5 -18q27 0 51.5 14.5t50.5 56.5l15 25l48 -20q-10 -21 -23.5 -44.5t-33.5 -43.5t-47 -33t-63 -13zM391 772q-26 0 -43.5 9t-31.5 17q-22 14 -37 19t-28 5q-16 0 -29.5 -6.5t-30.5 -19.5l-27 37q14 20 39 35.5t59 15.5q26 0 43.5 -9t31.5 -17q22 -14 37 -19t28 -5
q16 0 30 7t31 20l26 -34q-15 -21 -39.5 -38t-58.5 -17z" />
    <glyph glyph-name="uni1EA5.alt01" horiz-adv-x="524" 
d="M162 -12q-66 0 -103 34.5t-37 90.5q0 85 57 133t177 48h106l10 51q3 15 3 28q0 42 -27 64.5t-76 22.5q-48 0 -79 -18.5t-59 -55.5l-47 45q27 42 77.5 69.5t118.5 27.5q43 0 75 -12t53 -32t31.5 -46t10.5 -55q0 -20 -4 -40l-55 -275h73l-13 -68h-63q-34 0 -50.5 17
t-16.5 45q0 14 2 22h-5q-53 -96 -159 -96zM182 55q28 0 54 7t46 20t33.5 30t17.5 38l17 87h-101q-66 0 -100.5 -20.5t-42.5 -58.5q-4 -19 -5 -26.5t-1 -12.5q0 -31 22 -47.5t60 -16.5zM458 706l-48 25l103 170l68 -35zM368 745l84 -132l-41 -32l-95 112l-130 -112l-41 32
l129 132h94z" />
    <glyph glyph-name="uni1EAD.alt01" horiz-adv-x="524" 
d="M162 -12q-66 0 -103 34.5t-37 90.5q0 85 57 133t177 48h106l10 51q3 15 3 28q0 42 -27 64.5t-76 22.5q-48 0 -79 -18.5t-59 -55.5l-47 45q27 42 77.5 69.5t118.5 27.5q43 0 75 -12t53 -32t31.5 -46t10.5 -55q0 -20 -4 -40l-55 -275h73l-13 -68h-63q-34 0 -50.5 17
t-16.5 45q0 14 2 22h-5q-53 -96 -159 -96zM182 55q28 0 54 7t46 20t33.5 30t17.5 38l17 87h-101q-66 0 -100.5 -20.5t-42.5 -58.5q-4 -19 -5 -26.5t-1 -12.5q0 -31 22 -47.5t60 -16.5zM371 765l82 -143l-43 -31l-93 115l-139 -116l-39 32l138 143h94zM211 -169q-20 0 -31 9
t-11 26q0 4 0.5 8.5t2.5 12.5q9 47 56 47q20 0 31 -9t11 -26q0 -5 -3 -21q-9 -47 -56 -47z" />
    <glyph glyph-name="uni1EA7.alt01" horiz-adv-x="524" 
d="M162 -12q-66 0 -103 34.5t-37 90.5q0 85 57 133t177 48h106l10 51q3 15 3 28q0 42 -27 64.5t-76 22.5q-48 0 -79 -18.5t-59 -55.5l-47 45q27 42 77.5 69.5t118.5 27.5q43 0 75 -12t53 -32t31.5 -46t10.5 -55q0 -20 -4 -40l-55 -275h73l-13 -68h-63q-34 0 -50.5 17
t-16.5 45q0 14 2 22h-5q-53 -96 -159 -96zM182 55q28 0 54 7t46 20t33.5 30t17.5 38l17 87h-101q-66 0 -100.5 -20.5t-42.5 -58.5q-4 -19 -5 -26.5t-1 -12.5q0 -31 22 -47.5t60 -16.5zM88 860l68 31l61 -170l-44 -21zM367 745l84 -132l-41 -32l-95 112l-130 -112l-41 32
l129 132h94z" />
    <glyph glyph-name="uni1EA9.alt01" horiz-adv-x="524" 
d="M162 -12q-66 0 -103 34.5t-37 90.5q0 85 57 133t177 48h106l10 51q3 15 3 28q0 42 -27 64.5t-76 22.5q-48 0 -79 -18.5t-59 -55.5l-47 45q27 42 77.5 69.5t118.5 27.5q43 0 75 -12t53 -32t31.5 -46t10.5 -55q0 -20 -4 -40l-55 -275h73l-13 -68h-63q-34 0 -50.5 17
t-16.5 45q0 14 2 22h-5q-53 -96 -159 -96zM182 55q28 0 54 7t46 20t33.5 30t17.5 38l17 87h-101q-66 0 -100.5 -20.5t-42.5 -58.5q-4 -19 -5 -26.5t-1 -12.5q0 -31 22 -47.5t60 -16.5zM374 880h107q36 0 48 -15.5t12 -33.5q0 -26 -18 -51.5t-43 -56.5l-25 -31l-40 23l70 109
h-120zM367 745l84 -132l-41 -32l-95 112l-130 -112l-41 32l129 132h94z" />
    <glyph glyph-name="uni1EAB.alt01" horiz-adv-x="524" 
d="M162 -12q-66 0 -103 34.5t-37 90.5q0 85 57 133t177 48h106l10 51q3 15 3 28q0 42 -27 64.5t-76 22.5q-48 0 -79 -18.5t-59 -55.5l-47 45q27 42 77.5 69.5t118.5 27.5q43 0 75 -12t53 -32t31.5 -46t10.5 -55q0 -20 -4 -40l-55 -275h73l-13 -68h-63q-34 0 -50.5 17
t-16.5 45q0 14 2 22h-5q-53 -96 -159 -96zM182 55q28 0 54 7t46 20t33.5 30t17.5 38l17 87h-101q-66 0 -100.5 -20.5t-42.5 -58.5q-4 -19 -5 -26.5t-1 -12.5q0 -31 22 -47.5t60 -16.5zM266 884q25 0 42 -9t31 -17q22 -14 37 -19t28 -5q16 0 30 7t31 20l27 -36
q-17 -20 -41.5 -36.5t-58.5 -16.5q-25 0 -42 9t-31 17q-22 14 -37 19t-28 5q-16 0 -30 -7t-31 -20l-27 38q17 20 41.5 35.5t58.5 15.5zM367 745l84 -132l-41 -32l-95 112l-130 -112l-41 32l129 132h94z" />
    <glyph glyph-name="ae" unicode="&#xe6;" horiz-adv-x="806" 
d="M185 56q27 0 51.5 7t45 19.5t34 30t17.5 37.5l16 79l-99 -4q-58 -2 -97 -15t-47 -52q-4 -19 -5 -26.5t-1 -12.5q0 -30 22 -46.5t63 -16.5zM611 462q-67 0 -112 -41.5t-59 -110.5l-5 -24q82 3 133.5 10t81 19t40.5 29t11 40q0 24 -8 39t-20.5 24t-29 12t-32.5 3zM168 -12
q-69 0 -107.5 34.5t-38.5 99.5q0 75 55.5 115t176.5 45l107 4l11 59q3 15 3 27q0 42 -27 64t-78 22q-46 0 -77 -18.5t-58 -54.5l-48 46q27 42 77.5 69.5t116.5 27.5q62 0 97 -26t49 -69h7q33 45 78.5 70t102.5 25q31 0 60.5 -8t53 -25t37.5 -43t14 -62q0 -87 -89.5 -124
t-264.5 -38q-2 -11 -3.5 -25.5t-1.5 -28.5q0 -50 31.5 -83.5t91.5 -33.5q49 0 88.5 22.5t69.5 59.5l50 -45q-48 -59 -102.5 -82.5t-111.5 -23.5q-67 0 -111 27.5t-64 78.5h-7q-29 -53 -78.5 -79.5t-109.5 -26.5z" />
    <glyph glyph-name="aeacute" unicode="&#x1fd;" horiz-adv-x="806" 
d="M185 56q27 0 51.5 7t45 19.5t34 30t17.5 37.5l16 79l-99 -4q-58 -2 -97 -15t-47 -52q-4 -19 -5 -26.5t-1 -12.5q0 -30 22 -46.5t63 -16.5zM611 462q-67 0 -112 -41.5t-59 -110.5l-5 -24q82 3 133.5 10t81 19t40.5 29t11 40q0 24 -8 39t-20.5 24t-29 12t-32.5 3zM168 -12
q-69 0 -107.5 34.5t-38.5 99.5q0 75 55.5 115t176.5 45l107 4l11 59q3 15 3 27q0 42 -27 64t-78 22q-46 0 -77 -18.5t-58 -54.5l-48 46q27 42 77.5 69.5t116.5 27.5q62 0 97 -26t49 -69h7q33 45 78.5 70t102.5 25q31 0 60.5 -8t53 -25t37.5 -43t14 -62q0 -87 -89.5 -124
t-264.5 -38q-2 -11 -3.5 -25.5t-1.5 -28.5q0 -50 31.5 -83.5t91.5 -33.5q49 0 88.5 22.5t69.5 59.5l50 -45q-48 -59 -102.5 -82.5t-111.5 -23.5q-67 0 -111 27.5t-64 78.5h-7q-29 -53 -78.5 -79.5t-109.5 -26.5zM474 585l-48 25l104 170l68 -36z" />
    <glyph glyph-name="cacute" unicode="&#x107;" horiz-adv-x="488" 
d="M236 -12q-44 0 -78.5 15t-58.5 43t-37 66.5t-13 86.5q0 67 17.5 127t50.5 105t79.5 71t105.5 26q69 0 112.5 -34t58.5 -87l-64 -29q-26 81 -109 81q-62 0 -100.5 -39t-52.5 -108l-17 -84q-2 -11 -3 -23.5t-1 -21.5q0 -56 29 -91t89 -35q38 0 69.5 21.5t62.5 79.5l61 -30
q-32 -67 -83 -103.5t-118 -36.5zM333 585l-48 25l104 170l68 -36z" />
    <glyph glyph-name="ccaron" unicode="&#x10d;" horiz-adv-x="488" 
d="M236 -12q-44 0 -78.5 15t-58.5 43t-37 66.5t-13 86.5q0 67 17.5 127t50.5 105t79.5 71t105.5 26q69 0 112.5 -34t58.5 -87l-64 -29q-26 81 -109 81q-62 0 -100.5 -39t-52.5 -108l-17 -84q-2 -11 -3 -23.5t-1 -21.5q0 -56 29 -91t89 -35q38 0 69.5 21.5t62.5 79.5l61 -30
q-32 -67 -83 -103.5t-118 -36.5zM275 599l-82 143l44 31l90 -116l140 117l41 -32l-138 -143h-95z" />
    <glyph glyph-name="ccedilla" unicode="&#xe7;" horiz-adv-x="488" 
d="M302 528q69 0 112.5 -34t58.5 -87l-64 -29q-26 81 -109 81q-62 0 -100.5 -39t-52.5 -108l-17 -84q-2 -11 -3 -23.5t-1 -21.5q0 -56 29 -91t89 -35q38 0 69.5 21.5t62.5 79.5l61 -30q-30 -63 -76.5 -98.5t-106.5 -40.5l-16 -51l2 -2l12.5 2.5t18.5 1.5q25 0 42 -12t17 -44
q0 -42 -30 -66.5t-78 -24.5q-38 0 -64 11t-37 26l40 41q7 -10 22 -17.5t37 -7.5t34 10t12 26t-11.5 25.5t-43.5 13.5l-26 3l20 66q-74 10 -115 65.5t-41 143.5q0 67 17.5 127t50.5 105t79.5 71t105.5 26z" />
    <glyph glyph-name="ccircumflex" unicode="&#x109;" horiz-adv-x="488" 
d="M236 -12q-44 0 -78.5 15t-58.5 43t-37 66.5t-13 86.5q0 67 17.5 127t50.5 105t79.5 71t105.5 26q69 0 112.5 -34t58.5 -87l-64 -29q-26 81 -109 81q-62 0 -100.5 -39t-52.5 -108l-17 -84q-2 -11 -3 -23.5t-1 -21.5q0 -56 29 -91t89 -35q38 0 69.5 21.5t62.5 79.5l61 -30
q-32 -67 -83 -103.5t-118 -36.5zM394 765l82 -143l-43 -31l-93 115l-139 -116l-39 32l138 143h94z" />
    <glyph glyph-name="cdotaccent" unicode="&#x10b;" horiz-adv-x="488" 
d="M236 -12q-44 0 -78.5 15t-58.5 43t-37 66.5t-13 86.5q0 67 17.5 127t50.5 105t79.5 71t105.5 26q69 0 112.5 -34t58.5 -87l-64 -29q-26 81 -109 81q-62 0 -100.5 -39t-52.5 -108l-17 -84q-2 -11 -3 -23.5t-1 -21.5q0 -56 29 -91t89 -35q38 0 69.5 21.5t62.5 79.5l61 -30
q-32 -67 -83 -103.5t-118 -36.5zM326 616q-20 0 -31 9t-11 26q0 4 0.5 8.5t2.5 12.5q9 47 56 47q20 0 31 -9t11 -26q0 -5 -3 -21q-9 -47 -56 -47z" />
    <glyph glyph-name="dcaron" unicode="&#x10f;" horiz-adv-x="587" 
d="M437 0q-34 0 -50.5 17t-16.5 45q0 12 3 27l5 23h-3q-32 -65 -71 -94.5t-96 -29.5q-71 0 -114 52.5t-43 144.5q0 57 15.5 117.5t46.5 111t78.5 82.5t111.5 32q23 0 45 -6t40 -18t31 -30t19 -42h4l62 308h77l-135 -672h73l-13 -68h-69zM229 58q34 0 59.5 14t48.5 37
q25 25 41 55t24 69l21 105q5 24 1 45.5t-18 38t-38 26.5t-58 10q-63 0 -104 -41t-56 -116l-15 -75q-5 -28 -5 -51q0 -51 23.5 -84t75.5 -33zM664 555h-53l35 185h93z" />
    <glyph glyph-name="dcroat" unicode="&#x111;" horiz-adv-x="586" 
d="M437 0q-34 0 -50.5 17t-16.5 45q0 12 3 27l5 23h-3q-32 -65 -71 -94.5t-96 -29.5q-71 0 -114 52.5t-43 144.5q0 57 15.5 117.5t46.5 111t78.5 82.5t111.5 32q23 0 45 -6t40 -18t31 -30t19 -42h4l35 177h-146l12 60h146l15 71h77l-15 -71h60l-12 -60h-60l-108 -541h73
l-13 -68h-69zM229 58q34 0 59.5 14t48.5 37q25 25 41 55t24 69l21 105q5 24 1 45.5t-18 38t-38 26.5t-58 10q-63 0 -104 -41t-56 -116l-15 -75q-5 -28 -5 -51q0 -51 23.5 -84t75.5 -33z" />
    <glyph glyph-name="eth" unicode="&#xf0;" horiz-adv-x="563" 
d="M416 652q19 -25 36 -55t30 -67t21 -80.5t8 -92.5q0 -84 -20 -152t-56 -116t-86.5 -74.5t-112.5 -26.5q-44 0 -78.5 15.5t-58.5 43t-37 66t-13 85.5q0 61 18.5 116.5t51 97.5t77 67t97.5 25t88 -24t49 -67l5 2q-5 54 -24 105t-52 96l-89 -57l-26 44l81 53q-44 47 -109 84
h114q11 -10 24 -22t27 -26l93 61l28 -46zM249 58q60 0 102 42.5t56 110.5l13 65q2 11 4 21.5t2 21.5q0 54 -33.5 84.5t-91.5 30.5q-59 0 -101.5 -42.5t-56.5 -109.5l-13 -65q-2 -11 -4 -21.5t-2 -21.5q0 -55 33.5 -85.5t91.5 -30.5z" />
    <glyph glyph-name="eacute" unicode="&#xe9;" horiz-adv-x="511" 
d="M244 -12q-93 0 -144 55t-51 161q0 64 19.5 122.5t55 103.5t85 71.5t110.5 26.5q33 0 63 -8.5t53 -25.5t36.5 -43t13.5 -61q0 -85 -87.5 -126t-268.5 -43q-2 -11 -2.5 -22.5t-0.5 -19.5q0 -55 31.5 -88.5t91.5 -33.5q49 0 88.5 22.5t69.5 59.5l50 -45
q-48 -59 -102.5 -82.5t-110.5 -23.5zM311 462q-30 0 -57.5 -11t-49 -30.5t-37 -48t-22.5 -62.5l-6 -29q83 3 135 10.5t81.5 21t40 32.5t10.5 46q0 21 -8 34.5t-21 21.5t-30.5 11.5t-35.5 3.5zM348 585l-48 25l104 170l68 -36z" />
    <glyph glyph-name="ebreve" unicode="&#x115;" horiz-adv-x="511" 
d="M244 -12q-93 0 -144 55t-51 161q0 64 19.5 122.5t55 103.5t85 71.5t110.5 26.5q33 0 63 -8.5t53 -25.5t36.5 -43t13.5 -61q0 -85 -87.5 -126t-268.5 -43q-2 -11 -2.5 -22.5t-0.5 -19.5q0 -55 31.5 -88.5t91.5 -33.5q49 0 88.5 22.5t69.5 59.5l50 -45
q-48 -59 -102.5 -82.5t-110.5 -23.5zM311 462q-30 0 -57.5 -11t-49 -30.5t-37 -48t-22.5 -62.5l-6 -29q83 3 135 10.5t81.5 21t40 32.5t10.5 46q0 21 -8 34.5t-21 21.5t-30.5 11.5t-35.5 3.5zM337 596q-37 0 -61 13.5t-38.5 33.5t-21.5 43.5t-10 43.5l46 20l10 -22
q16 -35 32 -53t45 -18q27 0 49 16.5t51 54.5l17 22l48 -20q-10 -21 -23.5 -44.5t-33.5 -43.5t-47 -33t-63 -13z" />
    <glyph glyph-name="ecaron" unicode="&#x11b;" horiz-adv-x="511" 
d="M244 -12q-93 0 -144 55t-51 161q0 64 19.5 122.5t55 103.5t85 71.5t110.5 26.5q33 0 63 -8.5t53 -25.5t36.5 -43t13.5 -61q0 -85 -87.5 -126t-268.5 -43q-2 -11 -2.5 -22.5t-0.5 -19.5q0 -55 31.5 -88.5t91.5 -33.5q49 0 88.5 22.5t69.5 59.5l50 -45
q-48 -59 -102.5 -82.5t-110.5 -23.5zM311 462q-30 0 -57.5 -11t-49 -30.5t-37 -48t-22.5 -62.5l-6 -29q83 3 135 10.5t81.5 21t40 32.5t10.5 46q0 21 -8 34.5t-21 21.5t-30.5 11.5t-35.5 3.5zM290 599l-82 143l44 31l90 -116l140 117l41 -32l-138 -143h-95z" />
    <glyph glyph-name="ecircumflex" unicode="&#xea;" horiz-adv-x="511" 
d="M244 -12q-93 0 -144 55t-51 161q0 64 19.5 122.5t55 103.5t85 71.5t110.5 26.5q33 0 63 -8.5t53 -25.5t36.5 -43t13.5 -61q0 -85 -87.5 -126t-268.5 -43q-2 -11 -2.5 -22.5t-0.5 -19.5q0 -55 31.5 -88.5t91.5 -33.5q49 0 88.5 22.5t69.5 59.5l50 -45
q-48 -59 -102.5 -82.5t-110.5 -23.5zM311 462q-30 0 -57.5 -11t-49 -30.5t-37 -48t-22.5 -62.5l-6 -29q83 3 135 10.5t81.5 21t40 32.5t10.5 46q0 21 -8 34.5t-21 21.5t-30.5 11.5t-35.5 3.5zM409 765l82 -143l-43 -31l-93 115l-139 -116l-39 32l138 143h94z" />
    <glyph glyph-name="edieresis" unicode="&#xeb;" horiz-adv-x="511" 
d="M244 -12q-93 0 -144 55t-51 161q0 64 19.5 122.5t55 103.5t85 71.5t110.5 26.5q33 0 63 -8.5t53 -25.5t36.5 -43t13.5 -61q0 -85 -87.5 -126t-268.5 -43q-2 -11 -2.5 -22.5t-0.5 -19.5q0 -55 31.5 -88.5t91.5 -33.5q49 0 88.5 22.5t69.5 59.5l50 -45
q-48 -59 -102.5 -82.5t-110.5 -23.5zM311 462q-30 0 -57.5 -11t-49 -30.5t-37 -48t-22.5 -62.5l-6 -29q83 3 135 10.5t81.5 21t40 32.5t10.5 46q0 21 -8 34.5t-21 21.5t-30.5 11.5t-35.5 3.5zM248 618q-20 0 -31 9t-11 26q0 4 0.5 8.5t2.5 12.5q9 47 56 47q20 0 31 -9
t11 -26q0 -5 -3 -21q-9 -47 -56 -47zM430 618q-20 0 -31 9t-11 26q0 4 0.5 8.5t2.5 12.5q9 47 56 47q20 0 31 -9t11 -26q0 -5 -3 -21q-9 -47 -56 -47z" />
    <glyph glyph-name="edotaccent" unicode="&#x117;" horiz-adv-x="511" 
d="M244 -12q-93 0 -144 55t-51 161q0 64 19.5 122.5t55 103.5t85 71.5t110.5 26.5q33 0 63 -8.5t53 -25.5t36.5 -43t13.5 -61q0 -85 -87.5 -126t-268.5 -43q-2 -11 -2.5 -22.5t-0.5 -19.5q0 -55 31.5 -88.5t91.5 -33.5q49 0 88.5 22.5t69.5 59.5l50 -45
q-48 -59 -102.5 -82.5t-110.5 -23.5zM311 462q-30 0 -57.5 -11t-49 -30.5t-37 -48t-22.5 -62.5l-6 -29q83 3 135 10.5t81.5 21t40 32.5t10.5 46q0 21 -8 34.5t-21 21.5t-30.5 11.5t-35.5 3.5zM341 616q-20 0 -31 9t-11 26q0 4 0.5 8.5t2.5 12.5q9 47 56 47q20 0 31 -9
t11 -26q0 -5 -3 -21q-9 -47 -56 -47z" />
    <glyph glyph-name="uni1EB9" unicode="&#x1eb9;" horiz-adv-x="511" 
d="M244 -12q-93 0 -144 55t-51 161q0 64 19.5 122.5t55 103.5t85 71.5t110.5 26.5q33 0 63 -8.5t53 -25.5t36.5 -43t13.5 -61q0 -85 -87.5 -126t-268.5 -43q-2 -11 -2.5 -22.5t-0.5 -19.5q0 -55 31.5 -88.5t91.5 -33.5q49 0 88.5 22.5t69.5 59.5l50 -45
q-48 -59 -102.5 -82.5t-110.5 -23.5zM311 462q-30 0 -57.5 -11t-49 -30.5t-37 -48t-22.5 -62.5l-6 -29q83 3 135 10.5t81.5 21t40 32.5t10.5 46q0 21 -8 34.5t-21 21.5t-30.5 11.5t-35.5 3.5zM211 -169q-20 0 -31 9t-11 26q0 4 0.5 8.5t2.5 12.5q9 47 56 47q20 0 31 -9
t11 -26q0 -5 -3 -21q-9 -47 -56 -47z" />
    <glyph glyph-name="egrave" unicode="&#xe8;" horiz-adv-x="511" 
d="M244 -12q-93 0 -144 55t-51 161q0 64 19.5 122.5t55 103.5t85 71.5t110.5 26.5q33 0 63 -8.5t53 -25.5t36.5 -43t13.5 -61q0 -85 -87.5 -126t-268.5 -43q-2 -11 -2.5 -22.5t-0.5 -19.5q0 -55 31.5 -88.5t91.5 -33.5q49 0 88.5 22.5t69.5 59.5l50 -45
q-48 -59 -102.5 -82.5t-110.5 -23.5zM311 462q-30 0 -57.5 -11t-49 -30.5t-37 -48t-22.5 -62.5l-6 -29q83 3 135 10.5t81.5 21t40 32.5t10.5 46q0 21 -8 34.5t-21 21.5t-30.5 11.5t-35.5 3.5zM236 744l68 32l61 -170l-45 -21z" />
    <glyph glyph-name="uni1EBB" unicode="&#x1ebb;" horiz-adv-x="511" 
d="M244 -12q-93 0 -144 55t-51 161q0 64 19.5 122.5t55 103.5t85 71.5t110.5 26.5q33 0 63 -8.5t53 -25.5t36.5 -43t13.5 -61q0 -85 -87.5 -126t-268.5 -43q-2 -11 -2.5 -22.5t-0.5 -19.5q0 -55 31.5 -88.5t91.5 -33.5q49 0 88.5 22.5t69.5 59.5l50 -45
q-48 -59 -102.5 -82.5t-110.5 -23.5zM311 462q-30 0 -57.5 -11t-49 -30.5t-37 -48t-22.5 -62.5l-6 -29q83 3 135 10.5t81.5 21t40 32.5t10.5 46q0 21 -8 34.5t-21 21.5t-30.5 11.5t-35.5 3.5zM272 765h107q37 0 49.5 -16t12.5 -33q0 -25 -17.5 -51t-43.5 -56l-28 -32l-41 23
l69 106h-116z" />
    <glyph glyph-name="emacron" unicode="&#x113;" horiz-adv-x="511" 
d="M244 -12q-93 0 -144 55t-51 161q0 64 19.5 122.5t55 103.5t85 71.5t110.5 26.5q33 0 63 -8.5t53 -25.5t36.5 -43t13.5 -61q0 -85 -87.5 -126t-268.5 -43q-2 -11 -2.5 -22.5t-0.5 -19.5q0 -55 31.5 -88.5t91.5 -33.5q49 0 88.5 22.5t69.5 59.5l50 -45
q-48 -59 -102.5 -82.5t-110.5 -23.5zM311 462q-30 0 -57.5 -11t-49 -30.5t-37 -48t-22.5 -62.5l-6 -29q83 3 135 10.5t81.5 21t40 32.5t10.5 46q0 21 -8 34.5t-21 21.5t-30.5 11.5t-35.5 3.5zM219 705h272l-14 -66h-272z" />
    <glyph glyph-name="eogonek" unicode="&#x119;" horiz-adv-x="511" 
d="M232 -207q-19 0 -36 4t-30.5 13t-21.5 23.5t-8 34.5q0 38 29 66t80 51l-1 3q-93 0 -144 55t-51 161q0 64 19.5 122.5t55 103.5t85 71.5t110.5 26.5q33 0 63 -8.5t53 -25.5t36.5 -43t13.5 -61q0 -85 -87.5 -126t-268.5 -43q-2 -11 -2.5 -22.5t-0.5 -19.5q0 -55 31.5 -88.5
t91.5 -33.5q49 0 88.5 22.5t69.5 59.5l50 -45q-15 -20 -32.5 -34t-35.5 -25.5t-36.5 -21t-36.5 -20.5q-22 -13 -42 -26.5t-35.5 -27.5t-25 -29.5t-9.5 -31.5t9.5 -23.5t23.5 -7.5q12 0 26 6.5t28 20.5l37 -44q-13 -14 -37 -25.5t-59 -11.5zM311 462q-30 0 -57.5 -11
t-49 -30.5t-37 -48t-22.5 -62.5l-6 -29q83 3 135 10.5t81.5 21t40 32.5t10.5 46q0 21 -8 34.5t-21 21.5t-30.5 11.5t-35.5 3.5z" />
    <glyph glyph-name="uni1EBD" unicode="&#x1ebd;" horiz-adv-x="511" 
d="M244 -12q-93 0 -144 55t-51 161q0 64 19.5 122.5t55 103.5t85 71.5t110.5 26.5q33 0 63 -8.5t53 -25.5t36.5 -43t13.5 -61q0 -85 -87.5 -126t-268.5 -43q-2 -11 -2.5 -22.5t-0.5 -19.5q0 -55 31.5 -88.5t91.5 -33.5q49 0 88.5 22.5t69.5 59.5l50 -45
q-48 -59 -102.5 -82.5t-110.5 -23.5zM311 462q-30 0 -57.5 -11t-49 -30.5t-37 -48t-22.5 -62.5l-6 -29q83 3 135 10.5t81.5 21t40 32.5t10.5 46q0 21 -8 34.5t-21 21.5t-30.5 11.5t-35.5 3.5zM411 612q-26 0 -43 8t-31 17q-22 14 -37 19t-28 5q-17 0 -30 -7t-30 -20l-28 39
q17 20 41 36.5t58 16.5q26 0 43 -8t31 -17q22 -14 37 -19t28 -5q17 0 30 7t30 20l28 -39q-17 -20 -41 -36.5t-58 -16.5z" />
    <glyph glyph-name="uni1EBF" unicode="&#x1ebf;" horiz-adv-x="511" 
d="M244 -12q-93 0 -144 55t-51 161q0 64 19.5 122.5t55 103.5t85 71.5t110.5 26.5q33 0 63 -8.5t53 -25.5t36.5 -43t13.5 -61q0 -85 -87.5 -126t-268.5 -43q-2 -11 -2.5 -22.5t-0.5 -19.5q0 -55 31.5 -88.5t91.5 -33.5q49 0 88.5 22.5t69.5 59.5l50 -45
q-48 -59 -102.5 -82.5t-110.5 -23.5zM311 462q-30 0 -57.5 -11t-49 -30.5t-37 -48t-22.5 -62.5l-6 -29q83 3 135 10.5t81.5 21t40 32.5t10.5 46q0 21 -8 34.5t-21 21.5t-30.5 11.5t-35.5 3.5zM497 706l-48 25l103 170l68 -35zM407 745l84 -132l-41 -32l-95 112l-130 -112
l-41 32l129 132h94z" />
    <glyph glyph-name="uni1EC7" unicode="&#x1ec7;" horiz-adv-x="511" 
d="M244 -12q-93 0 -144 55t-51 161q0 64 19.5 122.5t55 103.5t85 71.5t110.5 26.5q33 0 63 -8.5t53 -25.5t36.5 -43t13.5 -61q0 -85 -87.5 -126t-268.5 -43q-2 -11 -2.5 -22.5t-0.5 -19.5q0 -55 31.5 -88.5t91.5 -33.5q49 0 88.5 22.5t69.5 59.5l50 -45
q-48 -59 -102.5 -82.5t-110.5 -23.5zM311 462q-30 0 -57.5 -11t-49 -30.5t-37 -48t-22.5 -62.5l-6 -29q83 3 135 10.5t81.5 21t40 32.5t10.5 46q0 21 -8 34.5t-21 21.5t-30.5 11.5t-35.5 3.5zM409 765l82 -143l-43 -31l-93 115l-139 -116l-39 32l138 143h94zM211 -169
q-20 0 -31 9t-11 26q0 4 0.5 8.5t2.5 12.5q9 47 56 47q20 0 31 -9t11 -26q0 -5 -3 -21q-9 -47 -56 -47z" />
    <glyph glyph-name="uni1EC1" unicode="&#x1ec1;" horiz-adv-x="511" 
d="M244 -12q-93 0 -144 55t-51 161q0 64 19.5 122.5t55 103.5t85 71.5t110.5 26.5q33 0 63 -8.5t53 -25.5t36.5 -43t13.5 -61q0 -85 -87.5 -126t-268.5 -43q-2 -11 -2.5 -22.5t-0.5 -19.5q0 -55 31.5 -88.5t91.5 -33.5q49 0 88.5 22.5t69.5 59.5l50 -45
q-48 -59 -102.5 -82.5t-110.5 -23.5zM311 462q-30 0 -57.5 -11t-49 -30.5t-37 -48t-22.5 -62.5l-6 -29q83 3 135 10.5t81.5 21t40 32.5t10.5 46q0 21 -8 34.5t-21 21.5t-30.5 11.5t-35.5 3.5zM127 860l68 31l61 -170l-44 -21zM406 745l84 -132l-41 -32l-95 112l-130 -112
l-41 32l129 132h94z" />
    <glyph glyph-name="uni1EC3" unicode="&#x1ec3;" horiz-adv-x="511" 
d="M244 -12q-93 0 -144 55t-51 161q0 64 19.5 122.5t55 103.5t85 71.5t110.5 26.5q33 0 63 -8.5t53 -25.5t36.5 -43t13.5 -61q0 -85 -87.5 -126t-268.5 -43q-2 -11 -2.5 -22.5t-0.5 -19.5q0 -55 31.5 -88.5t91.5 -33.5q49 0 88.5 22.5t69.5 59.5l50 -45
q-48 -59 -102.5 -82.5t-110.5 -23.5zM311 462q-30 0 -57.5 -11t-49 -30.5t-37 -48t-22.5 -62.5l-6 -29q83 3 135 10.5t81.5 21t40 32.5t10.5 46q0 21 -8 34.5t-21 21.5t-30.5 11.5t-35.5 3.5zM413 880h107q36 0 48 -15.5t12 -33.5q0 -26 -18 -51.5t-43 -56.5l-25 -31l-40 23
l70 109h-120zM406 745l84 -132l-41 -32l-95 112l-130 -112l-41 32l129 132h94z" />
    <glyph glyph-name="uni1EC5" unicode="&#x1ec5;" horiz-adv-x="511" 
d="M244 -12q-93 0 -144 55t-51 161q0 64 19.5 122.5t55 103.5t85 71.5t110.5 26.5q33 0 63 -8.5t53 -25.5t36.5 -43t13.5 -61q0 -85 -87.5 -126t-268.5 -43q-2 -11 -2.5 -22.5t-0.5 -19.5q0 -55 31.5 -88.5t91.5 -33.5q49 0 88.5 22.5t69.5 59.5l50 -45
q-48 -59 -102.5 -82.5t-110.5 -23.5zM311 462q-30 0 -57.5 -11t-49 -30.5t-37 -48t-22.5 -62.5l-6 -29q83 3 135 10.5t81.5 21t40 32.5t10.5 46q0 21 -8 34.5t-21 21.5t-30.5 11.5t-35.5 3.5zM305 884q25 0 42 -9t31 -17q22 -14 37 -19t28 -5q16 0 30 7t31 20l27 -36
q-17 -20 -41.5 -36.5t-58.5 -16.5q-25 0 -42 9t-31 17q-22 14 -37 19t-28 5q-16 0 -30 -7t-31 -20l-27 38q17 20 41.5 35.5t58.5 15.5zM406 745l84 -132l-41 -32l-95 112l-130 -112l-41 32l129 132h94z" />
    <glyph glyph-name="uni0259" unicode="&#x259;" horiz-adv-x="511" 
d="M192 -12q-33 0 -63 8.5t-53 25.5t-36.5 43t-13.5 61q0 85 87.5 126t268.5 43q2 11 2.5 22.5t0.5 19.5q0 55 -31.5 88.5t-91.5 33.5q-49 0 -88.5 -22.5t-69.5 -59.5l-50 45q48 59 102.5 82.5t110.5 23.5q93 0 144 -55t51 -161q0 -64 -19.5 -122.5t-55 -103.5t-85 -71.5
t-110.5 -26.5zM200 54q30 0 57 11t49 30.5t37.5 47.5t22.5 63l6 29q-83 -3 -135 -10.5t-81.5 -21t-40 -32.5t-10.5 -46q0 -21 8 -34.5t21 -21.5t30.5 -11.5t35.5 -3.5z" />
    <glyph glyph-name="gbreve" unicode="&#x11f;" horiz-adv-x="510" 
d="M319 596q-37 0 -61 13.5t-38.5 33.5t-21.5 43.5t-10 43.5l46 20l10 -22q16 -35 32 -53t45 -18q27 0 49 16.5t51 54.5l17 22l48 -20q-10 -21 -23.5 -44.5t-33.5 -43.5t-47 -33t-63 -13zM462 -36q0 -35 -13 -66.5t-44.5 -56t-84.5 -39t-134 -14.5q-95 0 -148 28.5t-53 85.5
q0 40 25.5 69.5t76.5 44.5l2 8q-42 19 -42 63q0 37 25.5 62t78.5 36l1 7q-37 18 -53.5 51t-16.5 79q0 44 16 82t45 65.5t69 43t88 15.5q21 0 39.5 -3.5t34.5 -8.5h154l-11 -63h-72q19 -35 19 -75q0 -44 -16.5 -81.5t-46 -65t-70.5 -43t-89 -15.5q-12 0 -20.5 0.5t-19.5 2.5
q-33 -6 -57.5 -19.5t-24.5 -39.5q0 -21 16 -29.5t52 -8.5h115q86 0 122.5 -30t36.5 -85zM253 234q54 0 84 26t39 71q5 27 7 37t2 20q0 35 -23 56.5t-71 21.5q-54 0 -84 -26.5t-39 -71.5q-5 -27 -7 -37t-2 -20q0 -35 23 -56t71 -21zM382 -54q0 29 -18 44.5t-66 15.5h-177
q-59 -26 -59 -82q0 -15 5.5 -28.5t18 -23.5t33 -15.5t51.5 -5.5h48q85 0 124.5 26.5t39.5 68.5z" />
    <glyph glyph-name="gcircumflex" unicode="&#x11d;" horiz-adv-x="510" 
d="M391 765l82 -143l-43 -31l-93 115l-139 -116l-39 32l138 143h94zM462 -36q0 -35 -13 -66.5t-44.5 -56t-84.5 -39t-134 -14.5q-95 0 -148 28.5t-53 85.5q0 40 25.5 69.5t76.5 44.5l2 8q-42 19 -42 63q0 37 25.5 62t78.5 36l1 7q-37 18 -53.5 51t-16.5 79q0 44 16 82
t45 65.5t69 43t88 15.5q21 0 39.5 -3.5t34.5 -8.5h154l-11 -63h-72q19 -35 19 -75q0 -44 -16.5 -81.5t-46 -65t-70.5 -43t-89 -15.5q-12 0 -20.5 0.5t-19.5 2.5q-33 -6 -57.5 -19.5t-24.5 -39.5q0 -21 16 -29.5t52 -8.5h115q86 0 122.5 -30t36.5 -85zM253 234q54 0 84 26
t39 71q5 27 7 37t2 20q0 35 -23 56.5t-71 21.5q-54 0 -84 -26.5t-39 -71.5q-5 -27 -7 -37t-2 -20q0 -35 23 -56t71 -21zM382 -54q0 29 -18 44.5t-66 15.5h-177q-59 -26 -59 -82q0 -15 5.5 -28.5t18 -23.5t33 -15.5t51.5 -5.5h48q85 0 124.5 26.5t39.5 68.5z" />
    <glyph glyph-name="gcommaaccent" unicode="&#x123;" horiz-adv-x="510" 
d="M462 -36q0 -35 -13 -66.5t-44.5 -56t-84.5 -39t-134 -14.5q-95 0 -148 28.5t-53 85.5q0 40 25.5 69.5t76.5 44.5l2 8q-42 19 -42 63q0 37 25.5 62t78.5 36l1 7q-37 18 -53.5 51t-16.5 79q0 44 16 82t45 65.5t69 43t88 15.5q21 0 39.5 -3.5t34.5 -8.5h154l-11 -63h-72
q19 -35 19 -75q0 -44 -16.5 -81.5t-46 -65t-70.5 -43t-89 -15.5q-12 0 -20.5 0.5t-19.5 2.5q-33 -6 -57.5 -19.5t-24.5 -39.5q0 -21 16 -29.5t52 -8.5h115q86 0 122.5 -30t36.5 -85zM253 234q54 0 84 26t39 71q5 27 7 37t2 20q0 35 -23 56.5t-71 21.5q-54 0 -84 -26.5
t-39 -71.5q-5 -27 -7 -37t-2 -20q0 -35 23 -56t71 -21zM382 -54q0 29 -18 44.5t-66 15.5h-177q-59 -26 -59 -82q0 -15 5.5 -28.5t18 -23.5t33 -15.5t51.5 -5.5h48q85 0 124.5 26.5t39.5 68.5zM315 595q-22 0 -32 9.5t-10 26.5q0 4 0.5 8.5t2.5 15.5q7 34 26 65.5t44 53.5h56
q-23 -23 -34.5 -39t-21.5 -37q28 -5 28 -33q0 -3 -0.5 -8t-2.5 -16q-9 -46 -56 -46z" />
    <glyph glyph-name="gdotaccent" unicode="&#x121;" horiz-adv-x="510" 
d="M462 -36q0 -35 -13 -66.5t-44.5 -56t-84.5 -39t-134 -14.5q-95 0 -148 28.5t-53 85.5q0 40 25.5 69.5t76.5 44.5l2 8q-42 19 -42 63q0 37 25.5 62t78.5 36l1 7q-37 18 -53.5 51t-16.5 79q0 44 16 82t45 65.5t69 43t88 15.5q21 0 39.5 -3.5t34.5 -8.5h154l-11 -63h-72
q19 -35 19 -75q0 -44 -16.5 -81.5t-46 -65t-70.5 -43t-89 -15.5q-12 0 -20.5 0.5t-19.5 2.5q-33 -6 -57.5 -19.5t-24.5 -39.5q0 -21 16 -29.5t52 -8.5h115q86 0 122.5 -30t36.5 -85zM253 234q54 0 84 26t39 71q5 27 7 37t2 20q0 35 -23 56.5t-71 21.5q-54 0 -84 -26.5
t-39 -71.5q-5 -27 -7 -37t-2 -20q0 -35 23 -56t71 -21zM382 -54q0 29 -18 44.5t-66 15.5h-177q-59 -26 -59 -82q0 -15 5.5 -28.5t18 -23.5t33 -15.5t51.5 -5.5h48q85 0 124.5 26.5t39.5 68.5zM320 616q-20 0 -31 9t-11 26q0 4 0.5 8.5t2.5 12.5q9 47 56 47q20 0 31 -9
t11 -26q0 -5 -3 -21q-9 -47 -56 -47z" />
    <glyph glyph-name="gbreve.alt01" horiz-adv-x="572" 
d="M208 -12q-71 0 -114 52.5t-43 144.5q0 57 15.5 117.5t46.5 111t78.5 82.5t111.5 32q23 0 45 -6t40 -18t31 -30t19 -42h4l17 84h77l-105 -524q-20 -98 -77.5 -151t-155.5 -53q-70 0 -116.5 25t-73.5 64l55 48q21 -33 54.5 -51t80.5 -18q63 0 103 35.5t55 110.5l22 110h-3
q-32 -65 -71 -94.5t-96 -29.5zM227 58q36 0 61.5 14t48.5 37q26 26 41.5 56t23.5 68l25 124q3 17 -3.5 35t-21.5 32.5t-37.5 24t-52.5 9.5q-66 0 -106.5 -41t-55.5 -116l-15 -75q-5 -28 -5 -51q0 -50 23.5 -83.5t73.5 -33.5zM348 596q-37 0 -61 13.5t-38.5 33.5t-21.5 43.5
t-10 43.5l46 20l10 -22q16 -35 32 -53t45 -18q27 0 49 16.5t51 54.5l17 22l48 -20q-10 -21 -23.5 -44.5t-33.5 -43.5t-47 -33t-63 -13z" />
    <glyph glyph-name="gcircumflex.alt01" horiz-adv-x="572" 
d="M208 -12q-71 0 -114 52.5t-43 144.5q0 57 15.5 117.5t46.5 111t78.5 82.5t111.5 32q23 0 45 -6t40 -18t31 -30t19 -42h4l17 84h77l-105 -524q-20 -98 -77.5 -151t-155.5 -53q-70 0 -116.5 25t-73.5 64l55 48q21 -33 54.5 -51t80.5 -18q63 0 103 35.5t55 110.5l22 110h-3
q-32 -65 -71 -94.5t-96 -29.5zM227 58q36 0 61.5 14t48.5 37q26 26 41.5 56t23.5 68l25 124q3 17 -3.5 35t-21.5 32.5t-37.5 24t-52.5 9.5q-66 0 -106.5 -41t-55.5 -116l-15 -75q-5 -28 -5 -51q0 -50 23.5 -83.5t73.5 -33.5zM420 765l82 -143l-43 -31l-93 115l-139 -116
l-39 32l138 143h94z" />
    <glyph glyph-name="gcommaaccent.alt01" horiz-adv-x="572" 
d="M208 -12q-71 0 -114 52.5t-43 144.5q0 57 15.5 117.5t46.5 111t78.5 82.5t111.5 32q23 0 45 -6t40 -18t31 -30t19 -42h4l17 84h77l-105 -524q-20 -98 -77.5 -151t-155.5 -53q-70 0 -116.5 25t-73.5 64l55 48q21 -33 54.5 -51t80.5 -18q63 0 103 35.5t55 110.5l22 110h-3
q-32 -65 -71 -94.5t-96 -29.5zM227 58q36 0 61.5 14t48.5 37q26 26 41.5 56t23.5 68l25 124q3 17 -3.5 35t-21.5 32.5t-37.5 24t-52.5 9.5q-66 0 -106.5 -41t-55.5 -116l-15 -75q-5 -28 -5 -51q0 -50 23.5 -83.5t73.5 -33.5zM347 595q-22 0 -32 9.5t-10 26.5q0 4 0.5 8.5
t2.5 15.5q7 34 26 65.5t44 53.5h56q-23 -23 -34.5 -39t-21.5 -37q28 -5 28 -33q0 -3 -0.5 -8t-2.5 -16q-9 -46 -56 -46z" />
    <glyph glyph-name="gdotaccent.alt01" horiz-adv-x="572" 
d="M208 -12q-71 0 -114 52.5t-43 144.5q0 57 15.5 117.5t46.5 111t78.5 82.5t111.5 32q23 0 45 -6t40 -18t31 -30t19 -42h4l17 84h77l-105 -524q-20 -98 -77.5 -151t-155.5 -53q-70 0 -116.5 25t-73.5 64l55 48q21 -33 54.5 -51t80.5 -18q63 0 103 35.5t55 110.5l22 110h-3
q-32 -65 -71 -94.5t-96 -29.5zM227 58q36 0 61.5 14t48.5 37q26 26 41.5 56t23.5 68l25 124q3 17 -3.5 35t-21.5 32.5t-37.5 24t-52.5 9.5q-66 0 -106.5 -41t-55.5 -116l-15 -75q-5 -28 -5 -51q0 -50 23.5 -83.5t73.5 -33.5zM352 616q-20 0 -31 9t-11 26q0 4 0.5 8.5
t2.5 12.5q9 47 56 47q20 0 31 -9t11 -26q0 -5 -3 -21q-9 -47 -56 -47z" />
    <glyph glyph-name="hbar" unicode="&#x127;" horiz-adv-x="565" 
d="M159 610h-62l12 60h62l14 70h77l-14 -70h144l-12 -60h-144l-40 -196h5q27 58 64.5 86t93.5 28q67 0 100 -38t33 -105q0 -14 -1.5 -31t-5.5 -36l-50 -250h73l-13 -68h-73q-29 0 -46.5 14t-17.5 44v9t2 12l48 239q3 15 4 29.5t1 23.5q0 44 -18.5 65.5t-60.5 21.5
q-54 0 -95 -41q-26 -26 -44 -62t-24 -67l-58 -288h-77z" />
    <glyph glyph-name="hcircumflex" unicode="&#x125;" horiz-adv-x="565" 
d="M185 740h77l-66 -326h5q27 58 64.5 86t93.5 28q67 0 100 -38t33 -105q0 -14 -1.5 -31t-5.5 -36l-50 -250h73l-13 -68h-73q-29 0 -46.5 14t-17.5 44v9t2 12l48 239q3 15 4 29.5t1 23.5q0 44 -18.5 65.5t-60.5 21.5q-54 0 -95 -41q-26 -26 -44 -62t-24 -67l-58 -288h-77z
M304 923l82 -143l-43 -31l-93 115l-139 -116l-39 32l138 143h94z" />
    <glyph glyph-name="dotlessi" unicode="&#x131;" horiz-adv-x="264" 
d="M120 0q-35 0 -52 17.5t-17 45.5q0 8 3 23l86 430h77l-90 -448h73l-13 -68h-67z" />
    <glyph glyph-name="iacute" unicode="&#xed;" horiz-adv-x="264" 
d="M120 0q-35 0 -52 17.5t-17 45.5q0 8 3 23l86 430h77l-90 -448h73l-13 -68h-67zM212 585l-48 25l104 170l68 -36z" />
    <glyph glyph-name="ibreve" unicode="&#x12d;" horiz-adv-x="264" 
d="M120 0q-35 0 -52 17.5t-17 45.5q0 8 3 23l86 430h77l-90 -448h73l-13 -68h-67zM201 596q-37 0 -61 13.5t-38.5 33.5t-21.5 43.5t-10 43.5l46 20l10 -22q16 -35 32 -53t45 -18q27 0 49 16.5t51 54.5l17 22l48 -20q-10 -21 -23.5 -44.5t-33.5 -43.5t-47 -33t-63 -13z" />
    <glyph glyph-name="icircumflex" unicode="&#xee;" horiz-adv-x="264" 
d="M120 0q-35 0 -52 17.5t-17 45.5q0 8 3 23l86 430h77l-90 -448h73l-13 -68h-67zM273 765l82 -143l-43 -31l-93 115l-139 -116l-39 32l138 143h94z" />
    <glyph glyph-name="idieresis" unicode="&#xef;" horiz-adv-x="264" 
d="M120 0q-35 0 -52 17.5t-17 45.5q0 8 3 23l86 430h77l-90 -448h73l-13 -68h-67zM112 618q-20 0 -31 9t-11 26q0 4 0.5 8.5t2.5 12.5q9 47 56 47q20 0 31 -9t11 -26q0 -5 -3 -21q-9 -47 -56 -47zM294 618q-20 0 -31 9t-11 26q0 4 0.5 8.5t2.5 12.5q9 47 56 47q20 0 31 -9
t11 -26q0 -5 -3 -21q-9 -47 -56 -47z" />
    <glyph glyph-name="uni1ECB" unicode="&#x1ecb;" horiz-adv-x="264" 
d="M206 637q-23 0 -32.5 10.5t-9.5 24.5q0 3 0.5 8.5t3.5 19.5q4 19 16.5 29.5t37.5 10.5q23 0 32.5 -10.5t9.5 -24.5q0 -3 -0.5 -8.5t-3.5 -19.5q-4 -19 -16.5 -29.5t-37.5 -10.5zM121 0q-35 0 -52.5 17.5t-17.5 45.5q0 9 3 24l86 429h77l-90 -448h73l-13 -68h-66zM84 -169
q-20 0 -31 9t-11 26q0 4 0.5 8.5t2.5 12.5q9 47 56 47q20 0 31 -9t11 -26q0 -5 -3 -21q-9 -47 -56 -47z" />
    <glyph glyph-name="igrave" unicode="&#xec;" horiz-adv-x="264" 
d="M120 0q-35 0 -52 17.5t-17 45.5q0 8 3 23l86 430h77l-90 -448h73l-13 -68h-67zM100 744l68 32l61 -170l-45 -21z" />
    <glyph glyph-name="uni1EC9" unicode="&#x1ec9;" horiz-adv-x="264" 
d="M120 0q-35 0 -52 17.5t-17 45.5q0 8 3 23l86 430h77l-90 -448h73l-13 -68h-67zM135 765h107q37 0 49.5 -16t12.5 -33q0 -25 -17.5 -51t-43.5 -56l-28 -32l-41 23l69 106h-116z" />
    <glyph glyph-name="imacron" unicode="&#x12b;" horiz-adv-x="264" 
d="M120 0q-35 0 -52 17.5t-17 45.5q0 8 3 23l86 430h77l-90 -448h73l-13 -68h-67zM83 705h272l-14 -66h-272z" />
    <glyph glyph-name="iogonek" unicode="&#x12f;" horiz-adv-x="264" 
d="M187 0q-39 -26 -62.5 -45.5t-36 -34t-16 -24.5t-3.5 -18q0 -16 9.5 -23.5t23.5 -7.5q12 0 26 6.5t28 20.5l37 -44q-13 -14 -37 -25.5t-59 -11.5q-19 0 -36 4t-30.5 13t-21.5 23.5t-8 34.5q0 42 35 71.5t92 55.5l-1 5h-6q-35 0 -52.5 17.5t-17.5 45.5q0 9 3 24l86 429h77
l-90 -448h73zM206 637q-23 0 -32.5 10.5t-9.5 24.5q0 3 0.5 8.5t3.5 19.5q4 19 16.5 29.5t37.5 10.5q23 0 32.5 -10.5t9.5 -24.5q0 -3 -0.5 -8.5t-3.5 -19.5q-4 -19 -16.5 -29.5t-37.5 -10.5z" />
    <glyph glyph-name="itilde" unicode="&#x129;" horiz-adv-x="264" 
d="M120 0q-35 0 -52 17.5t-17 45.5q0 8 3 23l86 430h77l-90 -448h73l-13 -68h-67zM275 612q-26 0 -43 8t-31 17q-22 14 -37 19t-28 5q-17 0 -30 -7t-30 -20l-28 39q17 20 41 36.5t58 16.5q26 0 43 -8t31 -17q22 -14 37 -19t28 -5q17 0 30 7t30 20l28 -39q-17 -20 -41 -36.5
t-58 -16.5z" />
    <glyph glyph-name="ij" unicode="&#x133;" horiz-adv-x="512" 
d="M206 637q-23 0 -32.5 10.5t-9.5 24.5q0 3 0.5 8.5t3.5 19.5q4 19 16.5 29.5t37.5 10.5q23 0 32.5 -10.5t9.5 -24.5q0 -3 -0.5 -8.5t-3.5 -19.5q-4 -19 -16.5 -29.5t-37.5 -10.5zM121 0q-35 0 -52.5 17.5t-17.5 45.5q0 9 3 24l86 429h77l-90 -448h73l-13 -68h-66zM399 516
h77l-123 -614q-11 -53 -36 -77.5t-78 -24.5h-67l14 68h83zM465 637q-23 0 -32.5 10.5t-9.5 24.5q0 3 0.5 8.5t3.5 19.5q4 19 16.5 29.5t37.5 10.5q23 0 32.5 -10.5t9.5 -24.5q0 -3 -0.5 -8.5t-3.5 -19.5q-4 -19 -16.5 -29.5t-37.5 -10.5z" />
    <glyph glyph-name="uni0237" unicode="&#x237;" horiz-adv-x="253" 
d="M-73 -132h83l130 648h77l-123 -614q-11 -53 -36 -77.5t-78 -24.5h-67z" />
    <glyph glyph-name="jcircumflex" unicode="&#x135;" horiz-adv-x="253" 
d="M-73 -132h83l130 648h77l-123 -614q-11 -53 -36 -77.5t-78 -24.5h-67zM273 765l82 -143l-43 -31l-93 115l-139 -116l-39 32l138 143h94z" />
    <glyph glyph-name="kcommaaccent" unicode="&#x137;" horiz-adv-x="519" 
d="M185 740h77l-94 -465h5l92 88l174 153h93l-230 -208l105 -240h66l-13 -68h-44q-35 0 -53.5 12.5t-31.5 41.5l-91 209l-91 -82l-36 -181h-77zM225 -66q22 0 32 -9.5t10 -26.5q0 -4 -0.5 -8.5t-2.5 -15.5q-7 -34 -26 -65.5t-44 -53.5h-56q23 23 34.5 39t21.5 37
q-28 5 -28 33q0 3 0.5 8t2.5 16q9 46 56 46z" />
    <glyph glyph-name="kgreenlandic" unicode="&#x138;" horiz-adv-x="533" 
d="M140 516h77l-55 -268h5l105 99l192 169h93l-248 -224l98 -224h66l-13 -68h-44q-35 0 -53.5 12.5t-31.5 41.5l-84 193l-104 -93l-30 -154h-77z" />
    <glyph glyph-name="lacute" unicode="&#x13a;" horiz-adv-x="264" 
d="M121 0q-35 0 -52.5 17.5t-17.5 45.5q0 9 3 24l131 653h77l-135 -672h78l-13 -68h-71zM251 785l-48 25l104 170l68 -36z" />
    <glyph glyph-name="lcaron" unicode="&#x13e;" horiz-adv-x="264" 
d="M121 0q-35 0 -52.5 17.5t-17.5 45.5q0 9 3 24l131 653h77l-135 -672h78l-13 -68h-71zM347 555h-53l35 185h93z" />
    <glyph glyph-name="lcommaaccent" unicode="&#x13c;" horiz-adv-x="264" 
d="M121 0q-35 0 -52.5 17.5t-17.5 45.5q0 9 3 24l131 653h77l-135 -672h78l-13 -68h-71zM101 -66q22 0 32 -9.5t10 -26.5q0 -4 -0.5 -8.5t-2.5 -15.5q-7 -34 -26 -65.5t-44 -53.5h-56q23 23 34.5 39t21.5 37q-28 5 -28 33q0 3 0.5 8t2.5 16q9 46 56 46z" />
    <glyph glyph-name="ldot" unicode="&#x140;" horiz-adv-x="338" 
d="M121 0q-35 0 -52.5 17.5t-17.5 45.5q0 9 3 24l131 653h77l-135 -672h78l-13 -68h-71zM298 254q-20 0 -31 9t-11 26q0 4 0.5 8.5t2.5 12.5q9 47 56 47q20 0 31 -9t11 -26q0 -5 -3 -21q-9 -47 -56 -47z" />
    <glyph glyph-name="lslash" unicode="&#x142;" horiz-adv-x="270" 
d="M195 0h-71q-35 0 -52.5 17.5t-17.5 45.5q0 9 3 24l47 238l-67 -21l13 67l68 22l70 347h77l-65 -320l110 37l-13 -69l-110 -35l-57 -285h78z" />
    <glyph glyph-name="nacute" unicode="&#x144;" horiz-adv-x="565" 
d="M36 0l104 516h77l-21 -102h5q27 58 64.5 86t93.5 28q67 0 100 -38t33 -105q0 -14 -1.5 -31t-5.5 -36l-50 -250h73l-13 -68h-73q-29 0 -46.5 14t-17.5 44v9t2 12l48 239q3 15 4 29.5t1 23.5q0 44 -18.5 65.5t-60.5 21.5q-54 0 -95 -41q-26 -26 -44 -62t-24 -67l-58 -288
h-77zM362 585l-48 25l104 170l68 -36z" />
    <glyph glyph-name="ncaron" unicode="&#x148;" horiz-adv-x="565" 
d="M36 0l104 516h77l-21 -102h5q27 58 64.5 86t93.5 28q67 0 100 -38t33 -105q0 -14 -1.5 -31t-5.5 -36l-50 -250h73l-13 -68h-73q-29 0 -46.5 14t-17.5 44v9t2 12l48 239q3 15 4 29.5t1 23.5q0 44 -18.5 65.5t-60.5 21.5q-54 0 -95 -41q-26 -26 -44 -62t-24 -67l-58 -288
h-77zM304 599l-82 143l44 31l90 -116l140 117l41 -32l-138 -143h-95z" />
    <glyph glyph-name="ncommaaccent" unicode="&#x146;" horiz-adv-x="565" 
d="M36 0l104 516h77l-21 -102h5q27 58 64.5 86t93.5 28q67 0 100 -38t33 -105q0 -14 -1.5 -31t-5.5 -36l-50 -250h73l-13 -68h-73q-29 0 -46.5 14t-17.5 44v9t2 12l48 239q3 15 4 29.5t1 23.5q0 44 -18.5 65.5t-60.5 21.5q-54 0 -95 -41q-26 -26 -44 -62t-24 -67l-58 -288
h-77zM236 -66q22 0 32 -9.5t10 -26.5q0 -4 -0.5 -8.5t-2.5 -15.5q-7 -34 -26 -65.5t-44 -53.5h-56q23 23 34.5 39t21.5 37q-28 5 -28 33q0 3 0.5 8t2.5 16q9 46 56 46z" />
    <glyph glyph-name="ntilde" unicode="&#xf1;" horiz-adv-x="565" 
d="M36 0l104 516h77l-21 -102h5q27 58 64.5 86t93.5 28q67 0 100 -38t33 -105q0 -14 -1.5 -31t-5.5 -36l-50 -250h73l-13 -68h-73q-29 0 -46.5 14t-17.5 44v9t2 12l48 239q3 15 4 29.5t1 23.5q0 44 -18.5 65.5t-60.5 21.5q-54 0 -95 -41q-26 -26 -44 -62t-24 -67l-58 -288
h-77zM425 612q-26 0 -43 8t-31 17q-22 14 -37 19t-28 5q-17 0 -30 -7t-30 -20l-28 39q17 20 41 36.5t58 16.5q26 0 43 -8t31 -17q22 -14 37 -19t28 -5q17 0 30 7t30 20l28 -39q-17 -20 -41 -36.5t-58 -16.5z" />
    <glyph glyph-name="napostrophe" unicode="&#x149;" horiz-adv-x="806" 
d="M234 750q24 0 37.5 -10t13.5 -30q0 -7 -1 -15t-3 -16q-4 -19 -13 -42.5t-23.5 -47.5t-34.5 -47.5t-45 -41.5h-65q37 32 59.5 62.5t38.5 64.5q-33 8 -33 37q0 7 1 15t3 16q4 20 17.5 37.5t47.5 17.5zM277 0l104 516h77l-21 -102h5q27 58 64.5 86t93.5 28q67 0 100 -38
t33 -105q0 -14 -1.5 -31t-5.5 -36l-50 -250h73l-13 -68h-73q-29 0 -46.5 14t-17.5 44v9t2 12l48 239q3 15 4 29.5t1 23.5q0 44 -18.5 65.5t-60.5 21.5q-54 0 -95 -41q-26 -26 -44 -62t-24 -67l-58 -288h-77z" />
    <glyph glyph-name="eng" unicode="&#x14b;" horiz-adv-x="561" 
d="M318 -132l90 450q3 15 4 29.5t1 23.5q0 44 -18.5 65.5t-60.5 21.5q-54 0 -95 -41q-26 -26 -44 -62t-24 -67l-58 -288h-77l104 516h77l-21 -102h5q27 58 64.5 86t93.5 28q67 0 100 -38t33 -105q0 -14 -1.5 -31t-5.5 -36l-83 -416q-11 -53 -36 -77.5t-78 -24.5h-67l14 68
h83z" />
    <glyph glyph-name="oacute" unicode="&#xf3;" horiz-adv-x="550" 
d="M235 -12q-41 0 -75 13.5t-58.5 40t-38.5 66t-14 92.5q0 65 19.5 124.5t54.5 104.5t84 72t108 27q40 0 74.5 -13.5t59 -40t38.5 -66.5t14 -92q0 -65 -19.5 -124.5t-54.5 -104.5t-84 -72t-108 -27zM245 57q56 0 100 41t60 120l15 75q5 25 5 45q0 54 -30.5 87.5t-89.5 33.5
q-56 0 -100 -41t-60 -120l-15 -75q-5 -25 -5 -45q0 -54 30.5 -87.5t89.5 -33.5zM345 585l-48 25l104 170l68 -36z" />
    <glyph glyph-name="obreve" unicode="&#x14f;" horiz-adv-x="550" 
d="M235 -12q-41 0 -75 13.5t-58.5 40t-38.5 66t-14 92.5q0 65 19.5 124.5t54.5 104.5t84 72t108 27q40 0 74.5 -13.5t59 -40t38.5 -66.5t14 -92q0 -65 -19.5 -124.5t-54.5 -104.5t-84 -72t-108 -27zM245 57q56 0 100 41t60 120l15 75q5 25 5 45q0 54 -30.5 87.5t-89.5 33.5
q-56 0 -100 -41t-60 -120l-15 -75q-5 -25 -5 -45q0 -54 30.5 -87.5t89.5 -33.5zM334 596q-37 0 -61 13.5t-38.5 33.5t-21.5 43.5t-10 43.5l46 20l10 -22q16 -35 32 -53t45 -18q27 0 49 16.5t51 54.5l17 22l48 -20q-10 -21 -23.5 -44.5t-33.5 -43.5t-47 -33t-63 -13z" />
    <glyph glyph-name="ocircumflex" unicode="&#xf4;" horiz-adv-x="550" 
d="M235 -12q-41 0 -75 13.5t-58.5 40t-38.5 66t-14 92.5q0 65 19.5 124.5t54.5 104.5t84 72t108 27q40 0 74.5 -13.5t59 -40t38.5 -66.5t14 -92q0 -65 -19.5 -124.5t-54.5 -104.5t-84 -72t-108 -27zM245 57q56 0 100 41t60 120l15 75q5 25 5 45q0 54 -30.5 87.5t-89.5 33.5
q-56 0 -100 -41t-60 -120l-15 -75q-5 -25 -5 -45q0 -54 30.5 -87.5t89.5 -33.5zM406 765l82 -143l-43 -31l-93 115l-139 -116l-39 32l138 143h94z" />
    <glyph glyph-name="odieresis" unicode="&#xf6;" horiz-adv-x="550" 
d="M235 -12q-41 0 -75 13.5t-58.5 40t-38.5 66t-14 92.5q0 65 19.5 124.5t54.5 104.5t84 72t108 27q40 0 74.5 -13.5t59 -40t38.5 -66.5t14 -92q0 -65 -19.5 -124.5t-54.5 -104.5t-84 -72t-108 -27zM245 57q56 0 100 41t60 120l15 75q5 25 5 45q0 54 -30.5 87.5t-89.5 33.5
q-56 0 -100 -41t-60 -120l-15 -75q-5 -25 -5 -45q0 -54 30.5 -87.5t89.5 -33.5zM245 618q-20 0 -31 9t-11 26q0 4 0.5 8.5t2.5 12.5q9 47 56 47q20 0 31 -9t11 -26q0 -5 -3 -21q-9 -47 -56 -47zM427 618q-20 0 -31 9t-11 26q0 4 0.5 8.5t2.5 12.5q9 47 56 47q20 0 31 -9
t11 -26q0 -5 -3 -21q-9 -47 -56 -47z" />
    <glyph glyph-name="uni1ECD" unicode="&#x1ecd;" horiz-adv-x="550" 
d="M235 -12q-41 0 -75 13.5t-58.5 40t-38.5 66t-14 92.5q0 65 19.5 124.5t54.5 104.5t84 72t108 27q40 0 74.5 -13.5t59 -40t38.5 -66.5t14 -92q0 -65 -19.5 -124.5t-54.5 -104.5t-84 -72t-108 -27zM245 57q56 0 100 41t60 120l15 75q5 25 5 45q0 54 -30.5 87.5t-89.5 33.5
q-56 0 -100 -41t-60 -120l-15 -75q-5 -25 -5 -45q0 -54 30.5 -87.5t89.5 -33.5zM201 -169q-20 0 -31 9t-11 26q0 4 0.5 8.5t2.5 12.5q9 47 56 47q20 0 31 -9t11 -26q0 -5 -3 -21q-9 -47 -56 -47z" />
    <glyph glyph-name="ograve" unicode="&#xf2;" horiz-adv-x="550" 
d="M235 -12q-41 0 -75 13.5t-58.5 40t-38.5 66t-14 92.5q0 65 19.5 124.5t54.5 104.5t84 72t108 27q40 0 74.5 -13.5t59 -40t38.5 -66.5t14 -92q0 -65 -19.5 -124.5t-54.5 -104.5t-84 -72t-108 -27zM245 57q56 0 100 41t60 120l15 75q5 25 5 45q0 54 -30.5 87.5t-89.5 33.5
q-56 0 -100 -41t-60 -120l-15 -75q-5 -25 -5 -45q0 -54 30.5 -87.5t89.5 -33.5zM233 744l68 32l61 -170l-45 -21z" />
    <glyph glyph-name="uni1ECF" unicode="&#x1ecf;" horiz-adv-x="550" 
d="M235 -12q-41 0 -75 13.5t-58.5 40t-38.5 66t-14 92.5q0 65 19.5 124.5t54.5 104.5t84 72t108 27q40 0 74.5 -13.5t59 -40t38.5 -66.5t14 -92q0 -65 -19.5 -124.5t-54.5 -104.5t-84 -72t-108 -27zM245 57q56 0 100 41t60 120l15 75q5 25 5 45q0 54 -30.5 87.5t-89.5 33.5
q-56 0 -100 -41t-60 -120l-15 -75q-5 -25 -5 -45q0 -54 30.5 -87.5t89.5 -33.5zM269 765h107q37 0 49.5 -16t12.5 -33q0 -25 -17.5 -51t-43.5 -56l-28 -32l-41 23l69 106h-116z" />
    <glyph glyph-name="ohungarumlaut" unicode="&#x151;" horiz-adv-x="550" 
d="M235 -12q-41 0 -75 13.5t-58.5 40t-38.5 66t-14 92.5q0 65 19.5 124.5t54.5 104.5t84 72t108 27q40 0 74.5 -13.5t59 -40t38.5 -66.5t14 -92q0 -65 -19.5 -124.5t-54.5 -104.5t-84 -72t-108 -27zM245 57q56 0 100 41t60 120l15 75q5 25 5 45q0 54 -30.5 87.5t-89.5 33.5
q-56 0 -100 -41t-60 -120l-15 -75q-5 -25 -5 -45q0 -54 30.5 -87.5t89.5 -33.5zM264 586l-45 22l105 171l63 -34zM421 586l-45 22l104 171l64 -34z" />
    <glyph glyph-name="omacron" unicode="&#x14d;" horiz-adv-x="550" 
d="M235 -12q-41 0 -75 13.5t-58.5 40t-38.5 66t-14 92.5q0 65 19.5 124.5t54.5 104.5t84 72t108 27q40 0 74.5 -13.5t59 -40t38.5 -66.5t14 -92q0 -65 -19.5 -124.5t-54.5 -104.5t-84 -72t-108 -27zM245 57q56 0 100 41t60 120l15 75q5 25 5 45q0 54 -30.5 87.5t-89.5 33.5
q-56 0 -100 -41t-60 -120l-15 -75q-5 -25 -5 -45q0 -54 30.5 -87.5t89.5 -33.5zM216 705h272l-14 -66h-272z" />
    <glyph glyph-name="oslash" unicode="&#xf8;" horiz-adv-x="550" 
d="M-17 -3l88 91q-11 23 -16.5 50.5t-5.5 61.5q0 65 19.5 124.5t54.5 104.5t84 72t108 27q82 0 133 -54l80 83l39 -38l-88 -91q11 -23 16.5 -50.5t5.5 -61.5q0 -65 -19.5 -124.5t-54.5 -104.5t-84 -72t-108 -27q-82 0 -133 54l-80 -83zM245 57q56 0 100 41t60 120
q7 34 11 54.5t6 33.5t2.5 19.5t0.5 12.5q0 19 -3 33l-270 -277q15 -17 38.5 -27t54.5 -10zM305 459q-56 0 -100 -41t-60 -120q-7 -34 -11 -54.5t-6 -33.5t-2.5 -19.5t-0.5 -12.5q0 -20 3 -33l270 277q-15 17 -38.5 27t-54.5 10z" />
    <glyph glyph-name="oslashacute" unicode="&#x1ff;" horiz-adv-x="550" 
d="M-17 -3l88 91q-11 23 -16.5 50.5t-5.5 61.5q0 65 19.5 124.5t54.5 104.5t84 72t108 27q82 0 133 -54l80 83l39 -38l-88 -91q11 -23 16.5 -50.5t5.5 -61.5q0 -65 -19.5 -124.5t-54.5 -104.5t-84 -72t-108 -27q-82 0 -133 54l-80 -83zM245 57q56 0 100 41t60 120
q7 34 11 54.5t6 33.5t2.5 19.5t0.5 12.5q0 19 -3 33l-270 -277q15 -17 38.5 -27t54.5 -10zM305 459q-56 0 -100 -41t-60 -120q-7 -34 -11 -54.5t-6 -33.5t-2.5 -19.5t-0.5 -12.5q0 -20 3 -33l270 277q-15 17 -38.5 27t-54.5 10zM352 585l-48 25l104 170l68 -36z" />
    <glyph glyph-name="otilde" unicode="&#xf5;" horiz-adv-x="550" 
d="M235 -12q-41 0 -75 13.5t-58.5 40t-38.5 66t-14 92.5q0 65 19.5 124.5t54.5 104.5t84 72t108 27q40 0 74.5 -13.5t59 -40t38.5 -66.5t14 -92q0 -65 -19.5 -124.5t-54.5 -104.5t-84 -72t-108 -27zM245 57q56 0 100 41t60 120l15 75q5 25 5 45q0 54 -30.5 87.5t-89.5 33.5
q-56 0 -100 -41t-60 -120l-15 -75q-5 -25 -5 -45q0 -54 30.5 -87.5t89.5 -33.5zM408 612q-26 0 -43 8t-31 17q-22 14 -37 19t-28 5q-17 0 -30 -7t-30 -20l-28 39q17 20 41 36.5t58 16.5q26 0 43 -8t31 -17q22 -14 37 -19t28 -5q17 0 30 7t30 20l28 -39q-17 -20 -41 -36.5
t-58 -16.5z" />
    <glyph glyph-name="ohorn" unicode="&#x1a1;" horiz-adv-x="550" 
d="M235 -12q-41 0 -75 13.5t-58.5 40t-38.5 66t-14 92.5q0 65 19.5 124.5t54.5 104.5t84 72t108 27q38 0 70 -12h95l22 112h68l-20 -101q-5 -28 -19.5 -45t-50.5 -17h-23q23 -30 33.5 -68.5t10.5 -80.5q0 -65 -19.5 -124.5t-54.5 -104.5t-84 -72t-108 -27zM245 57
q56 0 100 41t60 120l15 75q5 25 5 45q0 54 -30.5 87.5t-89.5 33.5q-56 0 -100 -41t-60 -120l-15 -75q-5 -25 -5 -45q0 -54 30.5 -87.5t89.5 -33.5z" />
    <glyph glyph-name="uni1EDB" unicode="&#x1edb;" horiz-adv-x="550" 
d="M235 -12q-41 0 -75 13.5t-58.5 40t-38.5 66t-14 92.5q0 65 19.5 124.5t54.5 104.5t84 72t108 27q38 0 70 -12h95l22 112h68l-20 -101q-5 -28 -19.5 -45t-50.5 -17h-23q23 -30 33.5 -68.5t10.5 -80.5q0 -65 -19.5 -124.5t-54.5 -104.5t-84 -72t-108 -27zM245 57
q56 0 100 41t60 120l15 75q5 25 5 45q0 54 -30.5 87.5t-89.5 33.5q-56 0 -100 -41t-60 -120l-15 -75q-5 -25 -5 -45q0 -54 30.5 -87.5t89.5 -33.5zM345 585l-48 25l104 170l68 -36z" />
    <glyph glyph-name="uni1EE3" unicode="&#x1ee3;" horiz-adv-x="550" 
d="M235 -12q-41 0 -75 13.5t-58.5 40t-38.5 66t-14 92.5q0 65 19.5 124.5t54.5 104.5t84 72t108 27q38 0 70 -12h95l22 112h68l-20 -101q-5 -28 -19.5 -45t-50.5 -17h-23q23 -30 33.5 -68.5t10.5 -80.5q0 -65 -19.5 -124.5t-54.5 -104.5t-84 -72t-108 -27zM245 57
q56 0 100 41t60 120l15 75q5 25 5 45q0 54 -30.5 87.5t-89.5 33.5q-56 0 -100 -41t-60 -120l-15 -75q-5 -25 -5 -45q0 -54 30.5 -87.5t89.5 -33.5zM201 -169q-20 0 -31 9t-11 26q0 4 0.5 8.5t2.5 12.5q9 47 56 47q20 0 31 -9t11 -26q0 -5 -3 -21q-9 -47 -56 -47z" />
    <glyph glyph-name="uni1EDD" unicode="&#x1edd;" horiz-adv-x="550" 
d="M235 -12q-41 0 -75 13.5t-58.5 40t-38.5 66t-14 92.5q0 65 19.5 124.5t54.5 104.5t84 72t108 27q38 0 70 -12h95l22 112h68l-20 -101q-5 -28 -19.5 -45t-50.5 -17h-23q23 -30 33.5 -68.5t10.5 -80.5q0 -65 -19.5 -124.5t-54.5 -104.5t-84 -72t-108 -27zM245 57
q56 0 100 41t60 120l15 75q5 25 5 45q0 54 -30.5 87.5t-89.5 33.5q-56 0 -100 -41t-60 -120l-15 -75q-5 -25 -5 -45q0 -54 30.5 -87.5t89.5 -33.5zM233 744l68 32l61 -170l-45 -21z" />
    <glyph glyph-name="uni1EDF" unicode="&#x1edf;" horiz-adv-x="550" 
d="M235 -12q-41 0 -75 13.5t-58.5 40t-38.5 66t-14 92.5q0 65 19.5 124.5t54.5 104.5t84 72t108 27q38 0 70 -12h95l22 112h68l-20 -101q-5 -28 -19.5 -45t-50.5 -17h-23q23 -30 33.5 -68.5t10.5 -80.5q0 -65 -19.5 -124.5t-54.5 -104.5t-84 -72t-108 -27zM245 57
q56 0 100 41t60 120l15 75q5 25 5 45q0 54 -30.5 87.5t-89.5 33.5q-56 0 -100 -41t-60 -120l-15 -75q-5 -25 -5 -45q0 -54 30.5 -87.5t89.5 -33.5zM269 765h107q37 0 49.5 -16t12.5 -33q0 -25 -17.5 -51t-43.5 -56l-28 -32l-41 23l69 106h-116z" />
    <glyph glyph-name="uni1EE1" unicode="&#x1ee1;" horiz-adv-x="550" 
d="M235 -12q-41 0 -75 13.5t-58.5 40t-38.5 66t-14 92.5q0 65 19.5 124.5t54.5 104.5t84 72t108 27q38 0 70 -12h95l22 112h68l-20 -101q-5 -28 -19.5 -45t-50.5 -17h-23q23 -30 33.5 -68.5t10.5 -80.5q0 -65 -19.5 -124.5t-54.5 -104.5t-84 -72t-108 -27zM245 57
q56 0 100 41t60 120l15 75q5 25 5 45q0 54 -30.5 87.5t-89.5 33.5q-56 0 -100 -41t-60 -120l-15 -75q-5 -25 -5 -45q0 -54 30.5 -87.5t89.5 -33.5zM401 615q-20 0 -33.5 7t-29.5 16q-16 10 -28.5 15.5t-24.5 5.5q-15 0 -29 -7t-29 -20l-31 41q17 20 40 35.5t54 15.5
q20 0 33.5 -7t29.5 -16q16 -10 28.5 -15.5t24.5 -5.5q15 0 29 7t29 20l31 -41q-17 -20 -40 -35.5t-54 -15.5z" />
    <glyph glyph-name="uni1ED1" unicode="&#x1ed1;" horiz-adv-x="550" 
d="M235 -12q-41 0 -75 13.5t-58.5 40t-38.5 66t-14 92.5q0 65 19.5 124.5t54.5 104.5t84 72t108 27q40 0 74.5 -13.5t59 -40t38.5 -66.5t14 -92q0 -65 -19.5 -124.5t-54.5 -104.5t-84 -72t-108 -27zM245 57q56 0 100 41t60 120l15 75q5 25 5 45q0 54 -30.5 87.5t-89.5 33.5
q-56 0 -100 -41t-60 -120l-15 -75q-5 -25 -5 -45q0 -54 30.5 -87.5t89.5 -33.5zM494 706l-48 25l103 170l68 -35zM404 745l84 -132l-41 -32l-95 112l-130 -112l-41 32l129 132h94z" />
    <glyph glyph-name="uni1ED9" unicode="&#x1ed9;" horiz-adv-x="550" 
d="M235 -12q-41 0 -75 13.5t-58.5 40t-38.5 66t-14 92.5q0 65 19.5 124.5t54.5 104.5t84 72t108 27q40 0 74.5 -13.5t59 -40t38.5 -66.5t14 -92q0 -65 -19.5 -124.5t-54.5 -104.5t-84 -72t-108 -27zM245 57q56 0 100 41t60 120l15 75q5 25 5 45q0 54 -30.5 87.5t-89.5 33.5
q-56 0 -100 -41t-60 -120l-15 -75q-5 -25 -5 -45q0 -54 30.5 -87.5t89.5 -33.5zM406 765l82 -143l-43 -31l-93 115l-139 -116l-39 32l138 143h94zM201 -169q-20 0 -31 9t-11 26q0 4 0.5 8.5t2.5 12.5q9 47 56 47q20 0 31 -9t11 -26q0 -5 -3 -21q-9 -47 -56 -47z" />
    <glyph glyph-name="uni1ED3" unicode="&#x1ed3;" horiz-adv-x="550" 
d="M235 -12q-41 0 -75 13.5t-58.5 40t-38.5 66t-14 92.5q0 65 19.5 124.5t54.5 104.5t84 72t108 27q40 0 74.5 -13.5t59 -40t38.5 -66.5t14 -92q0 -65 -19.5 -124.5t-54.5 -104.5t-84 -72t-108 -27zM245 57q56 0 100 41t60 120l15 75q5 25 5 45q0 54 -30.5 87.5t-89.5 33.5
q-56 0 -100 -41t-60 -120l-15 -75q-5 -25 -5 -45q0 -54 30.5 -87.5t89.5 -33.5zM124 860l68 31l61 -170l-44 -21zM403 745l84 -132l-41 -32l-95 112l-130 -112l-41 32l129 132h94z" />
    <glyph glyph-name="uni1ED5" unicode="&#x1ed5;" horiz-adv-x="550" 
d="M235 -12q-41 0 -75 13.5t-58.5 40t-38.5 66t-14 92.5q0 65 19.5 124.5t54.5 104.5t84 72t108 27q40 0 74.5 -13.5t59 -40t38.5 -66.5t14 -92q0 -65 -19.5 -124.5t-54.5 -104.5t-84 -72t-108 -27zM245 57q56 0 100 41t60 120l15 75q5 25 5 45q0 54 -30.5 87.5t-89.5 33.5
q-56 0 -100 -41t-60 -120l-15 -75q-5 -25 -5 -45q0 -54 30.5 -87.5t89.5 -33.5zM410 880h107q36 0 48 -15.5t12 -33.5q0 -26 -18 -51.5t-43 -56.5l-25 -31l-40 23l70 109h-120zM403 745l84 -132l-41 -32l-95 112l-130 -112l-41 32l129 132h94z" />
    <glyph glyph-name="uni1ED7" unicode="&#x1ed7;" horiz-adv-x="550" 
d="M235 -12q-41 0 -75 13.5t-58.5 40t-38.5 66t-14 92.5q0 65 19.5 124.5t54.5 104.5t84 72t108 27q40 0 74.5 -13.5t59 -40t38.5 -66.5t14 -92q0 -65 -19.5 -124.5t-54.5 -104.5t-84 -72t-108 -27zM245 57q56 0 100 41t60 120l15 75q5 25 5 45q0 54 -30.5 87.5t-89.5 33.5
q-56 0 -100 -41t-60 -120l-15 -75q-5 -25 -5 -45q0 -54 30.5 -87.5t89.5 -33.5zM302 884q25 0 42 -9t31 -17q22 -14 37 -19t28 -5q16 0 30 7t31 20l27 -36q-17 -20 -41.5 -36.5t-58.5 -16.5q-25 0 -42 9t-31 17q-22 14 -37 19t-28 5q-16 0 -30 -7t-31 -20l-27 38
q17 20 41.5 35.5t58.5 15.5zM403 745l84 -132l-41 -32l-95 112l-130 -112l-41 32l129 132h94z" />
    <glyph glyph-name="oe" unicode="&#x153;" horiz-adv-x="871" 
d="M245 57q56 0 100 41t60 120l15 75q5 25 5 45q0 54 -30.5 87.5t-89.5 33.5q-56 0 -100 -41t-60 -120l-15 -75q-5 -25 -5 -45q0 -54 30.5 -87.5t89.5 -33.5zM671 462q-30 0 -57.5 -11t-49 -30.5t-37 -48t-22.5 -62.5l-6 -29q83 3 135 10.5t81.5 21t40 32.5t10.5 46
q0 21 -8 34.5t-21 21.5t-30.5 11.5t-35.5 3.5zM604 -12q-64 0 -109 27t-66 84h-5q-34 -51 -79 -81t-110 -30q-41 0 -75 13.5t-58.5 40t-38.5 66t-14 92.5q0 65 19.5 124.5t54.5 104.5t84 72t108 27q57 0 99.5 -27t62.5 -84h5q35 51 84 81t113 30q36 0 66 -10t52.5 -27
t35 -41t12.5 -52q0 -45 -20 -78t-63 -54.5t-110.5 -32.5t-162.5 -12q-3 -21 -3 -45q0 -53 31.5 -86t93.5 -33q48 0 88 23.5t68 58.5l50 -45q-48 -59 -102.5 -82.5t-110.5 -23.5z" />
    <glyph glyph-name="racute" unicode="&#x155;" horiz-adv-x="364" 
d="M36 0l104 516h77l-22 -103h5q10 19 24 37.5t32.5 33t42.5 23.5t56 9h32l-15 -79h-36q-36 0 -63.5 -10.5t-47.5 -28.5t-32.5 -41.5t-17.5 -49.5l-62 -307h-77zM290 585l-48 25l104 170l68 -36z" />
    <glyph glyph-name="rcaron" unicode="&#x159;" horiz-adv-x="364" 
d="M36 0l104 516h77l-22 -103h5q10 19 24 37.5t32.5 33t42.5 23.5t56 9h32l-15 -79h-36q-36 0 -63.5 -10.5t-47.5 -28.5t-32.5 -41.5t-17.5 -49.5l-62 -307h-77zM232 599l-82 143l44 31l90 -116l140 117l41 -32l-138 -143h-95z" />
    <glyph glyph-name="rcommaaccent" unicode="&#x157;" horiz-adv-x="364" 
d="M36 0l104 516h77l-22 -103h5q10 19 24 37.5t32.5 33t42.5 23.5t56 9h32l-15 -79h-36q-36 0 -63.5 -10.5t-47.5 -28.5t-32.5 -41.5t-17.5 -49.5l-62 -307h-77zM59 -66q22 0 32 -9.5t10 -26.5q0 -4 -0.5 -8.5t-2.5 -15.5q-7 -34 -26 -65.5t-44 -53.5h-56q23 23 34.5 39
t21.5 37q-28 5 -28 33q0 3 0.5 8t2.5 16q9 46 56 46z" />
    <glyph glyph-name="sacute" unicode="&#x15b;" horiz-adv-x="471" 
d="M209 -12q-60 0 -112 24.5t-83 69.5l53 47q27 -36 62 -55t80 -19q51 0 84 24.5t33 72.5q0 26 -15.5 44.5t-60.5 27.5l-39 8q-29 6 -54.5 15.5t-44 25t-29 38t-10.5 54.5t11.5 61.5t35.5 52t60 36t84 13.5q57 0 98 -19.5t70 -56.5l-53 -47q-17 24 -46 40t-75 16
q-57 0 -83.5 -25t-26.5 -64q0 -27 15.5 -44.5t59.5 -26.5l39 -8q31 -6 56.5 -16t43.5 -26t28 -39t10 -55q0 -39 -14.5 -70.5t-40 -53t-60.5 -33.5t-76 -12zM295 585l-48 25l104 170l68 -36z" />
    <glyph glyph-name="scaron" unicode="&#x161;" horiz-adv-x="471" 
d="M209 -12q-60 0 -112 24.5t-83 69.5l53 47q27 -36 62 -55t80 -19q51 0 84 24.5t33 72.5q0 26 -15.5 44.5t-60.5 27.5l-39 8q-29 6 -54.5 15.5t-44 25t-29 38t-10.5 54.5t11.5 61.5t35.5 52t60 36t84 13.5q57 0 98 -19.5t70 -56.5l-53 -47q-17 24 -46 40t-75 16
q-57 0 -83.5 -25t-26.5 -64q0 -27 15.5 -44.5t59.5 -26.5l39 -8q31 -6 56.5 -16t43.5 -26t28 -39t10 -55q0 -39 -14.5 -70.5t-40 -53t-60.5 -33.5t-76 -12zM237 599l-82 143l44 31l90 -116l140 117l41 -32l-138 -143h-95z" />
    <glyph glyph-name="scedilla" unicode="&#x15f;" horiz-adv-x="471" 
d="M183 -207q-38 0 -64 11t-37 26l40 41q7 -10 22 -17.5t37 -7.5t34 10t12 26t-11.5 25.5t-43.5 13.5l-26 3l21 67q-47 8 -87.5 31t-65.5 60l53 47q27 -36 62 -55t80 -19q51 0 84 24.5t33 72.5q0 26 -15.5 44.5t-60.5 27.5l-39 8q-29 6 -54.5 15.5t-44 25t-29 38t-10.5 54.5
t11.5 61.5t35.5 52t60 36t84 13.5q57 0 98 -19.5t70 -56.5l-53 -47q-17 24 -46 40t-75 16q-57 0 -83.5 -25t-26.5 -64q0 -27 15.5 -44.5t59.5 -26.5l39 -8q31 -6 56.5 -16t43.5 -26t28 -39t10 -55q0 -38 -14 -69t-38.5 -52.5t-58.5 -34t-74 -13.5l-16 -50l2 -2l12.5 2.5
t18.5 1.5q25 0 42 -12t17 -44q0 -42 -30 -66.5t-78 -24.5z" />
    <glyph glyph-name="scircumflex" unicode="&#x15d;" horiz-adv-x="471" 
d="M209 -12q-60 0 -112 24.5t-83 69.5l53 47q27 -36 62 -55t80 -19q51 0 84 24.5t33 72.5q0 26 -15.5 44.5t-60.5 27.5l-39 8q-29 6 -54.5 15.5t-44 25t-29 38t-10.5 54.5t11.5 61.5t35.5 52t60 36t84 13.5q57 0 98 -19.5t70 -56.5l-53 -47q-17 24 -46 40t-75 16
q-57 0 -83.5 -25t-26.5 -64q0 -27 15.5 -44.5t59.5 -26.5l39 -8q31 -6 56.5 -16t43.5 -26t28 -39t10 -55q0 -39 -14.5 -70.5t-40 -53t-60.5 -33.5t-76 -12zM356 765l82 -143l-43 -31l-93 115l-139 -116l-39 32l138 143h94z" />
    <glyph glyph-name="scommaaccent" unicode="&#x219;" horiz-adv-x="471" 
d="M209 -12q-60 0 -112 24.5t-83 69.5l53 47q27 -36 62 -55t80 -19q51 0 84 24.5t33 72.5q0 26 -15.5 44.5t-60.5 27.5l-39 8q-29 6 -54.5 15.5t-44 25t-29 38t-10.5 54.5t11.5 61.5t35.5 52t60 36t84 13.5q57 0 98 -19.5t70 -56.5l-53 -47q-17 24 -46 40t-75 16
q-57 0 -83.5 -25t-26.5 -64q0 -27 15.5 -44.5t59.5 -26.5l39 -8q31 -6 56.5 -16t43.5 -26t28 -39t10 -55q0 -39 -14.5 -70.5t-40 -53t-60.5 -33.5t-76 -12zM179 -66q22 0 32 -9.5t10 -26.5q0 -4 -0.5 -8.5t-2.5 -15.5q-7 -34 -26 -65.5t-44 -53.5h-56q23 23 34.5 39t21.5 37
q-28 5 -28 33q0 3 0.5 8t2.5 16q9 46 56 46z" />
    <glyph glyph-name="germandbls" unicode="&#xdf;" horiz-adv-x="641" 
d="M586 154q0 -38 -13.5 -68.5t-37.5 -52.5t-57 -33.5t-72 -11.5q-60 0 -112 24.5t-83 69.5l53 47q27 -36 62 -55t80 -19q47 0 76.5 24t29.5 71q0 26 -11 41.5t-43 26.5l-39 13q-25 8 -46.5 18t-37.5 25t-25.5 37t-9.5 55q0 31 15 59.5t42 50t66 34t87 12.5l1 5q6 31 6 57
q0 51 -29 76.5t-83 25.5q-35 0 -62.5 -8t-48.5 -26.5t-35.5 -49t-23.5 -75.5l-105 -527h-78l89 446h-84l14 70h84l2 11q23 113 89 169t169 56q39 0 72 -11.5t56 -33.5t36 -53t13 -70q0 -32 -6 -63l-12 -61h-45q-77 0 -115.5 -24t-38.5 -66q0 -26 12 -42.5t44 -27.5l39 -13
q24 -8 45 -17.5t37 -24.5t25 -37t9 -54z" />
    <glyph glyph-name="germandbls.alt01" horiz-adv-x="550" 
d="M37 0l126 626q11 53 38.5 83.5t87.5 30.5h130l-14 -66h-155l-32 -158h320l-13 -65l-206 -241q78 -8 118.5 -47.5t40.5 -114.5q0 -60 -20 -106.5t-56.5 -78t-89 -47.5t-116.5 -16h-65l14 69h57q34 0 65 5.5t56 20.5t42.5 40.5t25.5 64.5q4 19 5 31.5t1 24.5q0 50 -39 72.5
t-112 22.5h-16l14 72l196 227h-235l-90 -450h-78z" />
    <glyph glyph-name="tbar" unicode="&#x167;" horiz-adv-x="326" 
d="M233 0h-94q-35 0 -52.5 17.5t-17.5 45.5q0 9 3 24l33 166h-46l11 54h46l29 141h-76l13 68h39q28 0 37.5 11t14.5 38l19 94h71l-28 -143h109l-13 -68h-109l-29 -141h89l-11 -54h-89l-37 -185h101z" />
    <glyph glyph-name="tcaron" unicode="&#x165;" horiz-adv-x="320" 
d="M136 0q-35 0 -52.5 17.5t-17.5 45.5q0 9 3 24l73 361h-76l13 68h39q28 0 37.5 11t14.5 38l19 94h71l-28 -143h109l-13 -68h-109l-77 -380h101l-13 -68h-94zM363 566h-53l35 185h93z" />
    <glyph glyph-name="uni021B" unicode="&#x21b;" horiz-adv-x="320" 
d="M136 0q-35 0 -52.5 17.5t-17.5 45.5q0 9 3 24l73 361h-76l13 68h39q28 0 37.5 11t14.5 38l19 94h71l-28 -143h109l-13 -68h-109l-77 -380h101l-13 -68h-94zM128 -66q22 0 32 -9.5t10 -26.5q0 -4 -0.5 -8.5t-2.5 -15.5q-7 -34 -26 -65.5t-44 -53.5h-56q23 23 34.5 39
t21.5 37q-28 5 -28 33q0 3 0.5 8t2.5 16q9 46 56 46z" />
    <glyph glyph-name="uni0163" unicode="&#x163;" horiz-adv-x="320" 
d="M136 0q-35 0 -52.5 17.5t-17.5 45.5q0 9 3 24l73 361h-76l13 68h39q28 0 37.5 11t14.5 38l19 94h71l-28 -143h109l-13 -68h-109l-77 -380h101l-13 -68h-94zM128 -66q22 0 32 -9.5t10 -26.5q0 -4 -0.5 -8.5t-2.5 -15.5q-7 -34 -26 -65.5t-44 -53.5h-56q23 23 34.5 39
t21.5 37q-28 5 -28 33q0 3 0.5 8t2.5 16q9 46 56 46z" />
    <glyph glyph-name="thorn" unicode="&#xfe;" horiz-adv-x="572" 
d="M185 740h77l-68 -336h3q32 65 71 94.5t96 29.5q71 0 114 -52.5t43 -144.5q0 -57 -15.5 -117.5t-46.5 -111t-78.5 -82.5t-111.5 -32q-23 0 -45 6t-40 18t-31 30t-19 42h-4l-57 -284h-77zM262 58q63 0 104 41t56 116l15 75q5 28 5 51q0 25 -5.5 46t-17.5 37t-30.5 25
t-43.5 9q-36 0 -61.5 -14t-48.5 -37q-25 -25 -41 -55t-24 -69l-21 -105q-5 -24 -1 -46t18 -38.5t37.5 -26t58.5 -9.5z" />
    <glyph glyph-name="uacute" unicode="&#xfa;" horiz-adv-x="562" 
d="M211 516l-64 -318q-3 -15 -4 -29.5t-1 -23.5q0 -43 17.5 -65t59.5 -22q53 0 93 41q28 29 45 64.5t23 64.5l58 288h77l-90 -448h73l-13 -68h-70q-33 0 -49.5 17.5t-16.5 45.5q0 10 4 29l2 10h-5q-27 -59 -64 -86.5t-91 -27.5q-66 0 -99 38t-33 105q0 14 1.5 31t5.5 36
l64 318h77zM354 585l-48 25l104 170l68 -36z" />
    <glyph glyph-name="ubreve" unicode="&#x16d;" horiz-adv-x="562" 
d="M211 516l-64 -318q-3 -15 -4 -29.5t-1 -23.5q0 -43 17.5 -65t59.5 -22q53 0 93 41q28 29 45 64.5t23 64.5l58 288h77l-90 -448h73l-13 -68h-70q-33 0 -49.5 17.5t-16.5 45.5q0 10 4 29l2 10h-5q-27 -59 -64 -86.5t-91 -27.5q-66 0 -99 38t-33 105q0 14 1.5 31t5.5 36
l64 318h77zM343 596q-37 0 -61 13.5t-38.5 33.5t-21.5 43.5t-10 43.5l46 20l10 -22q16 -35 32 -53t45 -18q27 0 49 16.5t51 54.5l17 22l48 -20q-10 -21 -23.5 -44.5t-33.5 -43.5t-47 -33t-63 -13z" />
    <glyph glyph-name="ucircumflex" unicode="&#xfb;" horiz-adv-x="562" 
d="M211 516l-64 -318q-3 -15 -4 -29.5t-1 -23.5q0 -43 17.5 -65t59.5 -22q53 0 93 41q28 29 45 64.5t23 64.5l58 288h77l-90 -448h73l-13 -68h-70q-33 0 -49.5 17.5t-16.5 45.5q0 10 4 29l2 10h-5q-27 -59 -64 -86.5t-91 -27.5q-66 0 -99 38t-33 105q0 14 1.5 31t5.5 36
l64 318h77zM415 765l82 -143l-43 -31l-93 115l-139 -116l-39 32l138 143h94z" />
    <glyph glyph-name="udieresis" unicode="&#xfc;" horiz-adv-x="562" 
d="M211 516l-64 -318q-3 -15 -4 -29.5t-1 -23.5q0 -43 17.5 -65t59.5 -22q53 0 93 41q28 29 45 64.5t23 64.5l58 288h77l-90 -448h73l-13 -68h-70q-33 0 -49.5 17.5t-16.5 45.5q0 10 4 29l2 10h-5q-27 -59 -64 -86.5t-91 -27.5q-66 0 -99 38t-33 105q0 14 1.5 31t5.5 36
l64 318h77zM254 618q-20 0 -31 9t-11 26q0 4 0.5 8.5t2.5 12.5q9 47 56 47q20 0 31 -9t11 -26q0 -5 -3 -21q-9 -47 -56 -47zM436 618q-20 0 -31 9t-11 26q0 4 0.5 8.5t2.5 12.5q9 47 56 47q20 0 31 -9t11 -26q0 -5 -3 -21q-9 -47 -56 -47z" />
    <glyph glyph-name="uni1EE5" unicode="&#x1ee5;" horiz-adv-x="562" 
d="M211 516l-64 -318q-3 -15 -4 -29.5t-1 -23.5q0 -43 17.5 -65t59.5 -22q53 0 93 41q28 29 45 64.5t23 64.5l58 288h77l-90 -448h73l-13 -68h-70q-33 0 -49.5 17.5t-16.5 45.5q0 10 4 29l2 10h-5q-27 -59 -64 -86.5t-91 -27.5q-66 0 -99 38t-33 105q0 14 1.5 31t5.5 36
l64 318h77zM226 -169q-20 0 -31 9t-11 26q0 4 0.5 8.5t2.5 12.5q9 47 56 47q20 0 31 -9t11 -26q0 -5 -3 -21q-9 -47 -56 -47z" />
    <glyph glyph-name="ugrave" unicode="&#xf9;" horiz-adv-x="562" 
d="M211 516l-64 -318q-3 -15 -4 -29.5t-1 -23.5q0 -43 17.5 -65t59.5 -22q53 0 93 41q28 29 45 64.5t23 64.5l58 288h77l-90 -448h73l-13 -68h-70q-33 0 -49.5 17.5t-16.5 45.5q0 10 4 29l2 10h-5q-27 -59 -64 -86.5t-91 -27.5q-66 0 -99 38t-33 105q0 14 1.5 31t5.5 36
l64 318h77zM242 744l68 32l61 -170l-45 -21z" />
    <glyph glyph-name="uni1EE7" unicode="&#x1ee7;" horiz-adv-x="562" 
d="M211 516l-64 -318q-3 -15 -4 -29.5t-1 -23.5q0 -43 17.5 -65t59.5 -22q53 0 93 41q28 29 45 64.5t23 64.5l58 288h77l-90 -448h73l-13 -68h-70q-33 0 -49.5 17.5t-16.5 45.5q0 10 4 29l2 10h-5q-27 -59 -64 -86.5t-91 -27.5q-66 0 -99 38t-33 105q0 14 1.5 31t5.5 36
l64 318h77zM278 765h107q37 0 49.5 -16t12.5 -33q0 -25 -17.5 -51t-43.5 -56l-28 -32l-41 23l69 106h-116z" />
    <glyph glyph-name="uhungarumlaut" unicode="&#x171;" horiz-adv-x="562" 
d="M211 516l-64 -318q-3 -15 -4 -29.5t-1 -23.5q0 -43 17.5 -65t59.5 -22q53 0 93 41q28 29 45 64.5t23 64.5l58 288h77l-90 -448h73l-13 -68h-70q-33 0 -49.5 17.5t-16.5 45.5q0 10 4 29l2 10h-5q-27 -59 -64 -86.5t-91 -27.5q-66 0 -99 38t-33 105q0 14 1.5 31t5.5 36
l64 318h77zM273 586l-45 22l105 171l63 -34zM430 586l-45 22l104 171l64 -34z" />
    <glyph glyph-name="umacron" unicode="&#x16b;" horiz-adv-x="562" 
d="M211 516l-64 -318q-3 -15 -4 -29.5t-1 -23.5q0 -43 17.5 -65t59.5 -22q53 0 93 41q28 29 45 64.5t23 64.5l58 288h77l-90 -448h73l-13 -68h-70q-33 0 -49.5 17.5t-16.5 45.5q0 10 4 29l2 10h-5q-27 -59 -64 -86.5t-91 -27.5q-66 0 -99 38t-33 105q0 14 1.5 31t5.5 36
l64 318h77zM225 705h272l-14 -66h-272z" />
    <glyph glyph-name="uogonek" unicode="&#x173;" horiz-adv-x="562" 
d="M211 516l-64 -318q-3 -15 -4 -29.5t-1 -23.5q0 -43 17.5 -65t59.5 -22q53 0 93 41q28 29 45 64.5t23 64.5l58 288h77l-90 -448h73l-13 -68q-39 -26 -62.5 -45.5t-36 -34t-16 -24.5t-3.5 -18q0 -16 9.5 -23.5t23.5 -7.5q12 0 26 6.5t28 20.5l37 -44q-13 -14 -37 -25.5
t-59 -11.5q-19 0 -36 4t-30.5 13t-21.5 23.5t-8 34.5q0 42 34 71.5t91 55.5l-1 5q-41 0 -57.5 17.5t-16.5 45.5q0 10 4 29l2 10h-5q-27 -59 -64 -86.5t-91 -27.5q-66 0 -99 38t-33 105q0 14 1.5 31t5.5 36l64 318h77z" />
    <glyph glyph-name="uring" unicode="&#x16f;" horiz-adv-x="562" 
d="M211 516l-64 -318q-3 -15 -4 -29.5t-1 -23.5q0 -43 17.5 -65t59.5 -22q53 0 93 41q28 29 45 64.5t23 64.5l58 288h77l-90 -448h73l-13 -68h-70q-33 0 -49.5 17.5t-16.5 45.5q0 10 4 29l2 10h-5q-27 -59 -64 -86.5t-91 -27.5q-66 0 -99 38t-33 105q0 14 1.5 31t5.5 36
l64 318h77zM343 576q-45 0 -72.5 28.5t-27.5 71.5q0 60 35 95t94 35q45 0 72.5 -28.5t27.5 -71.5q0 -60 -35 -95t-94 -35zM349 624q52 0 63 56q4 19 4 31q0 47 -50 47q-52 0 -63 -56q-4 -19 -4 -31q0 -47 50 -47z" />
    <glyph glyph-name="utilde" unicode="&#x169;" horiz-adv-x="562" 
d="M211 516l-64 -318q-3 -15 -4 -29.5t-1 -23.5q0 -43 17.5 -65t59.5 -22q53 0 93 41q28 29 45 64.5t23 64.5l58 288h77l-90 -448h73l-13 -68h-70q-33 0 -49.5 17.5t-16.5 45.5q0 10 4 29l2 10h-5q-27 -59 -64 -86.5t-91 -27.5q-66 0 -99 38t-33 105q0 14 1.5 31t5.5 36
l64 318h77zM417 612q-26 0 -43 8t-31 17q-22 14 -37 19t-28 5q-17 0 -30 -7t-30 -20l-28 39q17 20 41 36.5t58 16.5q26 0 43 -8t31 -17q22 -14 37 -19t28 -5q17 0 30 7t30 20l28 -39q-17 -20 -41 -36.5t-58 -16.5z" />
    <glyph glyph-name="uhorn" unicode="&#x1b0;" horiz-adv-x="565" 
d="M415 0q-33 0 -49.5 17.5t-16.5 45.5q0 10 4 29l2 10h-5q-27 -58 -63.5 -86t-94.5 -28q-65 0 -97 38t-32 104q0 15 1.5 32t5.5 36l64 318h77l-64 -318q-3 -15 -4 -29.5t-1 -26.5q0 -42 18 -63t60 -21q52 0 92 41q26 26 44 62.5t24 66.5l58 288h84l22 112h68l-20 -101
q-5 -27 -19 -45t-49 -18h-20l-79 -396h73l-13 -68h-70z" />
    <glyph glyph-name="uni1EE9" unicode="&#x1ee9;" horiz-adv-x="565" 
d="M415 0q-33 0 -49.5 17.5t-16.5 45.5q0 10 4 29l2 10h-5q-27 -58 -63.5 -86t-94.5 -28q-65 0 -97 38t-32 104q0 15 1.5 32t5.5 36l64 318h77l-64 -318q-3 -15 -4 -29.5t-1 -26.5q0 -42 18 -63t60 -21q52 0 92 41q26 26 44 62.5t24 66.5l58 288h84l22 112h68l-20 -101
q-5 -27 -19 -45t-49 -18h-20l-79 -396h73l-13 -68h-70zM349 585l-48 25l104 170l68 -36z" />
    <glyph glyph-name="uni1EF1" unicode="&#x1ef1;" horiz-adv-x="565" 
d="M415 0q-33 0 -49.5 17.5t-16.5 45.5q0 10 4 29l2 10h-5q-27 -58 -63.5 -86t-94.5 -28q-65 0 -97 38t-32 104q0 15 1.5 32t5.5 36l64 318h77l-64 -318q-3 -15 -4 -29.5t-1 -26.5q0 -42 18 -63t60 -21q52 0 92 41q26 26 44 62.5t24 66.5l58 288h84l22 112h68l-20 -101
q-5 -27 -19 -45t-49 -18h-20l-79 -396h73l-13 -68h-70zM224 -169q-20 0 -31 9t-11 26q0 4 0.5 8.5t2.5 12.5q9 47 56 47q20 0 31 -9t11 -26q0 -5 -3 -21q-9 -47 -56 -47z" />
    <glyph glyph-name="uni1EEB" unicode="&#x1eeb;" horiz-adv-x="565" 
d="M415 0q-33 0 -49.5 17.5t-16.5 45.5q0 10 4 29l2 10h-5q-27 -58 -63.5 -86t-94.5 -28q-65 0 -97 38t-32 104q0 15 1.5 32t5.5 36l64 318h77l-64 -318q-3 -15 -4 -29.5t-1 -26.5q0 -42 18 -63t60 -21q52 0 92 41q26 26 44 62.5t24 66.5l58 288h84l22 112h68l-20 -101
q-5 -27 -19 -45t-49 -18h-20l-79 -396h73l-13 -68h-70zM237 744l68 32l61 -170l-45 -21z" />
    <glyph glyph-name="uni1EED" unicode="&#x1eed;" horiz-adv-x="565" 
d="M415 0q-33 0 -49.5 17.5t-16.5 45.5q0 10 4 29l2 10h-5q-27 -58 -63.5 -86t-94.5 -28q-65 0 -97 38t-32 104q0 15 1.5 32t5.5 36l64 318h77l-64 -318q-3 -15 -4 -29.5t-1 -26.5q0 -42 18 -63t60 -21q52 0 92 41q26 26 44 62.5t24 66.5l58 288h84l22 112h68l-20 -101
q-5 -27 -19 -45t-49 -18h-20l-79 -396h73l-13 -68h-70zM273 765h107q37 0 49.5 -16t12.5 -33q0 -25 -17.5 -51t-43.5 -56l-28 -32l-41 23l69 106h-116z" />
    <glyph glyph-name="uni1EEF" unicode="&#x1eef;" horiz-adv-x="565" 
d="M415 0q-33 0 -49.5 17.5t-16.5 45.5q0 10 4 29l2 10h-5q-27 -58 -63.5 -86t-94.5 -28q-65 0 -97 38t-32 104q0 15 1.5 32t5.5 36l64 318h77l-64 -318q-3 -15 -4 -29.5t-1 -26.5q0 -42 18 -63t60 -21q52 0 92 41q26 26 44 62.5t24 66.5l58 288h84l22 112h68l-20 -101
q-5 -27 -19 -45t-49 -18h-20l-79 -396h73l-13 -68h-70zM407 615q-20 0 -33.5 7t-29.5 16q-16 10 -28.5 15.5t-24.5 5.5q-15 0 -29 -7t-29 -20l-31 41q17 20 40 35.5t54 15.5q20 0 33.5 -7t29.5 -16q16 -10 28.5 -15.5t24.5 -5.5q15 0 29 7t29 20l31 -41q-17 -20 -40 -35.5
t-54 -15.5z" />
    <glyph glyph-name="wacute" unicode="&#x1e83;" horiz-adv-x="740" 
d="M77 516h74l9 -251l6 -191h5l79 169l128 273h75l22 -260l12 -178h5l76 174l117 264h75l-235 -516h-93l-25 279l-7 132h-5l-59 -132l-133 -279h-98zM443 585l-48 25l104 170l68 -36z" />
    <glyph glyph-name="wcircumflex" unicode="&#x175;" horiz-adv-x="740" 
d="M77 516h74l9 -251l6 -191h5l79 169l128 273h75l22 -260l12 -178h5l76 174l117 264h75l-235 -516h-93l-25 279l-7 132h-5l-59 -132l-133 -279h-98zM504 765l82 -143l-43 -31l-93 115l-139 -116l-39 32l138 143h94z" />
    <glyph glyph-name="wdieresis" unicode="&#x1e85;" horiz-adv-x="740" 
d="M77 516h74l9 -251l6 -191h5l79 169l128 273h75l22 -260l12 -178h5l76 174l117 264h75l-235 -516h-93l-25 279l-7 132h-5l-59 -132l-133 -279h-98zM343 618q-20 0 -31 9t-11 26q0 4 0.5 8.5t2.5 12.5q9 47 56 47q20 0 31 -9t11 -26q0 -5 -3 -21q-9 -47 -56 -47zM525 618
q-20 0 -31 9t-11 26q0 4 0.5 8.5t2.5 12.5q9 47 56 47q20 0 31 -9t11 -26q0 -5 -3 -21q-9 -47 -56 -47z" />
    <glyph glyph-name="wgrave" unicode="&#x1e81;" horiz-adv-x="740" 
d="M77 516h74l9 -251l6 -191h5l79 169l128 273h75l22 -260l12 -178h5l76 174l117 264h75l-235 -516h-93l-25 279l-7 132h-5l-59 -132l-133 -279h-98zM331 744l68 32l61 -170l-45 -21z" />
    <glyph glyph-name="yacute" unicode="&#xfd;" horiz-adv-x="484" 
d="M438 516h82l-349 -633q-25 -45 -48.5 -64t-62.5 -19h-80l13 66h93l64 118l-82 532h75l38 -255l21 -188h5l93 188zM321 585l-48 25l104 170l68 -36z" />
    <glyph glyph-name="ycircumflex" unicode="&#x177;" horiz-adv-x="484" 
d="M438 516h82l-349 -633q-25 -45 -48.5 -64t-62.5 -19h-80l13 66h93l64 118l-82 532h75l38 -255l21 -188h5l93 188zM382 765l82 -143l-43 -31l-93 115l-139 -116l-39 32l138 143h94z" />
    <glyph glyph-name="ydieresis" unicode="&#xff;" horiz-adv-x="484" 
d="M438 516h82l-349 -633q-25 -45 -48.5 -64t-62.5 -19h-80l13 66h93l64 118l-82 532h75l38 -255l21 -188h5l93 188zM221 618q-20 0 -31 9t-11 26q0 4 0.5 8.5t2.5 12.5q9 47 56 47q20 0 31 -9t11 -26q0 -5 -3 -21q-9 -47 -56 -47zM403 618q-20 0 -31 9t-11 26q0 4 0.5 8.5
t2.5 12.5q9 47 56 47q20 0 31 -9t11 -26q0 -5 -3 -21q-9 -47 -56 -47z" />
    <glyph glyph-name="uni1EF5" unicode="&#x1ef5;" horiz-adv-x="484" 
d="M438 516h82l-349 -633q-25 -45 -48.5 -64t-62.5 -19h-80l13 66h93l64 118l-82 532h75l38 -255l21 -188h5l93 188zM305 -169q-20 0 -31 9t-11 26q0 4 0.5 8.5t2.5 12.5q9 47 56 47q20 0 31 -9t11 -26q0 -5 -3 -21q-9 -47 -56 -47z" />
    <glyph glyph-name="ygrave" unicode="&#x1ef3;" horiz-adv-x="484" 
d="M438 516h82l-349 -633q-25 -45 -48.5 -64t-62.5 -19h-80l13 66h93l64 118l-82 532h75l38 -255l21 -188h5l93 188zM209 744l68 32l61 -170l-45 -21z" />
    <glyph glyph-name="uni1EF7" unicode="&#x1ef7;" horiz-adv-x="484" 
d="M438 516h82l-349 -633q-25 -45 -48.5 -64t-62.5 -19h-80l13 66h93l64 118l-82 532h75l38 -255l21 -188h5l93 188zM245 765h107q37 0 49.5 -16t12.5 -33q0 -25 -17.5 -51t-43.5 -56l-28 -32l-41 23l69 106h-116z" />
    <glyph glyph-name="uni1EF9" unicode="&#x1ef9;" horiz-adv-x="484" 
d="M438 516h82l-349 -633q-25 -45 -48.5 -64t-62.5 -19h-80l13 66h93l64 118l-82 532h75l38 -255l21 -188h5l93 188zM384 612q-26 0 -43 8t-31 17q-22 14 -37 19t-28 5q-17 0 -30 -7t-30 -20l-28 39q17 20 41 36.5t58 16.5q26 0 43 -8t31 -17q22 -14 37 -19t28 -5q17 0 30 7
t30 20l28 -39q-17 -20 -41 -36.5t-58 -16.5z" />
    <glyph glyph-name="zacute" unicode="&#x17a;" horiz-adv-x="448" 
d="M-5 0l13 66l343 382h-266l13 68h359l-13 -66l-343 -382h280l-13 -68h-373zM309 585l-48 25l104 170l68 -36z" />
    <glyph glyph-name="zcaron" unicode="&#x17e;" horiz-adv-x="448" 
d="M-5 0l13 66l343 382h-266l13 68h359l-13 -66l-343 -382h280l-13 -68h-373zM251 599l-82 143l44 31l90 -116l140 117l41 -32l-138 -143h-95z" />
    <glyph glyph-name="zdotaccent" unicode="&#x17c;" horiz-adv-x="448" 
d="M-5 0l13 66l343 382h-266l13 68h359l-13 -66l-343 -382h280l-13 -68h-373zM302 616q-20 0 -31 9t-11 26q0 4 0.5 8.5t2.5 12.5q9 47 56 47q20 0 31 -9t11 -26q0 -5 -3 -21q-9 -47 -56 -47z" />
    <glyph glyph-name="Aacute" unicode="&#xc1;" horiz-adv-x="623" 
d="M464 0l-26 206h-271l-108 -206h-86l373 698h107l94 -698h-83zM387 621h-5l-178 -343h226zM421 756l-49 25l104 169l68 -36z" />
    <glyph glyph-name="Abreve" unicode="&#x102;" horiz-adv-x="623" 
d="M464 0l-26 206h-271l-108 -206h-86l373 698h107l94 -698h-83zM387 621h-5l-178 -343h226zM415 766q-37 0 -61 13.5t-38.5 33.5t-21.5 43.5t-10 43.5l46 20l10 -22q16 -35 32 -53t45 -18q27 0 49 16.5t51 54.5l17 22l48 -20q-10 -21 -23.5 -44.5t-33.5 -43.5t-47 -33
t-63 -13z" />
    <glyph glyph-name="Acircumflex" unicode="&#xc2;" horiz-adv-x="623" 
d="M464 0l-26 206h-271l-108 -206h-86l373 698h107l94 -698h-83zM387 621h-5l-178 -343h226zM486 935l82 -143l-43 -30l-93 115l-139 -116l-40 32l139 142h94z" />
    <glyph glyph-name="Adieresis" unicode="&#xc4;" horiz-adv-x="623" 
d="M464 0l-26 206h-271l-108 -206h-86l373 698h107l94 -698h-83zM387 621h-5l-178 -343h226zM322 787q-20 0 -31 9t-11 26q0 5 3 23q9 47 56 47q20 0 31 -9t11 -26q0 -5 -3 -23q-9 -47 -56 -47zM504 787q-20 0 -31 9t-11 26q0 5 3 23q9 47 56 47q20 0 31 -9t11 -26
q0 -5 -3 -23q-9 -47 -56 -47z" />
    <glyph glyph-name="uni1EA0" unicode="&#x1ea0;" horiz-adv-x="623" 
d="M464 0l-26 206h-271l-108 -206h-86l373 698h107l94 -698h-83zM387 621h-5l-178 -343h226zM230 -169q-20 0 -31 9t-11 26q0 4 0.5 8.5t2.5 12.5q9 47 56 47q20 0 31 -9t11 -26q0 -5 -3 -21q-9 -47 -56 -47z" />
    <glyph glyph-name="Agrave" unicode="&#xc0;" horiz-adv-x="623" 
d="M464 0l-26 206h-271l-108 -206h-86l373 698h107l94 -698h-83zM387 621h-5l-178 -343h226zM319 916l68 32l62 -172l-46 -21z" />
    <glyph glyph-name="uni1EA2" unicode="&#x1ea2;" horiz-adv-x="623" 
d="M464 0l-26 206h-271l-108 -206h-86l373 698h107l94 -698h-83zM387 621h-5l-178 -343h226zM346 935h107q19 0 31 -4.5t19 -11.5t9.5 -15.5t2.5 -17.5q0 -26 -17 -51t-44 -56l-28 -32l-41 23l69 105h-116z" />
    <glyph glyph-name="Amacron" unicode="&#x100;" horiz-adv-x="623" 
d="M464 0l-26 206h-271l-108 -206h-86l373 698h107l94 -698h-83zM387 621h-5l-178 -343h226zM294 875h272l-14 -66h-272z" />
    <glyph glyph-name="Aogonek" unicode="&#x104;" horiz-adv-x="623" 
d="M346 698h107l94 -698q-39 -26 -62.5 -45.5t-36 -34t-16 -24.5t-3.5 -18q0 -16 9.5 -23.5t23.5 -7.5q12 0 26 6.5t28 20.5l37 -44q-13 -14 -37 -25.5t-59 -11.5q-19 0 -36 4t-30.5 13t-21.5 23.5t-8 34.5q0 42 34 71.5t91 55.5l-1 5h-21l-26 206h-271l-108 -206h-86z
M387 621h-5l-178 -343h226z" />
    <glyph glyph-name="Aring" unicode="&#xc5;" horiz-adv-x="623" 
d="M464 0l-26 206h-271l-108 -206h-86l373 698h107l94 -698h-83zM387 621h-5l-178 -343h226zM413 746q-45 0 -72.5 28.5t-27.5 71.5q0 60 35 95t94 35q45 0 72.5 -28.5t27.5 -71.5q0 -60 -35 -95t-94 -35zM419 794q52 0 63 56q4 19 4 31q0 47 -50 47q-52 0 -63 -56
q-4 -19 -4 -31q0 -47 50 -47z" />
    <glyph glyph-name="Aringacute" unicode="&#x1fa;" horiz-adv-x="623" 
d="M464 0l-26 206h-271l-108 -206h-86l373 698h107l94 -698h-83zM387 621h-5l-178 -343h226zM452 986l-37 27l89 107l54 -38zM411 736q-45 0 -72.5 28.5t-27.5 71.5q0 60 35 95.5t94 35.5q45 0 72.5 -28.5t27.5 -71.5q0 -60 -35 -95.5t-94 -35.5zM417 783q52 0 63 57
q4 20 4 32q0 47 -50 47q-52 0 -63 -56q-4 -20 -4 -32q0 -48 50 -48z" />
    <glyph glyph-name="Atilde" unicode="&#xc3;" horiz-adv-x="623" 
d="M464 0l-26 206h-271l-108 -206h-86l373 698h107l94 -698h-83zM387 621h-5l-178 -343h226zM487 782q-26 0 -43.5 9t-31.5 17q-22 14 -37 19t-28 5q-16 0 -29.5 -7t-30.5 -20l-27 38q16 21 40.5 37.5t58.5 16.5q26 0 43.5 -9t31.5 -17q22 -14 37 -19t28 -5q16 0 29.5 7
t30.5 20l27 -38q-16 -21 -40.5 -37.5t-58.5 -16.5z" />
    <glyph glyph-name="uni1EAE" unicode="&#x1eae;" horiz-adv-x="623" 
d="M464 0l-26 206h-271l-108 -206h-86l373 698h107l94 -698h-83zM387 621h-5l-178 -343h226zM412 757q-37 0 -61 13.5t-38.5 33.5t-21.5 43.5t-10 43.5l46 20l8 -22q14 -38 31.5 -56t47.5 -18q27 0 51.5 14.5t50.5 56.5l15 25l48 -20q-10 -21 -23.5 -44.5t-33.5 -43.5
t-47 -33t-63 -13zM434 869l-48 25l104 170l67 -35z" />
    <glyph glyph-name="uni1EB6" unicode="&#x1eb6;" horiz-adv-x="623" 
d="M464 0l-26 206h-271l-108 -206h-86l373 698h107l94 -698h-83zM387 621h-5l-178 -343h226zM415 766q-37 0 -61 13.5t-38.5 33.5t-21.5 43.5t-10 43.5l46 20l10 -22q16 -35 32 -53t45 -18q27 0 49 16.5t51 54.5l17 22l48 -20q-10 -21 -23.5 -44.5t-33.5 -43.5t-47 -33
t-63 -13zM230 -169q-20 0 -31 9t-11 26q0 4 0.5 8.5t2.5 12.5q9 47 56 47q20 0 31 -9t11 -26q0 -5 -3 -21q-9 -47 -56 -47z" />
    <glyph glyph-name="uni1EB0" unicode="&#x1eb0;" horiz-adv-x="623" 
d="M464 0l-26 206h-271l-108 -206h-86l373 698h107l94 -698h-83zM387 621h-5l-178 -343h226zM412 757q-37 0 -61 13.5t-38.5 33.5t-21.5 43.5t-10 43.5l46 20l8 -22q14 -38 31.5 -56t47.5 -18q27 0 51.5 14.5t50.5 56.5l15 25l48 -20q-10 -21 -23.5 -44.5t-33.5 -43.5
t-47 -33t-63 -13zM326 1032l69 31l61 -170l-46 -21z" />
    <glyph glyph-name="uni1EB2" unicode="&#x1eb2;" horiz-adv-x="623" 
d="M464 0l-26 206h-271l-108 -206h-86l373 698h107l94 -698h-83zM387 621h-5l-178 -343h226zM357 1050h107q37 0 49.5 -16t12.5 -33q0 -25 -17.5 -51t-43.5 -56l-28 -32l-41 23l69 108h-116zM412 757q-37 0 -61 13.5t-38.5 33.5t-21.5 43.5t-10 43.5l46 20l8 -22
q14 -38 31.5 -56t47.5 -18q27 0 51.5 14.5t50.5 56.5l15 25l48 -20q-10 -21 -23.5 -44.5t-33.5 -43.5t-47 -33t-63 -13z" />
    <glyph glyph-name="uni1EB4" unicode="&#x1eb4;" horiz-adv-x="623" 
d="M464 0l-26 206h-271l-108 -206h-86l373 698h107l94 -698h-83zM387 621h-5l-178 -343h226zM507 942q-26 0 -43.5 9t-31.5 17q-22 14 -37 19t-28 5q-16 0 -29.5 -6.5t-30.5 -19.5l-27 37q14 20 39 35.5t59 15.5q26 0 43.5 -9t31.5 -17q22 -14 37 -19t28 -5q16 0 30 7t31 20
l26 -34q-15 -21 -39.5 -38t-58.5 -17zM412 757q-37 0 -61 13.5t-38.5 33.5t-21.5 43.5t-10 43.5l46 20l8 -22q14 -38 31.5 -56t47.5 -18q27 0 51.5 14.5t50.5 56.5l15 25l48 -20q-10 -21 -23.5 -44.5t-33.5 -43.5t-47 -33t-63 -13z" />
    <glyph glyph-name="uni1EA4" unicode="&#x1ea4;" horiz-adv-x="623" 
d="M464 0l-26 206h-271l-108 -206h-86l373 698h107l94 -698h-83zM387 621h-5l-178 -343h226zM579 867l-49 24l104 171l68 -36zM482 915l85 -133l-41 -32l-95 113l-131 -113l-40 32l128 133h94z" />
    <glyph glyph-name="uni1EAC" unicode="&#x1eac;" horiz-adv-x="623" 
d="M464 0l-26 206h-271l-108 -206h-86l373 698h107l94 -698h-83zM387 621h-5l-178 -343h226zM486 935l82 -143l-43 -30l-93 115l-139 -116l-40 32l139 142h94zM230 -169q-20 0 -31 9t-11 26q0 4 0.5 8.5t2.5 12.5q9 47 56 47q20 0 31 -9t11 -26q0 -5 -3 -21q-9 -47 -56 -47z
" />
    <glyph glyph-name="uni1EA6" unicode="&#x1ea6;" horiz-adv-x="623" 
d="M464 0l-26 206h-271l-108 -206h-86l373 698h107l94 -698h-83zM387 621h-5l-178 -343h226zM195 1030l67 31l62 -170l-45 -21zM481 915l85 -133l-41 -32l-95 113l-131 -113l-40 32l128 133h94z" />
    <glyph glyph-name="uni1EA8" unicode="&#x1ea8;" horiz-adv-x="623" 
d="M464 0l-26 206h-271l-108 -206h-86l373 698h107l94 -698h-83zM387 621h-5l-178 -343h226zM489 1050h106q37 0 49 -16t12 -33q0 -26 -17 -52t-44 -57l-27 -30l-41 23l68 109h-116zM481 915l85 -133l-41 -32l-95 113l-131 -113l-40 32l128 133h94z" />
    <glyph glyph-name="uni1EAA" unicode="&#x1eaa;" horiz-adv-x="623" 
d="M464 0l-26 206h-271l-108 -206h-86l373 698h107l94 -698h-83zM387 621h-5l-178 -343h226zM381 1054q25 0 42 -9t31 -17q22 -14 37 -19t28 -5q16 0 30 7t31 20l27 -36q-17 -20 -41.5 -36.5t-58.5 -16.5q-25 0 -42 9t-31 17q-22 14 -37 19t-28 5q-16 0 -30 -7t-31 -20
l-27 38q17 20 41.5 35.5t58.5 15.5zM482 915l84 -132l-41 -32l-95 112l-130 -112l-41 32l129 132h94z" />
    <glyph glyph-name="AE" unicode="&#xc6;" horiz-adv-x="886" 
d="M401 205h-212l-139 -205h-92l482 698h471l-15 -72h-329l-47 -236h296l-14 -72h-297l-49 -246h346l-14 -72h-428zM477 631l-238 -355h177l71 355h-10z" />
    <glyph glyph-name="AEacute" unicode="&#x1fc;" horiz-adv-x="886" 
d="M401 205h-212l-139 -205h-92l482 698h471l-15 -72h-329l-47 -236h296l-14 -72h-297l-49 -246h346l-14 -72h-428zM477 631l-238 -355h177l71 355h-10zM676 756l-49 25l104 169l68 -36z" />
    <glyph glyph-name="Cacute" unicode="&#x106;" horiz-adv-x="602" 
d="M290 -12q-51 0 -94 18t-74.5 53.5t-49 87t-17.5 119.5q0 91 24 171.5t68 141t106 96t138 35.5q85 0 141.5 -39t82.5 -120l-73 -33q-19 59 -56 89t-103 30q-40 0 -75.5 -15t-64 -42.5t-49 -66t-29.5 -86.5l-23 -115q-4 -19 -5 -35t-1 -31q0 -41 11 -75t31 -58.5t49.5 -38
t67.5 -13.5q36 0 64.5 9t51 25.5t41 41t35.5 54.5l68 -34q-46 -87 -109 -128t-156 -41zM418 756l-49 25l104 169l68 -36z" />
    <glyph glyph-name="Ccaron" unicode="&#x10c;" horiz-adv-x="602" 
d="M290 -12q-51 0 -94 18t-74.5 53.5t-49 87t-17.5 119.5q0 91 24 171.5t68 141t106 96t138 35.5q85 0 141.5 -39t82.5 -120l-73 -33q-19 59 -56 89t-103 30q-40 0 -75.5 -15t-64 -42.5t-49 -66t-29.5 -86.5l-23 -115q-4 -19 -5 -35t-1 -31q0 -41 11 -75t31 -58.5t49.5 -38
t67.5 -13.5q36 0 64.5 9t51 25.5t41 41t35.5 54.5l68 -34q-46 -87 -109 -128t-156 -41zM362 769l-82 143l44 31l90 -116l140 117l41 -32l-139 -143h-94z" />
    <glyph glyph-name="Ccedilla" unicode="&#xc7;" horiz-adv-x="602" 
d="M383 637q-40 0 -75.5 -15t-64 -42.5t-49 -66t-29.5 -86.5l-23 -115q-4 -19 -5 -35t-1 -31q0 -41 11 -75t31 -58.5t49.5 -38t67.5 -13.5q36 0 64.5 9t51 25.5t41 41t35.5 54.5l68 -34q-44 -84 -104.5 -125t-148.5 -44l-16 -50l2 -2l12.5 2.5t18.5 1.5q25 0 42 -12t17 -44
q0 -42 -30 -66.5t-78 -24.5q-38 0 -64 11t-37 26l40 41q7 -10 22 -17.5t37 -7.5t34 10t12 26t-11.5 25.5t-43.5 13.5l-26 3l20 66q-44 7 -80.5 28t-62.5 55.5t-40.5 83t-14.5 109.5q0 91 24 171.5t68 141t106 96t138 35.5q85 0 141.5 -39t82.5 -120l-73 -33q-19 59 -56 89
t-103 30z" />
    <glyph glyph-name="Ccircumflex" unicode="&#x108;" horiz-adv-x="602" 
d="M290 -12q-51 0 -94 18t-74.5 53.5t-49 87t-17.5 119.5q0 91 24 171.5t68 141t106 96t138 35.5q85 0 141.5 -39t82.5 -120l-73 -33q-19 59 -56 89t-103 30q-40 0 -75.5 -15t-64 -42.5t-49 -66t-29.5 -86.5l-23 -115q-4 -19 -5 -35t-1 -31q0 -41 11 -75t31 -58.5t49.5 -38
t67.5 -13.5q36 0 64.5 9t51 25.5t41 41t35.5 54.5l68 -34q-46 -87 -109 -128t-156 -41zM483 935l82 -143l-43 -30l-93 115l-139 -116l-40 32l139 142h94z" />
    <glyph glyph-name="Cdotaccent" unicode="&#x10a;" horiz-adv-x="602" 
d="M290 -12q-51 0 -94 18t-74.5 53.5t-49 87t-17.5 119.5q0 91 24 171.5t68 141t106 96t138 35.5q85 0 141.5 -39t82.5 -120l-73 -33q-19 59 -56 89t-103 30q-40 0 -75.5 -15t-64 -42.5t-49 -66t-29.5 -86.5l-23 -115q-4 -19 -5 -35t-1 -31q0 -41 11 -75t31 -58.5t49.5 -38
t67.5 -13.5q36 0 64.5 9t51 25.5t41 41t35.5 54.5l68 -34q-46 -87 -109 -128t-156 -41zM412 787q-20 0 -31 9t-11 26q0 4 0.5 8.5t2.5 12.5q9 47 56 47q20 0 31 -9t11 -26q0 -5 -3 -21q-9 -47 -56 -47z" />
    <glyph glyph-name="Dcaron" unicode="&#x10e;" horiz-adv-x="652" 
d="M179 698h205q112 0 175.5 -68t63.5 -203q0 -81 -23 -158t-67.5 -136.5t-109.5 -96t-148 -36.5h-236zM277 72q90 0 152 55.5t83 161.5l21 105q6 30 6 61q0 84 -43 127.5t-116 43.5h-135l-110 -554h142zM347 769l-82 143l44 31l90 -116l140 117l41 -32l-139 -143h-94z" />
    <glyph glyph-name="Dcroat" unicode="&#x110;" horiz-adv-x="655" 
d="M110 338h-74l13 62h74l59 298h205q112 0 175.5 -68t63.5 -203q0 -81 -23 -158t-67.5 -136.5t-109.5 -96t-148 -36.5h-236zM280 72q90 0 152 56t83 161l21 105q6 30 6 61q0 83 -43 127t-116 44h-135l-45 -226h133l-13 -62h-132l-53 -266h142z" />
    <glyph glyph-name="Eth" unicode="&#xd0;" horiz-adv-x="655" 
d="M110 338h-74l13 62h74l59 298h205q112 0 175.5 -68t63.5 -203q0 -81 -23 -158t-67.5 -136.5t-109.5 -96t-148 -36.5h-236zM280 72q90 0 152 56t83 161l21 105q6 30 6 61q0 83 -43 127t-116 44h-135l-45 -226h133l-13 -62h-132l-53 -266h142z" />
    <glyph glyph-name="Eacute" unicode="&#xc9;" horiz-adv-x="565" 
d="M39 0l140 698h411l-15 -72h-329l-47 -236h296l-14 -72h-297l-49 -246h346l-14 -72h-428zM402 756l-49 25l104 169l68 -36z" />
    <glyph glyph-name="Ebreve" unicode="&#x114;" horiz-adv-x="565" 
d="M39 0l140 698h411l-15 -72h-329l-47 -236h296l-14 -72h-297l-49 -246h346l-14 -72h-428zM396 766q-37 0 -61 13.5t-38.5 33.5t-21.5 43.5t-10 43.5l46 20l10 -22q16 -35 32 -53t45 -18q27 0 49 16.5t51 54.5l17 22l48 -20q-10 -21 -23.5 -44.5t-33.5 -43.5t-47 -33
t-63 -13z" />
    <glyph glyph-name="Ecaron" unicode="&#x11a;" horiz-adv-x="565" 
d="M39 0l140 698h411l-15 -72h-329l-47 -236h296l-14 -72h-297l-49 -246h346l-14 -72h-428zM346 769l-82 143l44 31l90 -116l140 117l41 -32l-139 -143h-94z" />
    <glyph glyph-name="Ecircumflex" unicode="&#xca;" horiz-adv-x="565" 
d="M39 0l140 698h411l-15 -72h-329l-47 -236h296l-14 -72h-297l-49 -246h346l-14 -72h-428zM467 935l82 -143l-43 -30l-93 115l-139 -116l-40 32l139 142h94z" />
    <glyph glyph-name="Edieresis" unicode="&#xcb;" horiz-adv-x="565" 
d="M39 0l140 698h411l-15 -72h-329l-47 -236h296l-14 -72h-297l-49 -246h346l-14 -72h-428zM303 787q-20 0 -31 9t-11 26q0 5 3 23q9 47 56 47q20 0 31 -9t11 -26q0 -5 -3 -23q-9 -47 -56 -47zM485 787q-20 0 -31 9t-11 26q0 5 3 23q9 47 56 47q20 0 31 -9t11 -26
q0 -5 -3 -23q-9 -47 -56 -47z" />
    <glyph glyph-name="Edotaccent" unicode="&#x116;" horiz-adv-x="565" 
d="M39 0l140 698h411l-15 -72h-329l-47 -236h296l-14 -72h-297l-49 -246h346l-14 -72h-428zM396 787q-20 0 -31 9t-11 26q0 4 0.5 8.5t2.5 12.5q9 47 56 47q20 0 31 -9t11 -26q0 -5 -3 -21q-9 -47 -56 -47z" />
    <glyph glyph-name="uni1EB8" unicode="&#x1eb8;" horiz-adv-x="565" 
d="M39 0l140 698h411l-15 -72h-329l-47 -236h296l-14 -72h-297l-49 -246h346l-14 -72h-428zM220 -169q-20 0 -31 9t-11 26q0 4 0.5 8.5t2.5 12.5q9 47 56 47q20 0 31 -9t11 -26q0 -5 -3 -21q-9 -47 -56 -47z" />
    <glyph glyph-name="Egrave" unicode="&#xc8;" horiz-adv-x="565" 
d="M39 0l140 698h411l-15 -72h-329l-47 -236h296l-14 -72h-297l-49 -246h346l-14 -72h-428zM300 916l68 32l62 -172l-46 -21z" />
    <glyph glyph-name="uni1EBA" unicode="&#x1eba;" horiz-adv-x="565" 
d="M39 0l140 698h411l-15 -72h-329l-47 -236h296l-14 -72h-297l-49 -246h346l-14 -72h-428zM327 935h107q19 0 31 -4.5t19 -11.5t9.5 -15.5t2.5 -17.5q0 -26 -17 -51t-44 -56l-28 -32l-41 23l69 105h-116z" />
    <glyph glyph-name="Emacron" unicode="&#x112;" horiz-adv-x="565" 
d="M39 0l140 698h411l-15 -72h-329l-47 -236h296l-14 -72h-297l-49 -246h346l-14 -72h-428zM275 875h272l-14 -66h-272z" />
    <glyph glyph-name="Eogonek" unicode="&#x118;" horiz-adv-x="565" 
d="M179 698h411l-15 -72h-329l-47 -236h296l-14 -72h-297l-49 -246h346l-14 -72q-39 -26 -62.5 -45.5t-36 -34t-16 -24.5t-3.5 -18q0 -16 9.5 -23.5t23.5 -7.5q12 0 26 6.5t28 20.5l37 -44q-13 -14 -37 -25.5t-59 -11.5q-19 0 -36 4t-30.5 13t-21.5 23.5t-8 34.5
q0 42 34 71.5t91 55.5l-1 5h-366z" />
    <glyph glyph-name="uni1EBC" unicode="&#x1ebc;" horiz-adv-x="565" 
d="M39 0l140 698h411l-15 -72h-329l-47 -236h296l-14 -72h-297l-49 -246h346l-14 -72h-428zM468 782q-26 0 -43.5 9t-31.5 17q-22 14 -37 19t-28 5q-16 0 -29.5 -7t-30.5 -20l-27 38q16 21 40.5 37.5t58.5 16.5q26 0 43.5 -9t31.5 -17q22 -14 37 -19t28 -5q16 0 29.5 7
t30.5 20l27 -38q-16 -21 -40.5 -37.5t-58.5 -16.5z" />
    <glyph glyph-name="uni1EBE" unicode="&#x1ebe;" horiz-adv-x="565" 
d="M39 0l140 698h411l-15 -72h-329l-47 -236h296l-14 -72h-297l-49 -246h346l-14 -72h-428zM560 867l-49 24l104 171l68 -36zM463 915l85 -133l-41 -32l-95 113l-131 -113l-40 32l128 133h94z" />
    <glyph glyph-name="uni1EC6" unicode="&#x1ec6;" horiz-adv-x="565" 
d="M39 0l140 698h411l-15 -72h-329l-47 -236h296l-14 -72h-297l-49 -246h346l-14 -72h-428zM467 935l82 -143l-43 -30l-93 115l-139 -116l-40 32l139 142h94zM220 -169q-20 0 -31 9t-11 26q0 4 0.5 8.5t2.5 12.5q9 47 56 47q20 0 31 -9t11 -26q0 -5 -3 -21q-9 -47 -56 -47z
" />
    <glyph glyph-name="uni1EC0" unicode="&#x1ec0;" horiz-adv-x="565" 
d="M39 0l140 698h411l-15 -72h-329l-47 -236h296l-14 -72h-297l-49 -246h346l-14 -72h-428zM176 1030l67 31l62 -170l-45 -21zM462 915l85 -133l-41 -32l-95 113l-131 -113l-40 32l128 133h94z" />
    <glyph glyph-name="uni1EC2" unicode="&#x1ec2;" horiz-adv-x="565" 
d="M39 0l140 698h411l-15 -72h-329l-47 -236h296l-14 -72h-297l-49 -246h346l-14 -72h-428zM470 1050h106q37 0 49 -16t12 -33q0 -26 -17 -52t-44 -57l-27 -30l-41 23l68 109h-116zM462 915l85 -133l-41 -32l-95 113l-131 -113l-40 32l128 133h94z" />
    <glyph glyph-name="uni1EC4" unicode="&#x1ec4;" horiz-adv-x="565" 
d="M39 0l140 698h411l-15 -72h-329l-47 -236h296l-14 -72h-297l-49 -246h346l-14 -72h-428zM362 1054q25 0 42 -9t31 -17q22 -14 37 -19t28 -5q16 0 30 7t31 20l27 -36q-17 -20 -41.5 -36.5t-58.5 -16.5q-25 0 -42 9t-31 17q-22 14 -37 19t-28 5q-16 0 -30 -7t-31 -20
l-27 38q17 20 41.5 35.5t58.5 15.5zM463 915l84 -132l-41 -32l-95 112l-130 -112l-41 32l129 132h94z" />
    <glyph glyph-name="uni018F" unicode="&#x18f;" horiz-adv-x="679" 
d="M295 -12q-53 0 -97 19t-76 53.5t-49.5 84t-17.5 110.5q0 22 2.5 45t7.5 49l4 22h491q7 29 8.5 51t1.5 37q0 80 -44 129t-128 49q-29 0 -58 -6.5t-56.5 -22t-54 -42.5t-48.5 -68l-61 34q40 82 115 130t170 48q60 0 106 -20t77.5 -56t47.5 -86t16 -110q0 -84 -23 -165
t-68.5 -144.5t-112 -102t-153.5 -38.5zM301 61q97 0 159 63t85 179h-402q-3 -14 -5 -33.5t-2 -34.5q0 -79 42.5 -126.5t122.5 -47.5z" />
    <glyph glyph-name="Gbreve" unicode="&#x11e;" horiz-adv-x="661" 
d="M483 102h-4q-11 -23 -29 -44t-43 -36.5t-57 -24.5t-70 -9q-50 0 -91 18t-71 53t-46.5 87t-16.5 120q0 88 23 168t67.5 141.5t109.5 98t149 36.5q91 0 152.5 -42.5t83.5 -116.5l-73 -33q-20 57 -61.5 88t-111.5 31q-89 0 -149.5 -58.5t-81.5 -161.5l-21 -104
q-6 -30 -6 -60q0 -91 43.5 -141.5t124.5 -50.5q36 0 68.5 11t59.5 32t46.5 53t27.5 74l11 55h-149l16 74h227l-72 -360h-77zM429 766q-37 0 -61 13.5t-38.5 33.5t-21.5 43.5t-10 43.5l46 20l10 -22q16 -35 32 -53t45 -18q27 0 49 16.5t51 54.5l17 22l48 -20
q-10 -21 -23.5 -44.5t-33.5 -43.5t-47 -33t-63 -13z" />
    <glyph glyph-name="Gcircumflex" unicode="&#x11c;" horiz-adv-x="661" 
d="M483 102h-4q-11 -23 -29 -44t-43 -36.5t-57 -24.5t-70 -9q-50 0 -91 18t-71 53t-46.5 87t-16.5 120q0 88 23 168t67.5 141.5t109.5 98t149 36.5q91 0 152.5 -42.5t83.5 -116.5l-73 -33q-20 57 -61.5 88t-111.5 31q-89 0 -149.5 -58.5t-81.5 -161.5l-21 -104
q-6 -30 -6 -60q0 -91 43.5 -141.5t124.5 -50.5q36 0 68.5 11t59.5 32t46.5 53t27.5 74l11 55h-149l16 74h227l-72 -360h-77zM500 935l82 -143l-43 -30l-93 115l-139 -116l-40 32l139 142h94z" />
    <glyph glyph-name="Gcommaaccent" unicode="&#x122;" horiz-adv-x="661" 
d="M483 102h-4q-11 -23 -29 -44t-43 -36.5t-57 -24.5t-70 -9q-50 0 -91 18t-71 53t-46.5 87t-16.5 120q0 88 23 168t67.5 141.5t109.5 98t149 36.5q91 0 152.5 -42.5t83.5 -116.5l-73 -33q-20 57 -61.5 88t-111.5 31q-89 0 -149.5 -58.5t-81.5 -161.5l-21 -104
q-6 -30 -6 -60q0 -91 43.5 -141.5t124.5 -50.5q36 0 68.5 11t59.5 32t46.5 53t27.5 74l11 55h-149l16 74h227l-72 -360h-77zM263 -66q22 0 32 -9.5t10 -26.5q0 -4 -0.5 -8.5t-2.5 -15.5q-7 -34 -26 -65.5t-44 -53.5h-56q23 23 34.5 39t21.5 37q-28 5 -28 33q0 3 0.5 8
t2.5 16q9 46 56 46z" />
    <glyph glyph-name="Gdotaccent" unicode="&#x120;" horiz-adv-x="661" 
d="M483 102h-4q-11 -23 -29 -44t-43 -36.5t-57 -24.5t-70 -9q-50 0 -91 18t-71 53t-46.5 87t-16.5 120q0 88 23 168t67.5 141.5t109.5 98t149 36.5q91 0 152.5 -42.5t83.5 -116.5l-73 -33q-20 57 -61.5 88t-111.5 31q-89 0 -149.5 -58.5t-81.5 -161.5l-21 -104
q-6 -30 -6 -60q0 -91 43.5 -141.5t124.5 -50.5q36 0 68.5 11t59.5 32t46.5 53t27.5 74l11 55h-149l16 74h227l-72 -360h-77zM429 787q-20 0 -31 9t-11 26q0 4 0.5 8.5t2.5 12.5q9 47 56 47q20 0 31 -9t11 -26q0 -5 -3 -21q-9 -47 -56 -47z" />
    <glyph glyph-name="Hbar" unicode="&#x126;" horiz-adv-x="690" 
d="M526 318h-339l-64 -318h-81l104 520h-66l13 62h66l23 116h81l-23 -116h340l23 116h81l-23 -116h66l-13 -62h-66l-104 -520h-81zM541 390l26 130h-340l-26 -130h340z" />
    <glyph glyph-name="Hcircumflex" unicode="&#x124;" horiz-adv-x="684" 
d="M523 318h-339l-64 -318h-81l140 698h81l-61 -308h339l62 308h81l-140 -698h-81zM521 935l82 -143l-43 -30l-93 115l-139 -116l-40 32l139 142h94z" />
    <glyph glyph-name="Iacute" unicode="&#xcd;" horiz-adv-x="387" 
d="M9 0l14 69h93l111 560h-93l14 69h267l-14 -69h-93l-111 -560h93l-14 -69h-267zM303 756l-49 25l104 169l68 -36z" />
    <glyph glyph-name="Ibreve" unicode="&#x12c;" horiz-adv-x="387" 
d="M9 0l14 69h93l111 560h-93l14 69h267l-14 -69h-93l-111 -560h93l-14 -69h-267zM297 766q-37 0 -61 13.5t-38.5 33.5t-21.5 43.5t-10 43.5l46 20l10 -22q16 -35 32 -53t45 -18q27 0 49 16.5t51 54.5l17 22l48 -20q-10 -21 -23.5 -44.5t-33.5 -43.5t-47 -33t-63 -13z" />
    <glyph glyph-name="Icircumflex" unicode="&#xce;" horiz-adv-x="387" 
d="M9 0l14 69h93l111 560h-93l14 69h267l-14 -69h-93l-111 -560h93l-14 -69h-267zM368 935l82 -143l-43 -30l-93 115l-139 -116l-40 32l139 142h94z" />
    <glyph glyph-name="Idieresis" unicode="&#xcf;" horiz-adv-x="387" 
d="M9 0l14 69h93l111 560h-93l14 69h267l-14 -69h-93l-111 -560h93l-14 -69h-267zM204 787q-20 0 -31 9t-11 26q0 5 3 23q9 47 56 47q20 0 31 -9t11 -26q0 -5 -3 -23q-9 -47 -56 -47zM386 787q-20 0 -31 9t-11 26q0 5 3 23q9 47 56 47q20 0 31 -9t11 -26q0 -5 -3 -23
q-9 -47 -56 -47z" />
    <glyph glyph-name="Idotaccent" unicode="&#x130;" horiz-adv-x="387" 
d="M9 0l14 69h93l111 560h-93l14 69h267l-14 -69h-93l-111 -560h93l-14 -69h-267zM297 787q-20 0 -31 9t-11 26q0 4 0.5 8.5t2.5 12.5q9 47 56 47q20 0 31 -9t11 -26q0 -5 -3 -21q-9 -47 -56 -47z" />
    <glyph glyph-name="uni1ECA" unicode="&#x1eca;" horiz-adv-x="387" 
d="M9 0l14 69h93l111 560h-93l14 69h267l-14 -69h-93l-111 -560h93l-14 -69h-267zM109 -169q-20 0 -31 9t-11 26q0 4 0.5 8.5t2.5 12.5q9 47 56 47q20 0 31 -9t11 -26q0 -5 -3 -21q-9 -47 -56 -47z" />
    <glyph glyph-name="Igrave" unicode="&#xcc;" horiz-adv-x="387" 
d="M9 0l14 69h93l111 560h-93l14 69h267l-14 -69h-93l-111 -560h93l-14 -69h-267zM201 916l68 32l62 -172l-46 -21z" />
    <glyph glyph-name="uni1EC8" unicode="&#x1ec8;" horiz-adv-x="387" 
d="M9 0l14 69h93l111 560h-93l14 69h267l-14 -69h-93l-111 -560h93l-14 -69h-267zM227 935h107q19 0 31 -4.5t19 -11.5t9.5 -15.5t2.5 -17.5q0 -26 -17 -51t-44 -56l-28 -32l-41 23l69 105h-116z" />
    <glyph glyph-name="Imacron" unicode="&#x12a;" horiz-adv-x="387" 
d="M9 0l14 69h93l111 560h-93l14 69h267l-14 -69h-93l-111 -560h93l-14 -69h-267zM176 875h272l-14 -66h-272z" />
    <glyph glyph-name="Iogonek" unicode="&#x12e;" horiz-adv-x="387" 
d="M23 69h93l111 560h-93l14 69h267l-14 -69h-93l-111 -560h93l-14 -69q-39 -26 -62.5 -45.5t-36 -34t-16 -24.5t-3.5 -18q0 -16 9.5 -23.5t23.5 -7.5q12 0 26 6.5t28 20.5l37 -44q-13 -14 -37 -25.5t-59 -11.5q-19 0 -36 4t-30.5 13t-21.5 23.5t-8 34.5q0 42 34 71.5
t91 55.5l-1 5h-205z" />
    <glyph glyph-name="Itilde" unicode="&#x128;" horiz-adv-x="387" 
d="M9 0l14 69h93l111 560h-93l14 69h267l-14 -69h-93l-111 -560h93l-14 -69h-267zM369 782q-26 0 -43.5 9t-31.5 17q-22 14 -37 19t-28 5q-16 0 -29.5 -7t-30.5 -20l-27 38q16 21 40.5 37.5t58.5 16.5q26 0 43.5 -9t31.5 -17q22 -14 37 -19t28 -5q16 0 29.5 7t30.5 20
l27 -38q-16 -21 -40.5 -37.5t-58.5 -16.5z" />
    <glyph glyph-name="IJ" unicode="&#x132;" horiz-adv-x="643" 
d="M640 698l-96 -477q-23 -113 -91 -173t-178 -60q-46 0 -83 12.5t-63 35t-40 52.5t-14 66l75 19q5 -112 131 -112q73 0 120 43t63 123l80 398h-156l15 73h237zM179 698h81l-82 -408h-81z" />
    <glyph glyph-name="Jcircumflex" unicode="&#x134;" horiz-adv-x="498" 
d="M495 698l-103 -512q-19 -94 -75.5 -146t-145.5 -52q-72 0 -119 42.5t-49 122.5l74 15q2 -46 26 -76.5t72 -30.5q58 0 91 34.5t47 102.5l86 428h-234l14 72h316zM416 935l82 -143l-43 -30l-93 115l-139 -116l-40 32l139 142h94z" />
    <glyph glyph-name="Kcommaaccent" unicode="&#x136;" horiz-adv-x="615" 
d="M290 343l-125 -117l-45 -226h-81l140 698h81l-71 -356h5l119 115l249 241h103l-313 -303l197 -395h-88zM244 -66q22 0 32 -9.5t10 -26.5q0 -4 -0.5 -8.5t-2.5 -15.5q-7 -34 -26 -65.5t-44 -53.5h-56q23 23 34.5 39t21.5 37q-28 5 -28 33q0 3 0.5 8t2.5 16q9 46 56 46z
" />
    <glyph glyph-name="Lacute" unicode="&#x139;" horiz-adv-x="489" 
d="M39 0l140 698h81l-125 -626h287l-14 -72h-369zM246 756l-49 25l104 169l68 -36z" />
    <glyph glyph-name="Lcaron" unicode="&#x13d;" horiz-adv-x="489" 
d="M39 0l140 698h81l-125 -626h287l-14 -72h-369zM368 555h-53l35 185h93z" />
    <glyph glyph-name="Lcommaaccent" unicode="&#x13b;" horiz-adv-x="489" 
d="M39 0l140 698h81l-125 -626h287l-14 -72h-369zM208 -66q22 0 32 -9.5t10 -26.5q0 -4 -0.5 -8.5t-2.5 -15.5q-7 -34 -26 -65.5t-44 -53.5h-56q23 23 34.5 39t21.5 37q-28 5 -28 33q0 3 0.5 8t2.5 16q9 46 56 46z" />
    <glyph glyph-name="Ldot" unicode="&#x13f;" horiz-adv-x="489" 
d="M39 0l140 698h81l-125 -626h287l-14 -72h-369zM376 290q-20 0 -31 9t-11 26q0 4 0.5 8.5t2.5 12.5q9 47 56 47q20 0 31 -9t11 -26q0 -5 -3 -21q-9 -47 -56 -47z" />
    <glyph glyph-name="Lslash" unicode="&#x141;" horiz-adv-x="498" 
d="M412 0h-369l54 269l-105 -33l13 70l106 34l72 358h81l-66 -330l186 61l-14 -74l-187 -59l-44 -224h288z" />
    <glyph glyph-name="Nacute" unicode="&#x143;" horiz-adv-x="684" 
d="M295 420l-55 167h-5l-117 -587h-79l140 698h94l152 -420l55 -167h5l117 587h79l-140 -698h-94zM456 756l-49 25l104 169l68 -36z" />
    <glyph glyph-name="Ncaron" unicode="&#x147;" horiz-adv-x="684" 
d="M295 420l-55 167h-5l-117 -587h-79l140 698h94l152 -420l55 -167h5l117 587h79l-140 -698h-94zM400 769l-82 143l44 31l90 -116l140 117l41 -32l-139 -143h-94z" />
    <glyph glyph-name="Ncommaaccent" unicode="&#x145;" horiz-adv-x="684" 
d="M295 420l-55 167h-5l-117 -587h-79l140 698h94l152 -420l55 -167h5l117 587h79l-140 -698h-94zM275 -66q22 0 32 -9.5t10 -26.5q0 -4 -0.5 -8.5t-2.5 -15.5q-7 -34 -26 -65.5t-44 -53.5h-56q23 23 34.5 39t21.5 37q-28 5 -28 33q0 3 0.5 8t2.5 16q9 46 56 46z" />
    <glyph glyph-name="Ntilde" unicode="&#xd1;" horiz-adv-x="684" 
d="M295 420l-55 167h-5l-117 -587h-79l140 698h94l152 -420l55 -167h5l117 587h79l-140 -698h-94zM522 782q-26 0 -43.5 9t-31.5 17q-22 14 -37 19t-28 5q-16 0 -29.5 -7t-30.5 -20l-27 38q16 21 40.5 37.5t58.5 16.5q26 0 43.5 -9t31.5 -17q22 -14 37 -19t28 -5
q16 0 29.5 7t30.5 20l27 -38q-16 -21 -40.5 -37.5t-58.5 -16.5z" />
    <glyph glyph-name="Eng" unicode="&#x14a;" horiz-adv-x="684" 
d="M39 0l140 698h94l152 -420l55 -167h5l117 587h79l-160 -796q-11 -53 -36 -77.5t-78 -24.5h-67l14 70h82l26 130h-15l-152 420l-55 167h-5l-117 -587h-79z" />
    <glyph glyph-name="Oacute" unicode="&#xd3;" horiz-adv-x="679" 
d="M298 -12q-52 0 -96.5 17.5t-77 52t-51 85.5t-18.5 117q0 87 24 168t70 143.5t111.5 100.5t148.5 38q52 0 96.5 -18t77 -52.5t51 -85t18.5 -116.5q0 -87 -24 -168t-70 -143.5t-111.5 -100.5t-148.5 -38zM306 61q93 0 155 61.5t84 170.5l20 100q4 19 5.5 36.5t1.5 32.5
q0 80 -45 127.5t-126 47.5q-93 0 -155 -61.5t-84 -170.5l-20 -100q-4 -19 -5.5 -36.5t-1.5 -32.5q0 -80 45 -127.5t126 -47.5zM431 756l-49 25l104 169l68 -36z" />
    <glyph glyph-name="Obreve" unicode="&#x14e;" horiz-adv-x="679" 
d="M298 -12q-52 0 -96.5 17.5t-77 52t-51 85.5t-18.5 117q0 87 24 168t70 143.5t111.5 100.5t148.5 38q52 0 96.5 -18t77 -52.5t51 -85t18.5 -116.5q0 -87 -24 -168t-70 -143.5t-111.5 -100.5t-148.5 -38zM306 61q93 0 155 61.5t84 170.5l20 100q4 19 5.5 36.5t1.5 32.5
q0 80 -45 127.5t-126 47.5q-93 0 -155 -61.5t-84 -170.5l-20 -100q-4 -19 -5.5 -36.5t-1.5 -32.5q0 -80 45 -127.5t126 -47.5zM425 766q-37 0 -61 13.5t-38.5 33.5t-21.5 43.5t-10 43.5l46 20l10 -22q16 -35 32 -53t45 -18q27 0 49 16.5t51 54.5l17 22l48 -20
q-10 -21 -23.5 -44.5t-33.5 -43.5t-47 -33t-63 -13z" />
    <glyph glyph-name="Ocircumflex" unicode="&#xd4;" horiz-adv-x="679" 
d="M298 -12q-52 0 -96.5 17.5t-77 52t-51 85.5t-18.5 117q0 87 24 168t70 143.5t111.5 100.5t148.5 38q52 0 96.5 -18t77 -52.5t51 -85t18.5 -116.5q0 -87 -24 -168t-70 -143.5t-111.5 -100.5t-148.5 -38zM306 61q93 0 155 61.5t84 170.5l20 100q4 19 5.5 36.5t1.5 32.5
q0 80 -45 127.5t-126 47.5q-93 0 -155 -61.5t-84 -170.5l-20 -100q-4 -19 -5.5 -36.5t-1.5 -32.5q0 -80 45 -127.5t126 -47.5zM496 935l82 -143l-43 -30l-93 115l-139 -116l-40 32l139 142h94z" />
    <glyph glyph-name="Odieresis" unicode="&#xd6;" horiz-adv-x="679" 
d="M298 -12q-52 0 -96.5 17.5t-77 52t-51 85.5t-18.5 117q0 87 24 168t70 143.5t111.5 100.5t148.5 38q52 0 96.5 -18t77 -52.5t51 -85t18.5 -116.5q0 -87 -24 -168t-70 -143.5t-111.5 -100.5t-148.5 -38zM306 61q93 0 155 61.5t84 170.5l20 100q4 19 5.5 36.5t1.5 32.5
q0 80 -45 127.5t-126 47.5q-93 0 -155 -61.5t-84 -170.5l-20 -100q-4 -19 -5.5 -36.5t-1.5 -32.5q0 -80 45 -127.5t126 -47.5zM332 787q-20 0 -31 9t-11 26q0 5 3 23q9 47 56 47q20 0 31 -9t11 -26q0 -5 -3 -23q-9 -47 -56 -47zM514 787q-20 0 -31 9t-11 26q0 5 3 23
q9 47 56 47q20 0 31 -9t11 -26q0 -5 -3 -23q-9 -47 -56 -47z" />
    <glyph glyph-name="uni1ECC" unicode="&#x1ecc;" horiz-adv-x="679" 
d="M298 -12q-52 0 -96.5 17.5t-77 52t-51 85.5t-18.5 117q0 87 24 168t70 143.5t111.5 100.5t148.5 38q52 0 96.5 -18t77 -52.5t51 -85t18.5 -116.5q0 -87 -24 -168t-70 -143.5t-111.5 -100.5t-148.5 -38zM306 61q93 0 155 61.5t84 170.5l20 100q4 19 5.5 36.5t1.5 32.5
q0 80 -45 127.5t-126 47.5q-93 0 -155 -61.5t-84 -170.5l-20 -100q-4 -19 -5.5 -36.5t-1.5 -32.5q0 -80 45 -127.5t126 -47.5zM257 -169q-20 0 -31 9t-11 26q0 4 0.5 8.5t2.5 12.5q9 47 56 47q20 0 31 -9t11 -26q0 -5 -3 -21q-9 -47 -56 -47z" />
    <glyph glyph-name="Ograve" unicode="&#xd2;" horiz-adv-x="679" 
d="M298 -12q-52 0 -96.5 17.5t-77 52t-51 85.5t-18.5 117q0 87 24 168t70 143.5t111.5 100.5t148.5 38q52 0 96.5 -18t77 -52.5t51 -85t18.5 -116.5q0 -87 -24 -168t-70 -143.5t-111.5 -100.5t-148.5 -38zM306 61q93 0 155 61.5t84 170.5l20 100q4 19 5.5 36.5t1.5 32.5
q0 80 -45 127.5t-126 47.5q-93 0 -155 -61.5t-84 -170.5l-20 -100q-4 -19 -5.5 -36.5t-1.5 -32.5q0 -80 45 -127.5t126 -47.5zM329 916l68 32l62 -172l-46 -21z" />
    <glyph glyph-name="uni1ECE" unicode="&#x1ece;" horiz-adv-x="679" 
d="M298 -12q-52 0 -96.5 17.5t-77 52t-51 85.5t-18.5 117q0 87 24 168t70 143.5t111.5 100.5t148.5 38q52 0 96.5 -18t77 -52.5t51 -85t18.5 -116.5q0 -87 -24 -168t-70 -143.5t-111.5 -100.5t-148.5 -38zM306 61q93 0 155 61.5t84 170.5l20 100q4 19 5.5 36.5t1.5 32.5
q0 80 -45 127.5t-126 47.5q-93 0 -155 -61.5t-84 -170.5l-20 -100q-4 -19 -5.5 -36.5t-1.5 -32.5q0 -80 45 -127.5t126 -47.5zM356 935h107q19 0 31 -4.5t19 -11.5t9.5 -15.5t2.5 -17.5q0 -26 -17 -51t-44 -56l-28 -32l-41 23l69 105h-116z" />
    <glyph glyph-name="Ohungarumlaut" unicode="&#x150;" horiz-adv-x="679" 
d="M298 -12q-52 0 -96.5 17.5t-77 52t-51 85.5t-18.5 117q0 87 24 168t70 143.5t111.5 100.5t148.5 38q52 0 96.5 -18t77 -52.5t51 -85t18.5 -116.5q0 -87 -24 -168t-70 -143.5t-111.5 -100.5t-148.5 -38zM306 61q93 0 155 61.5t84 170.5l20 100q4 19 5.5 36.5t1.5 32.5
q0 80 -45 127.5t-126 47.5q-93 0 -155 -61.5t-84 -170.5l-20 -100q-4 -19 -5.5 -36.5t-1.5 -32.5q0 -80 45 -127.5t126 -47.5zM327 756l-45 23l104 169l64 -34zM484 756l-45 23l104 169l63 -34z" />
    <glyph glyph-name="Omacron" unicode="&#x14c;" horiz-adv-x="679" 
d="M298 -12q-52 0 -96.5 17.5t-77 52t-51 85.5t-18.5 117q0 87 24 168t70 143.5t111.5 100.5t148.5 38q52 0 96.5 -18t77 -52.5t51 -85t18.5 -116.5q0 -87 -24 -168t-70 -143.5t-111.5 -100.5t-148.5 -38zM306 61q93 0 155 61.5t84 170.5l20 100q4 19 5.5 36.5t1.5 32.5
q0 80 -45 127.5t-126 47.5q-93 0 -155 -61.5t-84 -170.5l-20 -100q-4 -19 -5.5 -36.5t-1.5 -32.5q0 -80 45 -127.5t126 -47.5zM304 875h272l-14 -66h-272z" />
    <glyph glyph-name="Oslash" unicode="&#xd8;" horiz-adv-x="679" 
d="M298 -12q-98 0 -163 59l-81 -93l-51 45l90 103q-18 32 -28 71t-10 87q0 87 24 168t70 143.5t111.5 100.5t148.5 38q98 0 163 -59l81 93l51 -45l-90 -103q18 -32 28 -71t10 -87q0 -87 -24 -168t-70 -143.5t-111.5 -100.5t-148.5 -38zM142 305q-4 -19 -5.5 -36.5
t-1.5 -32.5q0 -41 12 -74l376 430q-23 21 -53.5 33t-68.5 12q-93 0 -155 -61.5t-84 -170.5zM306 61q93 0 155 61.5t84 170.5l20 100q4 19 5.5 36.5t1.5 32.5q0 41 -12 74l-376 -430q23 -21 53.5 -33t68.5 -12z" />
    <glyph glyph-name="Oslashacute" unicode="&#x1fe;" horiz-adv-x="679" 
d="M298 -12q-98 0 -163 59l-81 -93l-51 45l90 103q-18 32 -28 71t-10 87q0 87 24 168t70 143.5t111.5 100.5t148.5 38q98 0 163 -59l81 93l51 -45l-90 -103q18 -32 28 -71t10 -87q0 -87 -24 -168t-70 -143.5t-111.5 -100.5t-148.5 -38zM142 305q-4 -19 -5.5 -36.5
t-1.5 -32.5q0 -41 12 -74l376 430q-23 21 -53.5 33t-68.5 12q-93 0 -155 -61.5t-84 -170.5zM306 61q93 0 155 61.5t84 170.5l20 100q4 19 5.5 36.5t1.5 32.5q0 41 -12 74l-376 -430q23 -21 53.5 -33t68.5 -12zM431 756l-49 25l104 169l68 -36z" />
    <glyph glyph-name="Otilde" unicode="&#xd5;" horiz-adv-x="679" 
d="M298 -12q-52 0 -96.5 17.5t-77 52t-51 85.5t-18.5 117q0 87 24 168t70 143.5t111.5 100.5t148.5 38q52 0 96.5 -18t77 -52.5t51 -85t18.5 -116.5q0 -87 -24 -168t-70 -143.5t-111.5 -100.5t-148.5 -38zM306 61q93 0 155 61.5t84 170.5l20 100q4 19 5.5 36.5t1.5 32.5
q0 80 -45 127.5t-126 47.5q-93 0 -155 -61.5t-84 -170.5l-20 -100q-4 -19 -5.5 -36.5t-1.5 -32.5q0 -80 45 -127.5t126 -47.5zM497 782q-26 0 -43.5 9t-31.5 17q-22 14 -37 19t-28 5q-16 0 -29.5 -7t-30.5 -20l-27 38q16 21 40.5 37.5t58.5 16.5q26 0 43.5 -9t31.5 -17
q22 -14 37 -19t28 -5q16 0 29.5 7t30.5 20l27 -38q-16 -21 -40.5 -37.5t-58.5 -16.5z" />
    <glyph glyph-name="Ohorn" unicode="&#x1a0;" horiz-adv-x="679" 
d="M733 810l-21 -101q-6 -27 -19.5 -45t-49.5 -18h-68q40 -39 58.5 -92t18.5 -116q0 -87 -24 -168t-70 -143.5t-111.5 -100.5t-148.5 -38q-52 0 -96.5 17.5t-77 52t-51 85.5t-18.5 117q0 87 24 168t70 143.5t111.5 100.5t148.5 38q42 0 80 -12h153l22 112h69zM306 61
q93 0 155 61.5t84 170.5l20 100q4 19 5.5 36.5t1.5 32.5q0 80 -45 127.5t-126 47.5q-93 0 -155 -61.5t-84 -170.5l-20 -100q-4 -19 -5.5 -36.5t-1.5 -32.5q0 -80 45 -127.5t126 -47.5z" />
    <glyph glyph-name="uni1EDA" unicode="&#x1eda;" horiz-adv-x="679" 
d="M733 810l-21 -101q-6 -27 -19.5 -45t-49.5 -18h-68q40 -39 58.5 -92t18.5 -116q0 -87 -24 -168t-70 -143.5t-111.5 -100.5t-148.5 -38q-52 0 -96.5 17.5t-77 52t-51 85.5t-18.5 117q0 87 24 168t70 143.5t111.5 100.5t148.5 38q42 0 80 -12h153l22 112h69zM306 61
q93 0 155 61.5t84 170.5l20 100q4 19 5.5 36.5t1.5 32.5q0 80 -45 127.5t-126 47.5q-93 0 -155 -61.5t-84 -170.5l-20 -100q-4 -19 -5.5 -36.5t-1.5 -32.5q0 -80 45 -127.5t126 -47.5zM431 756l-49 25l104 169l68 -36z" />
    <glyph glyph-name="uni1EE2" unicode="&#x1ee2;" horiz-adv-x="679" 
d="M733 810l-21 -101q-6 -27 -19.5 -45t-49.5 -18h-68q40 -39 58.5 -92t18.5 -116q0 -87 -24 -168t-70 -143.5t-111.5 -100.5t-148.5 -38q-52 0 -96.5 17.5t-77 52t-51 85.5t-18.5 117q0 87 24 168t70 143.5t111.5 100.5t148.5 38q42 0 80 -12h153l22 112h69zM306 61
q93 0 155 61.5t84 170.5l20 100q4 19 5.5 36.5t1.5 32.5q0 80 -45 127.5t-126 47.5q-93 0 -155 -61.5t-84 -170.5l-20 -100q-4 -19 -5.5 -36.5t-1.5 -32.5q0 -80 45 -127.5t126 -47.5zM257 -169q-20 0 -31 9t-11 26q0 4 0.5 8.5t2.5 12.5q9 47 56 47q20 0 31 -9t11 -26
q0 -5 -3 -21q-9 -47 -56 -47z" />
    <glyph glyph-name="uni1EDC" unicode="&#x1edc;" horiz-adv-x="679" 
d="M733 810l-21 -101q-6 -27 -19.5 -45t-49.5 -18h-68q40 -39 58.5 -92t18.5 -116q0 -87 -24 -168t-70 -143.5t-111.5 -100.5t-148.5 -38q-52 0 -96.5 17.5t-77 52t-51 85.5t-18.5 117q0 87 24 168t70 143.5t111.5 100.5t148.5 38q42 0 80 -12h153l22 112h69zM306 61
q93 0 155 61.5t84 170.5l20 100q4 19 5.5 36.5t1.5 32.5q0 80 -45 127.5t-126 47.5q-93 0 -155 -61.5t-84 -170.5l-20 -100q-4 -19 -5.5 -36.5t-1.5 -32.5q0 -80 45 -127.5t126 -47.5zM329 916l68 32l62 -172l-46 -21z" />
    <glyph glyph-name="uni1EDE" unicode="&#x1ede;" horiz-adv-x="679" 
d="M733 810l-21 -101q-6 -27 -19.5 -45t-49.5 -18h-68q40 -39 58.5 -92t18.5 -116q0 -87 -24 -168t-70 -143.5t-111.5 -100.5t-148.5 -38q-52 0 -96.5 17.5t-77 52t-51 85.5t-18.5 117q0 87 24 168t70 143.5t111.5 100.5t148.5 38q42 0 80 -12h153l22 112h69zM306 61
q93 0 155 61.5t84 170.5l20 100q4 19 5.5 36.5t1.5 32.5q0 80 -45 127.5t-126 47.5q-93 0 -155 -61.5t-84 -170.5l-20 -100q-4 -19 -5.5 -36.5t-1.5 -32.5q0 -80 45 -127.5t126 -47.5zM356 935h107q19 0 31 -4.5t19 -11.5t9.5 -15.5t2.5 -17.5q0 -26 -17 -51t-44 -56
l-28 -32l-41 23l69 105h-116z" />
    <glyph glyph-name="uni1EE0" unicode="&#x1ee0;" horiz-adv-x="679" 
d="M733 810l-21 -101q-6 -27 -19.5 -45t-49.5 -18h-68q40 -39 58.5 -92t18.5 -116q0 -87 -24 -168t-70 -143.5t-111.5 -100.5t-148.5 -38q-52 0 -96.5 17.5t-77 52t-51 85.5t-18.5 117q0 87 24 168t70 143.5t111.5 100.5t148.5 38q42 0 80 -12h153l22 112h69zM306 61
q93 0 155 61.5t84 170.5l20 100q4 19 5.5 36.5t1.5 32.5q0 80 -45 127.5t-126 47.5q-93 0 -155 -61.5t-84 -170.5l-20 -100q-4 -19 -5.5 -36.5t-1.5 -32.5q0 -80 45 -127.5t126 -47.5zM499 786q-20 0 -34.5 7t-29.5 16q-16 10 -28.5 15.5t-24.5 5.5q-16 0 -30 -7t-29 -20
l-31 39q17 20 39.5 36t53.5 16q20 0 34.5 -7t29.5 -16q16 -10 28.5 -15.5t24.5 -5.5q16 0 30 7t29 20l31 -39q-17 -20 -39.5 -36t-53.5 -16z" />
    <glyph glyph-name="uni1ED0" unicode="&#x1ed0;" horiz-adv-x="679" 
d="M298 -12q-52 0 -96.5 17.5t-77 52t-51 85.5t-18.5 117q0 87 24 168t70 143.5t111.5 100.5t148.5 38q52 0 96.5 -18t77 -52.5t51 -85t18.5 -116.5q0 -87 -24 -168t-70 -143.5t-111.5 -100.5t-148.5 -38zM306 61q93 0 155 61.5t84 170.5l20 100q4 19 5.5 36.5t1.5 32.5
q0 80 -45 127.5t-126 47.5q-93 0 -155 -61.5t-84 -170.5l-20 -100q-4 -19 -5.5 -36.5t-1.5 -32.5q0 -80 45 -127.5t126 -47.5zM589 867l-49 24l104 171l68 -36zM492 915l85 -133l-41 -32l-95 113l-131 -113l-40 32l128 133h94z" />
    <glyph glyph-name="uni1ED8" unicode="&#x1ed8;" horiz-adv-x="679" 
d="M298 -12q-52 0 -96.5 17.5t-77 52t-51 85.5t-18.5 117q0 87 24 168t70 143.5t111.5 100.5t148.5 38q52 0 96.5 -18t77 -52.5t51 -85t18.5 -116.5q0 -87 -24 -168t-70 -143.5t-111.5 -100.5t-148.5 -38zM306 61q93 0 155 61.5t84 170.5l20 100q4 19 5.5 36.5t1.5 32.5
q0 80 -45 127.5t-126 47.5q-93 0 -155 -61.5t-84 -170.5l-20 -100q-4 -19 -5.5 -36.5t-1.5 -32.5q0 -80 45 -127.5t126 -47.5zM496 935l82 -143l-43 -30l-93 115l-139 -116l-40 32l139 142h94zM257 -169q-20 0 -31 9t-11 26q0 4 0.5 8.5t2.5 12.5q9 47 56 47q20 0 31 -9
t11 -26q0 -5 -3 -21q-9 -47 -56 -47z" />
    <glyph glyph-name="uni1ED2" unicode="&#x1ed2;" horiz-adv-x="679" 
d="M298 -12q-52 0 -96.5 17.5t-77 52t-51 85.5t-18.5 117q0 87 24 168t70 143.5t111.5 100.5t148.5 38q52 0 96.5 -18t77 -52.5t51 -85t18.5 -116.5q0 -87 -24 -168t-70 -143.5t-111.5 -100.5t-148.5 -38zM306 61q93 0 155 61.5t84 170.5l20 100q4 19 5.5 36.5t1.5 32.5
q0 80 -45 127.5t-126 47.5q-93 0 -155 -61.5t-84 -170.5l-20 -100q-4 -19 -5.5 -36.5t-1.5 -32.5q0 -80 45 -127.5t126 -47.5zM205 1030l67 31l62 -170l-45 -21zM491 915l85 -133l-41 -32l-95 113l-131 -113l-40 32l128 133h94z" />
    <glyph glyph-name="uni1ED4" unicode="&#x1ed4;" horiz-adv-x="679" 
d="M298 -12q-52 0 -96.5 17.5t-77 52t-51 85.5t-18.5 117q0 87 24 168t70 143.5t111.5 100.5t148.5 38q52 0 96.5 -18t77 -52.5t51 -85t18.5 -116.5q0 -87 -24 -168t-70 -143.5t-111.5 -100.5t-148.5 -38zM306 61q93 0 155 61.5t84 170.5l20 100q4 19 5.5 36.5t1.5 32.5
q0 80 -45 127.5t-126 47.5q-93 0 -155 -61.5t-84 -170.5l-20 -100q-4 -19 -5.5 -36.5t-1.5 -32.5q0 -80 45 -127.5t126 -47.5zM499 1050h106q37 0 49 -16t12 -33q0 -26 -17 -52t-44 -57l-27 -30l-41 23l68 109h-116zM491 915l85 -133l-41 -32l-95 113l-131 -113l-40 32
l128 133h94z" />
    <glyph glyph-name="uni1ED6" unicode="&#x1ed6;" horiz-adv-x="679" 
d="M298 -12q-52 0 -96.5 17.5t-77 52t-51 85.5t-18.5 117q0 87 24 168t70 143.5t111.5 100.5t148.5 38q52 0 96.5 -18t77 -52.5t51 -85t18.5 -116.5q0 -87 -24 -168t-70 -143.5t-111.5 -100.5t-148.5 -38zM306 61q93 0 155 61.5t84 170.5l20 100q4 19 5.5 36.5t1.5 32.5
q0 80 -45 127.5t-126 47.5q-93 0 -155 -61.5t-84 -170.5l-20 -100q-4 -19 -5.5 -36.5t-1.5 -32.5q0 -80 45 -127.5t126 -47.5zM391 1054q25 0 42 -9t31 -17q22 -14 37 -19t28 -5q16 0 30 7t31 20l27 -36q-17 -20 -41.5 -36.5t-58.5 -16.5q-25 0 -42 9t-31 17q-22 14 -37 19
t-28 5q-16 0 -30 -7t-31 -20l-27 38q17 20 41.5 35.5t58.5 15.5zM492 915l84 -132l-41 -32l-95 112l-130 -112l-41 32l129 132h94z" />
    <glyph glyph-name="OE" unicode="&#x152;" horiz-adv-x="939" 
d="M412 0q-30 -5 -59.5 -8.5t-53.5 -3.5q-53 0 -97.5 17.5t-77 52t-51 85.5t-18.5 117q0 87 23.5 168t69.5 143.5t114 100.5t158 38q12 0 29 -1t35 -2.5t36 -3.5t32 -5h411l-15 -72h-329l-47 -236h296l-14 -72h-296l-50 -246h346l-14 -72h-428zM317 61q26 0 56 3.5t55 11.5
l109 550q-12 3 -28 5t-33 3.5t-32.5 2t-27.5 0.5q-106 0 -168.5 -59.5t-85.5 -172.5l-20 -99q-4 -20 -5.5 -37.5t-1.5 -32.5q0 -80 44 -127.5t138 -47.5z" />
    <glyph glyph-name="Racute" unicode="&#x154;" horiz-adv-x="625" 
d="M120 0h-81l140 698h249q46 0 79 -12.5t54 -35t30.5 -53t9.5 -66.5q0 -40 -13 -77t-36.5 -66.5t-57.5 -50.5t-76 -29l102 -308h-87l-95 300h-158zM379 371q50 0 83 25.5t43 74.5q7 34 9.5 48t2.5 26q0 36 -21 58.5t-74 22.5h-177l-50 -255h184zM415 756l-49 25l104 169
l68 -36z" />
    <glyph glyph-name="Rcaron" unicode="&#x158;" horiz-adv-x="625" 
d="M120 0h-81l140 698h249q46 0 79 -12.5t54 -35t30.5 -53t9.5 -66.5q0 -40 -13 -77t-36.5 -66.5t-57.5 -50.5t-76 -29l102 -308h-87l-95 300h-158zM379 371q50 0 83 25.5t43 74.5q7 34 9.5 48t2.5 26q0 36 -21 58.5t-74 22.5h-177l-50 -255h184zM359 769l-82 143l44 31
l90 -116l140 117l41 -32l-139 -143h-94z" />
    <glyph glyph-name="Rcommaaccent" unicode="&#x156;" horiz-adv-x="625" 
d="M120 0h-81l140 698h249q46 0 79 -12.5t54 -35t30.5 -53t9.5 -66.5q0 -40 -13 -77t-36.5 -66.5t-57.5 -50.5t-76 -29l102 -308h-87l-95 300h-158zM379 371q50 0 83 25.5t43 74.5q7 34 9.5 48t2.5 26q0 36 -21 58.5t-74 22.5h-177l-50 -255h184zM256 -66q22 0 32 -9.5
t10 -26.5q0 -4 -0.5 -8.5t-2.5 -15.5q-7 -34 -26 -65.5t-44 -53.5h-56q23 23 34.5 39t21.5 37q-28 5 -28 33q0 3 0.5 8t2.5 16q9 46 56 46z" />
    <glyph glyph-name="Sacute" unicode="&#x15a;" horiz-adv-x="577" 
d="M249 -12q-77 0 -141 30t-97 95l62 45q31 -53 76 -75t102 -22q44 0 78 11.5t56.5 32t34 47.5t11.5 58q0 45 -25 72t-81 38l-67 13q-74 14 -113.5 58.5t-39.5 112.5q0 42 16 79.5t46.5 65.5t75.5 44.5t103 16.5q81 0 135.5 -30t89.5 -78l-59 -49q-29 39 -70 61.5t-101 22.5
q-71 0 -113 -33t-42 -94q0 -88 106 -109l67 -13q74 -14 113.5 -58t39.5 -116q0 -47 -17.5 -88t-51 -72t-82.5 -48.5t-112 -17.5zM376 756l-49 25l104 169l68 -36z" />
    <glyph glyph-name="Scaron" unicode="&#x160;" horiz-adv-x="577" 
d="M249 -12q-77 0 -141 30t-97 95l62 45q31 -53 76 -75t102 -22q44 0 78 11.5t56.5 32t34 47.5t11.5 58q0 45 -25 72t-81 38l-67 13q-74 14 -113.5 58.5t-39.5 112.5q0 42 16 79.5t46.5 65.5t75.5 44.5t103 16.5q81 0 135.5 -30t89.5 -78l-59 -49q-29 39 -70 61.5t-101 22.5
q-71 0 -113 -33t-42 -94q0 -88 106 -109l67 -13q74 -14 113.5 -58t39.5 -116q0 -47 -17.5 -88t-51 -72t-82.5 -48.5t-112 -17.5zM320 769l-82 143l44 31l90 -116l140 117l41 -32l-139 -143h-94z" />
    <glyph glyph-name="Scedilla" unicode="&#x15e;" horiz-adv-x="577" 
d="M341 637q-71 0 -113 -33t-42 -94q0 -88 106 -109l67 -13q74 -14 113.5 -58t39.5 -116q0 -46 -16.5 -86t-48.5 -70.5t-79 -49t-107 -20.5l-16 -50l2 -2l12.5 2.5t18.5 1.5q25 0 42 -12t17 -44q0 -42 -30 -66.5t-78 -24.5q-38 0 -64 11t-37 26l40 41q7 -10 22 -17.5
t37 -7.5t34 10t12 26t-11.5 25.5t-43.5 13.5l-26 3l20 66q-66 6 -119 35.5t-82 87.5l62 45q31 -53 76 -75t102 -22q44 0 78 11.5t56.5 32t34 47.5t11.5 58q0 45 -25 72t-81 38l-67 13q-74 14 -113.5 58.5t-39.5 112.5q0 42 16 79.5t46.5 65.5t75.5 44.5t103 16.5
q81 0 135.5 -30t89.5 -78l-59 -49q-29 39 -70 61.5t-101 22.5z" />
    <glyph glyph-name="Scircumflex" unicode="&#x15c;" horiz-adv-x="577" 
d="M249 -12q-77 0 -141 30t-97 95l62 45q31 -53 76 -75t102 -22q44 0 78 11.5t56.5 32t34 47.5t11.5 58q0 45 -25 72t-81 38l-67 13q-74 14 -113.5 58.5t-39.5 112.5q0 42 16 79.5t46.5 65.5t75.5 44.5t103 16.5q81 0 135.5 -30t89.5 -78l-59 -49q-29 39 -70 61.5t-101 22.5
q-71 0 -113 -33t-42 -94q0 -88 106 -109l67 -13q74 -14 113.5 -58t39.5 -116q0 -47 -17.5 -88t-51 -72t-82.5 -48.5t-112 -17.5zM441 935l82 -143l-43 -30l-93 115l-139 -116l-40 32l139 142h94z" />
    <glyph glyph-name="Scommaaccent" unicode="&#x218;" horiz-adv-x="577" 
d="M249 -12q-77 0 -141 30t-97 95l62 45q31 -53 76 -75t102 -22q44 0 78 11.5t56.5 32t34 47.5t11.5 58q0 45 -25 72t-81 38l-67 13q-74 14 -113.5 58.5t-39.5 112.5q0 42 16 79.5t46.5 65.5t75.5 44.5t103 16.5q81 0 135.5 -30t89.5 -78l-59 -49q-29 39 -70 61.5t-101 22.5
q-71 0 -113 -33t-42 -94q0 -88 106 -109l67 -13q74 -14 113.5 -58t39.5 -116q0 -47 -17.5 -88t-51 -72t-82.5 -48.5t-112 -17.5zM225 -66q22 0 32 -9.5t10 -26.5q0 -4 -0.5 -8.5t-2.5 -15.5q-7 -34 -26 -65.5t-44 -53.5h-56q23 23 34.5 39t21.5 37q-28 5 -28 33q0 3 0.5 8
t2.5 16q9 46 56 46z" />
    <glyph glyph-name="uni1E9E" unicode="&#x1e9e;" horiz-adv-x="700" 
d="M393 59q60 0 95.5 32.5t47.5 88.5q7 32 9 45t2 21q0 43 -30.5 67t-86.5 24h-88l15 72l229 217h-341l-125 -626h-81l140 698h506l-16 -82l-223 -211l-1 -4q90 -2 138.5 -41t48.5 -114q0 -50 -17.5 -96.5t-49.5 -82.5t-77 -57.5t-100 -21.5q-64 0 -116.5 25t-80.5 80l62 45
q24 -42 60 -60.5t80 -18.5z" />
    <glyph glyph-name="Tbar" unicode="&#x166;" horiz-adv-x="557" 
d="M334 335l-67 -335h-81l67 335h-159l13 66h159l45 225h-213l14 72h507l-14 -72h-213l-45 -225h158l-13 -66h-158z" />
    <glyph glyph-name="Tcaron" unicode="&#x164;" horiz-adv-x="557" 
d="M392 626l-125 -626h-81l125 626h-213l14 72h507l-14 -72h-213zM336 769l-82 143l44 31l90 -116l140 117l41 -32l-139 -143h-94z" />
    <glyph glyph-name="uni021A" unicode="&#x21a;" horiz-adv-x="557" 
d="M392 626l-125 -626h-81l125 626h-213l14 72h507l-14 -72h-213zM212 -66q22 0 32 -9.5t10 -26.5q0 -4 -0.5 -8.5t-2.5 -15.5q-7 -34 -26 -65.5t-44 -53.5h-56q23 23 34.5 39t21.5 37q-28 5 -28 33q0 3 0.5 8t2.5 16q9 46 56 46z" />
    <glyph glyph-name="uni0162" unicode="&#x162;" horiz-adv-x="557" 
d="M392 626l-125 -626h-81l125 626h-213l14 72h507l-14 -72h-213zM212 -66q22 0 32 -9.5t10 -26.5q0 -4 -0.5 -8.5t-2.5 -15.5q-7 -34 -26 -65.5t-44 -53.5h-56q23 23 34.5 39t21.5 37q-28 5 -28 33q0 3 0.5 8t2.5 16q9 46 56 46z" />
    <glyph glyph-name="Thorn" unicode="&#xde;" horiz-adv-x="587" 
d="M38 0l141 698h81l-29 -144h168q46 0 79 -12.5t54 -34.5t30.5 -52.5t9.5 -66.5q0 -49 -16.5 -91.5t-46.5 -74t-73.5 -50t-97.5 -18.5h-188l-31 -154h-81zM165 226h185q50 0 83 26.5t43 75.5q7 34 9.5 48t2.5 26q0 36 -21 58t-74 22h-177z" />
    <glyph glyph-name="Uacute" unicode="&#xda;" horiz-adv-x="656" 
d="M255 698l-86 -429q-5 -23 -6.5 -39t-1.5 -33q0 -64 34 -100t94 -36q42 0 74.5 12t57.5 38.5t42.5 69t29.5 103.5l83 414h81l-84 -420q-16 -80 -40.5 -135.5t-60 -90t-83 -49.5t-109.5 -15q-94 0 -146 52.5t-52 148.5q0 23 2.5 49t8.5 56l81 404h81zM434 756l-49 25
l104 169l68 -36z" />
    <glyph glyph-name="Ubreve" unicode="&#x16c;" horiz-adv-x="656" 
d="M255 698l-86 -429q-5 -23 -6.5 -39t-1.5 -33q0 -64 34 -100t94 -36q42 0 74.5 12t57.5 38.5t42.5 69t29.5 103.5l83 414h81l-84 -420q-16 -80 -40.5 -135.5t-60 -90t-83 -49.5t-109.5 -15q-94 0 -146 52.5t-52 148.5q0 23 2.5 49t8.5 56l81 404h81zM428 766
q-37 0 -61 13.5t-38.5 33.5t-21.5 43.5t-10 43.5l46 20l10 -22q16 -35 32 -53t45 -18q27 0 49 16.5t51 54.5l17 22l48 -20q-10 -21 -23.5 -44.5t-33.5 -43.5t-47 -33t-63 -13z" />
    <glyph glyph-name="Ucircumflex" unicode="&#xdb;" horiz-adv-x="656" 
d="M255 698l-86 -429q-5 -23 -6.5 -39t-1.5 -33q0 -64 34 -100t94 -36q42 0 74.5 12t57.5 38.5t42.5 69t29.5 103.5l83 414h81l-84 -420q-16 -80 -40.5 -135.5t-60 -90t-83 -49.5t-109.5 -15q-94 0 -146 52.5t-52 148.5q0 23 2.5 49t8.5 56l81 404h81zM499 935l82 -143
l-43 -30l-93 115l-139 -116l-40 32l139 142h94z" />
    <glyph glyph-name="Udieresis" unicode="&#xdc;" horiz-adv-x="656" 
d="M255 698l-86 -429q-5 -23 -6.5 -39t-1.5 -33q0 -64 34 -100t94 -36q42 0 74.5 12t57.5 38.5t42.5 69t29.5 103.5l83 414h81l-84 -420q-16 -80 -40.5 -135.5t-60 -90t-83 -49.5t-109.5 -15q-94 0 -146 52.5t-52 148.5q0 23 2.5 49t8.5 56l81 404h81zM335 787q-20 0 -31 9
t-11 26q0 5 3 23q9 47 56 47q20 0 31 -9t11 -26q0 -5 -3 -23q-9 -47 -56 -47zM517 787q-20 0 -31 9t-11 26q0 5 3 23q9 47 56 47q20 0 31 -9t11 -26q0 -5 -3 -23q-9 -47 -56 -47z" />
    <glyph glyph-name="uni1EE4" unicode="&#x1ee4;" horiz-adv-x="656" 
d="M255 698l-86 -429q-5 -23 -6.5 -39t-1.5 -33q0 -64 34 -100t94 -36q42 0 74.5 12t57.5 38.5t42.5 69t29.5 103.5l83 414h81l-84 -420q-16 -80 -40.5 -135.5t-60 -90t-83 -49.5t-109.5 -15q-94 0 -146 52.5t-52 148.5q0 23 2.5 49t8.5 56l81 404h81zM246 -169q-20 0 -31 9
t-11 26q0 4 0.5 8.5t2.5 12.5q9 47 56 47q20 0 31 -9t11 -26q0 -5 -3 -21q-9 -47 -56 -47z" />
    <glyph glyph-name="Ugrave" unicode="&#xd9;" horiz-adv-x="656" 
d="M255 698l-86 -429q-5 -23 -6.5 -39t-1.5 -33q0 -64 34 -100t94 -36q42 0 74.5 12t57.5 38.5t42.5 69t29.5 103.5l83 414h81l-84 -420q-16 -80 -40.5 -135.5t-60 -90t-83 -49.5t-109.5 -15q-94 0 -146 52.5t-52 148.5q0 23 2.5 49t8.5 56l81 404h81zM332 916l68 32
l62 -172l-46 -21z" />
    <glyph glyph-name="uni1EE6" unicode="&#x1ee6;" horiz-adv-x="656" 
d="M255 698l-86 -429q-5 -23 -6.5 -39t-1.5 -33q0 -64 34 -100t94 -36q42 0 74.5 12t57.5 38.5t42.5 69t29.5 103.5l83 414h81l-84 -420q-16 -80 -40.5 -135.5t-60 -90t-83 -49.5t-109.5 -15q-94 0 -146 52.5t-52 148.5q0 23 2.5 49t8.5 56l81 404h81zM359 935h107
q19 0 31 -4.5t19 -11.5t9.5 -15.5t2.5 -17.5q0 -26 -17 -51t-44 -56l-28 -32l-41 23l69 105h-116z" />
    <glyph glyph-name="Uhungarumlaut" unicode="&#x170;" horiz-adv-x="656" 
d="M255 698l-86 -429q-5 -23 -6.5 -39t-1.5 -33q0 -64 34 -100t94 -36q42 0 74.5 12t57.5 38.5t42.5 69t29.5 103.5l83 414h81l-84 -420q-16 -80 -40.5 -135.5t-60 -90t-83 -49.5t-109.5 -15q-94 0 -146 52.5t-52 148.5q0 23 2.5 49t8.5 56l81 404h81zM330 756l-45 23
l104 169l64 -34zM487 756l-45 23l104 169l63 -34z" />
    <glyph glyph-name="Umacron" unicode="&#x16a;" horiz-adv-x="656" 
d="M255 698l-86 -429q-5 -23 -6.5 -39t-1.5 -33q0 -64 34 -100t94 -36q42 0 74.5 12t57.5 38.5t42.5 69t29.5 103.5l83 414h81l-84 -420q-16 -80 -40.5 -135.5t-60 -90t-83 -49.5t-109.5 -15q-94 0 -146 52.5t-52 148.5q0 23 2.5 49t8.5 56l81 404h81zM307 875h272l-14 -66
h-272z" />
    <glyph glyph-name="Uogonek" unicode="&#x172;" horiz-adv-x="656" 
d="M255 698l-86 -429q-5 -23 -6.5 -39t-1.5 -33q0 -64 34 -100t94 -36q42 0 74.5 12t57.5 38.5t42.5 69t29.5 103.5l83 414h81l-84 -420q-17 -86 -40.5 -135.5t-51.5 -78t-58.5 -43.5t-61.5 -32q-35 -19 -56.5 -35.5t-33.5 -31t-16 -25.5t-4 -19q0 -16 9.5 -23.5t23.5 -7.5
q12 0 26 6.5t28 20.5l37 -44q-13 -14 -37 -25.5t-59 -11.5q-19 0 -36 4t-30.5 13t-21.5 23.5t-8 34.5q0 38 29 67t81 49l-1 4q-106 0 -158 52.5t-52 148.5q0 23 2.5 49t8.5 56l81 404h81z" />
    <glyph glyph-name="Uring" unicode="&#x16e;" horiz-adv-x="656" 
d="M255 698l-86 -429q-5 -23 -6.5 -39t-1.5 -33q0 -64 34 -100t94 -36q42 0 74.5 12t57.5 38.5t42.5 69t29.5 103.5l83 414h81l-84 -420q-16 -80 -40.5 -135.5t-60 -90t-83 -49.5t-109.5 -15q-94 0 -146 52.5t-52 148.5q0 23 2.5 49t8.5 56l81 404h81zM426 746
q-45 0 -72.5 28.5t-27.5 71.5q0 60 35 95t94 35q45 0 72.5 -28.5t27.5 -71.5q0 -60 -35 -95t-94 -35zM432 794q52 0 63 56q4 19 4 31q0 47 -50 47q-52 0 -63 -56q-4 -19 -4 -31q0 -47 50 -47z" />
    <glyph glyph-name="Utilde" unicode="&#x168;" horiz-adv-x="656" 
d="M255 698l-86 -429q-5 -23 -6.5 -39t-1.5 -33q0 -64 34 -100t94 -36q42 0 74.5 12t57.5 38.5t42.5 69t29.5 103.5l83 414h81l-84 -420q-16 -80 -40.5 -135.5t-60 -90t-83 -49.5t-109.5 -15q-94 0 -146 52.5t-52 148.5q0 23 2.5 49t8.5 56l81 404h81zM500 782
q-26 0 -43.5 9t-31.5 17q-22 14 -37 19t-28 5q-16 0 -29.5 -7t-30.5 -20l-27 38q16 21 40.5 37.5t58.5 16.5q26 0 43.5 -9t31.5 -17q22 -14 37 -19t28 -5q16 0 29.5 7t30.5 20l27 -38q-16 -21 -40.5 -37.5t-58.5 -16.5z" />
    <glyph glyph-name="Uhorn" unicode="&#x1af;" horiz-adv-x="656" 
d="M255 698l-86 -429q-5 -23 -6.5 -39t-1.5 -33q0 -64 34 -100t94 -36q42 0 74.5 12t57.5 38.5t42.5 69t29.5 103.5l83 414h90l22 112h68l-20 -102q-5 -26 -19.5 -44t-49.5 -18h-21l-73 -368q-16 -80 -40.5 -135.5t-60 -90t-83 -49.5t-109.5 -15q-94 0 -146 52.5t-52 148.5
q0 23 2.5 49t8.5 56l81 404h81z" />
    <glyph glyph-name="uni1EE8" unicode="&#x1ee8;" horiz-adv-x="656" 
d="M255 698l-86 -429q-5 -23 -6.5 -39t-1.5 -33q0 -64 34 -100t94 -36q42 0 74.5 12t57.5 38.5t42.5 69t29.5 103.5l83 414h90l22 112h68l-20 -102q-5 -26 -19.5 -44t-49.5 -18h-21l-73 -368q-16 -80 -40.5 -135.5t-60 -90t-83 -49.5t-109.5 -15q-94 0 -146 52.5t-52 148.5
q0 23 2.5 49t8.5 56l81 404h81zM434 756l-49 25l104 169l68 -36z" />
    <glyph glyph-name="uni1EF0" unicode="&#x1ef0;" horiz-adv-x="656" 
d="M255 698l-86 -429q-5 -23 -6.5 -39t-1.5 -33q0 -64 34 -100t94 -36q42 0 74.5 12t57.5 38.5t42.5 69t29.5 103.5l83 414h90l22 112h68l-20 -102q-5 -26 -19.5 -44t-49.5 -18h-21l-73 -368q-16 -80 -40.5 -135.5t-60 -90t-83 -49.5t-109.5 -15q-94 0 -146 52.5t-52 148.5
q0 23 2.5 49t8.5 56l81 404h81zM246 -169q-20 0 -31 9t-11 26q0 4 0.5 8.5t2.5 12.5q9 47 56 47q20 0 31 -9t11 -26q0 -5 -3 -21q-9 -47 -56 -47z" />
    <glyph glyph-name="uni1EEA" unicode="&#x1eea;" horiz-adv-x="656" 
d="M255 698l-86 -429q-5 -23 -6.5 -39t-1.5 -33q0 -64 34 -100t94 -36q42 0 74.5 12t57.5 38.5t42.5 69t29.5 103.5l83 414h90l22 112h68l-20 -102q-5 -26 -19.5 -44t-49.5 -18h-21l-73 -368q-16 -80 -40.5 -135.5t-60 -90t-83 -49.5t-109.5 -15q-94 0 -146 52.5t-52 148.5
q0 23 2.5 49t8.5 56l81 404h81zM332 916l68 32l62 -172l-46 -21z" />
    <glyph glyph-name="uni1EEC" unicode="&#x1eec;" horiz-adv-x="656" 
d="M255 698l-86 -429q-5 -23 -6.5 -39t-1.5 -33q0 -64 34 -100t94 -36q42 0 74.5 12t57.5 38.5t42.5 69t29.5 103.5l83 414h90l22 112h68l-20 -102q-5 -26 -19.5 -44t-49.5 -18h-21l-73 -368q-16 -80 -40.5 -135.5t-60 -90t-83 -49.5t-109.5 -15q-94 0 -146 52.5t-52 148.5
q0 23 2.5 49t8.5 56l81 404h81zM359 935h107q19 0 31 -4.5t19 -11.5t9.5 -15.5t2.5 -17.5q0 -26 -17 -51t-44 -56l-28 -32l-41 23l69 105h-116z" />
    <glyph glyph-name="uni1EEE" unicode="&#x1eee;" horiz-adv-x="656" 
d="M255 698l-86 -429q-5 -23 -6.5 -39t-1.5 -33q0 -64 34 -100t94 -36q42 0 74.5 12t57.5 38.5t42.5 69t29.5 103.5l83 414h90l22 112h68l-20 -102q-5 -26 -19.5 -44t-49.5 -18h-21l-73 -368q-16 -80 -40.5 -135.5t-60 -90t-83 -49.5t-109.5 -15q-94 0 -146 52.5t-52 148.5
q0 23 2.5 49t8.5 56l81 404h81zM490 786q-20 0 -34.5 7t-29.5 16q-16 10 -28.5 15.5t-24.5 5.5q-16 0 -30 -7t-29 -20l-31 39q17 20 39.5 36t53.5 16q20 0 34.5 -7t29.5 -16q16 -10 28.5 -15.5t24.5 -5.5q16 0 30 7t29 20l31 -39q-17 -20 -39.5 -36t-53.5 -16z" />
    <glyph glyph-name="Wacute" unicode="&#x1e82;" horiz-adv-x="862" 
d="M132 0l-29 698h81l9 -354l6 -243h4l137 315l126 282h96l15 -295l14 -301h4l106 247l150 349h84l-313 -698h-93l-18 367l-10 239h-5l-109 -244l-161 -362h-94zM535 756l-49 25l104 169l68 -36z" />
    </font>
</defs>
</svg>
